<svg xmlns="http://www.w3.org/2000/svg" fill="none" viewBox="0 0 200 200"><g id="coding-london-200-ico_SxcUfNnYB0LLD4f2"><path id="Vector" fill="#edac4b" d="M154.3 68.177H56.745V64.323C56.7453 63.1946 57.1936 62.1125 57.9916 61.3145C58.7895 60.5166 59.8716 60.0683 61 60.068H153C152.843 60.8324 152.764 61.6107 152.764 62.391C152.764 62.424 152.764 62.453 152.764 62.485H72V65.727H153.176L153.254 65.705C153.511 66.5649 153.862 67.3939 154.3 68.177Z"></path><path id="Vector_2" fill="#FFE8BB" d="M109.819 131.366C110.442 131.366 111.052 131.55 111.571 131.897C112.089 132.243 112.493 132.735 112.732 133.311C112.971 133.887 113.033 134.521 112.911 135.133C112.79 135.744 112.49 136.306 112.049 136.747C111.608 137.188 111.046 137.488 110.435 137.609C109.823 137.731 109.189 137.669 108.613 137.43C108.037 137.191 107.545 136.787 107.199 136.269C106.852 135.75 106.668 135.14 106.668 134.517C106.668 133.681 107.001 132.88 107.591 132.289C108.182 131.699 108.983 131.366 109.819 131.366V131.366Z"></path><path id="Vector_3" fill="#FFE8BB" d="M166.676 83.9891V120.289C165.928 120.611 165.201 120.978 164.498 121.389L162.855 120.833L162.897 120.706V77.0911L166.676 83.9891Z"></path><path id="Vector_4" fill="#313553" d="M166.676 76.528V83.989L162.897 77.089V75.379C164.119 75.8763 165.384 76.2609 166.676 76.528V76.528Z"></path><path id="Vector_5" fill="#313553" d="M159.37 140.264H152.478L155.697 128.771H157.814C157.259 130.149 156.973 131.62 156.972 133.106C156.992 135.686 157.831 138.193 159.37 140.264V140.264Z"></path><path id="Vector_6" fill="#FFE8BB" d="M155.7 128.771L152.481 140.264H58.706C57.1837 140.264 55.7237 139.659 54.6472 138.583C53.5708 137.506 52.966 136.046 52.966 134.524V107.111L56.745 102.284V124.516C56.7453 125.644 57.1936 126.727 57.9916 127.524C58.7895 128.322 59.8716 128.771 61 128.771H155.7ZM112.977 134.517C112.977 133.893 112.793 133.284 112.446 132.765C112.1 132.247 111.608 131.842 111.032 131.603C110.456 131.365 109.822 131.302 109.21 131.423C108.599 131.545 108.037 131.845 107.596 132.285C107.154 132.726 106.854 133.288 106.732 133.899C106.61 134.511 106.672 135.145 106.91 135.721C107.149 136.297 107.552 136.79 108.071 137.137C108.589 137.483 109.198 137.669 109.822 137.669C110.658 137.669 111.459 137.337 112.051 136.746C112.642 136.154 112.974 135.353 112.974 134.517H112.977Z"></path><path id="Vector_7" fill="#edac4b" d="M154.342 78.848C154.564 78.8426 154.785 78.8816 154.992 78.9628C155.198 79.044 155.387 79.1658 155.546 79.3209C155.705 79.476 155.831 79.6613 155.917 79.866C156.003 80.0706 156.048 80.2904 156.048 80.5125C156.048 80.7346 156.003 80.9545 155.917 81.1591C155.831 81.3638 155.705 81.5491 155.546 81.7042C155.387 81.8593 155.198 81.981 154.992 82.0622C154.785 82.1434 154.564 82.1825 154.342 82.177H115.97C115.641 82.1777 115.318 82.0804 115.044 81.8977C114.77 81.7149 114.557 81.4549 114.43 81.1505C114.304 80.8462 114.272 80.5113 114.336 80.1882C114.401 79.8652 114.56 79.5686 114.793 79.336C114.947 79.1806 115.13 79.0574 115.332 78.9736C115.534 78.8898 115.751 78.8471 115.97 78.848H154.342Z"></path><path id="Vector_8" fill="#313553" d="M154.342 85.9661C154.784 85.9661 155.207 86.1415 155.519 86.4537C155.832 86.766 156.007 87.1895 156.007 87.6311C156.007 88.0726 155.832 88.4961 155.519 88.8084C155.207 89.1206 154.784 89.2961 154.342 89.2961H96.556C96.1142 89.2953 95.6908 89.1193 95.3785 88.8069C95.0662 88.4944 94.8905 88.0708 94.89 87.6291C94.8919 87.1881 95.0681 86.7657 95.3802 86.4541C95.6923 86.1426 96.115 85.9671 96.556 85.9661H154.342Z"></path><path id="Vector_9" fill="#edac4b" d="M154.342 93.085C154.564 93.0795 154.785 93.1186 154.992 93.1998C155.198 93.281 155.387 93.4027 155.546 93.5578C155.705 93.7129 155.831 93.8982 155.917 94.1029C156.003 94.3075 156.048 94.5274 156.048 94.7495C156.048 94.9716 156.003 95.1914 155.917 95.3961C155.831 95.6007 155.705 95.786 155.546 95.9411C155.387 96.0962 155.198 96.218 154.992 96.2992C154.785 96.3804 154.564 96.4194 154.342 96.414H135.384C134.942 96.4137 134.519 96.2381 134.206 95.9257C133.894 95.6133 133.718 95.1897 133.718 94.748C133.719 94.3066 133.895 93.8837 134.207 93.5719C134.519 93.2601 134.943 93.085 135.384 93.085H154.342Z"></path><path id="Vector_10" fill="#313553" d="M154.342 100.2C154.784 100.2 155.207 100.375 155.519 100.688C155.832 101 156.007 101.423 156.007 101.865C156.007 102.307 155.832 102.73 155.519 103.042C155.207 103.355 154.784 103.53 154.342 103.53H93.321C92.879 103.529 92.4553 103.354 92.1428 103.041C91.8303 102.729 91.6545 102.305 91.654 101.863C91.6558 101.422 91.8322 100.999 92.1445 100.688C92.4569 100.376 92.8798 100.201 93.321 100.2H154.342Z"></path><path id="Vector_11" fill="#edac4b" d="M154.342 107.322C154.776 107.333 155.189 107.513 155.493 107.824C155.796 108.135 155.966 108.552 155.966 108.987C155.966 109.421 155.796 109.838 155.493 110.149C155.189 110.46 154.776 110.64 154.342 110.651H122.442C122 110.651 121.576 110.475 121.264 110.163C120.951 109.85 120.776 109.427 120.775 108.985C120.776 108.544 120.953 108.121 121.265 107.809C121.577 107.497 122.001 107.322 122.442 107.322H154.342Z"></path><path id="Vector_12" fill="#313553" d="M154.342 114.44C154.564 114.435 154.785 114.474 154.992 114.555C155.198 114.636 155.387 114.758 155.546 114.913C155.705 115.068 155.831 115.253 155.917 115.458C156.003 115.663 156.048 115.882 156.048 116.105C156.048 116.327 156.003 116.546 155.917 116.751C155.831 116.956 155.705 117.141 155.546 117.296C155.387 117.451 155.198 117.573 154.992 117.654C154.785 117.735 154.564 117.774 154.342 117.769H145.091C144.649 117.769 144.226 117.593 143.913 117.281C143.601 116.968 143.425 116.545 143.425 116.103C143.426 115.662 143.602 115.239 143.915 114.927C144.227 114.616 144.65 114.441 145.091 114.44H154.342Z"></path><path id="Vector_13" fill="#edac4b" d="M154.342 121.558C154.784 121.558 155.207 121.733 155.519 122.046C155.832 122.358 156.007 122.781 156.007 123.223C156.007 123.665 155.832 124.088 155.519 124.4C155.207 124.713 154.784 124.888 154.342 124.888H103.028C102.586 124.887 102.162 124.712 101.85 124.399C101.537 124.087 101.362 123.663 101.361 123.221C101.363 122.78 101.539 122.357 101.852 122.046C102.164 121.734 102.587 121.559 103.028 121.558H154.342Z"></path><path id="Vector_14" fill="#313553" d="M154.471 71.742L152.857 75.059H103.028C102.586 75.059 102.163 74.8836 101.851 74.5713C101.538 74.2591 101.363 73.8356 101.363 73.394C101.363 72.9524 101.538 72.5289 101.851 72.2167C102.163 71.9044 102.586 71.729 103.028 71.729H154.342C154.387 71.729 154.426 71.739 154.471 71.742Z"></path><path id="Vector_15" fill="#FFE8BB" d="M58.706 57.311H153.928C153.508 58.189 153.197 59.1148 153 60.068H61C59.8716 60.0683 58.7895 60.5167 57.9916 61.3146C57.1936 62.1125 56.7453 63.1946 56.745 64.323V77.906C55.5726 77.0374 54.3047 76.3056 52.966 75.725V63.051C52.966 62.2972 53.1145 61.5508 53.4029 60.8544C53.6914 60.158 54.1142 59.5252 54.6472 58.9922C55.1802 58.4592 55.813 58.0364 56.5094 57.748C57.2058 57.4595 57.9522 57.311 58.706 57.311V57.311Z"></path><path id="Vector_16" fill="#313553" d="M153.255 65.705L153.177 65.727H72V62.485H152.768C152.774 63.5762 152.938 64.6608 153.255 65.705V65.705Z"></path><path id="Vector_17" fill="#edac4b" d="M135.9 114.44C136.334 114.451 136.747 114.631 137.051 114.942C137.354 115.253 137.524 115.67 137.524 116.104C137.524 116.539 137.354 116.956 137.051 117.267C136.747 117.578 136.334 117.758 135.9 117.769H71.642C71.2002 117.769 70.7766 117.593 70.4643 117.281C70.1519 116.968 69.9763 116.545 69.976 116.103C69.9773 115.662 70.1534 115.239 70.4656 114.927C70.7778 114.616 71.2008 114.441 71.642 114.44H135.9Z"></path><path id="Vector_18" fill="#313553" d="M126.192 93.085C126.626 93.0957 127.039 93.2757 127.343 93.5867C127.646 93.8977 127.816 94.315 127.816 94.7495C127.816 95.184 127.646 95.6013 127.343 95.9123C127.039 96.2233 126.626 96.4034 126.192 96.414H71.642C71.2002 96.4138 70.7766 96.2382 70.4643 95.9258C70.1519 95.6134 69.9763 95.1898 69.976 94.748C69.9768 94.3067 70.1527 93.8837 70.465 93.5719C70.7774 93.2601 71.2007 93.085 71.642 93.085H126.192Z"></path><path id="Vector_19" fill="#FFE8BB" d="M122.215 148.518L123.581 154.539H121.652H98.815H96.061L99.297 140.264L122.215 148.518Z"></path><path id="Vector_20" fill="#313553" d="M120.345 140.264L122.215 148.518L99.297 140.264H120.345Z"></path><path id="Vector_21" fill="#313553" d="M113.249 107.322C113.683 107.333 114.096 107.513 114.4 107.824C114.703 108.135 114.873 108.552 114.873 108.987C114.873 109.421 114.703 109.838 114.4 110.149C114.096 110.46 113.683 110.64 113.249 110.651H71.642C71.2002 110.651 70.7766 110.475 70.4643 110.163C70.1519 109.85 69.9763 109.427 69.976 108.985C69.9768 108.544 70.1527 108.121 70.465 107.809C70.7774 107.497 71.2007 107.322 71.642 107.322H113.249Z"></path><path id="Vector_22" fill="#313553" d="M106.778 78.848C107 78.8426 107.221 78.8816 107.428 78.9628C107.634 79.044 107.823 79.1658 107.982 79.3209C108.141 79.476 108.267 79.6613 108.353 79.866C108.439 80.0706 108.484 80.2904 108.484 80.5125C108.484 80.7346 108.439 80.9545 108.353 81.1591C108.267 81.3638 108.141 81.5491 107.982 81.7042C107.823 81.8593 107.634 81.981 107.428 82.0622C107.221 82.1434 107 82.1825 106.778 82.177H71.642C71.42 82.1825 71.1991 82.1434 70.9924 82.0622C70.7857 81.981 70.5974 81.8593 70.4384 81.7042C70.2795 81.5491 70.1531 81.3638 70.0669 81.1591C69.9807 80.9545 69.9362 80.7346 69.9362 80.5125C69.9362 80.2904 69.9807 80.0706 70.0669 79.866C70.1531 79.6613 70.2795 79.476 70.4384 79.3209C70.5974 79.1658 70.7857 79.044 70.9924 78.9628C71.1991 78.8816 71.42 78.8426 71.642 78.848H106.778Z"></path><path id="Vector_23" fill="#edac4b" d="M93.835 71.729C94.2766 71.729 94.7001 71.9044 95.0123 72.2167C95.3246 72.5289 95.5 72.9524 95.5 73.394C95.5 73.8356 95.3246 74.2591 95.0123 74.5713C94.7001 74.8836 94.2766 75.059 93.835 75.059H71.642C71.2002 75.0587 70.7766 74.8831 70.4643 74.5708C70.1519 74.2584 69.9763 73.8348 69.976 73.393C69.9771 72.9517 70.153 72.5287 70.4653 72.2168C70.7775 71.905 71.2007 71.7295 71.642 71.729H93.835Z"></path><path id="Vector_24" fill="#313553" d="M93.835 121.558C94.2766 121.558 94.7001 121.733 95.0123 122.046C95.3246 122.358 95.5 122.781 95.5 123.223C95.5 123.665 95.3246 124.088 95.0123 124.4C94.7001 124.713 94.2766 124.888 93.835 124.888H71.642C71.2002 124.887 70.7766 124.712 70.4642 124.399C70.1519 124.087 69.9763 123.663 69.976 123.221C69.9773 122.78 70.1534 122.357 70.4656 122.045C70.7778 121.734 71.2008 121.559 71.642 121.558H93.835Z"></path><path id="Vector_25" fill="#edac4b" d="M87.364 85.9661C87.8056 85.9661 88.2291 86.1415 88.5414 86.4537C88.8536 86.766 89.029 87.1895 89.029 87.6311C89.029 88.0726 88.8536 88.4961 88.5414 88.8084C88.2291 89.1206 87.8056 89.2961 87.364 89.2961H71.642C71.2002 89.2955 70.7766 89.1197 70.4642 88.8072C70.1519 88.4946 69.9763 88.0709 69.976 87.6291C69.9773 87.1879 70.1534 86.7652 70.4656 86.4535C70.7778 86.1419 71.2008 85.9666 71.642 85.9661H87.364Z"></path><path id="Vector_26" fill="#edac4b" d="M84.128 100.2C84.5696 100.2 84.9931 100.375 85.3054 100.688C85.6176 101 85.793 101.423 85.793 101.865C85.793 102.307 85.6176 102.73 85.3054 103.042C84.9931 103.355 84.5696 103.53 84.128 103.53H71.642C71.2002 103.529 70.7766 103.354 70.4642 103.041C70.1519 102.729 69.9763 102.305 69.976 101.863C69.9773 101.422 70.1534 100.999 70.4656 100.688C70.7778 100.376 71.2008 100.201 71.642 100.2H84.128Z"></path><path id="Vector_27" fill="#313553" d="M62.382 86.478C62.6014 86.5599 62.7929 86.7027 62.9338 86.8897C63.0748 87.0767 63.1594 87.3001 63.1776 87.5335C63.1959 87.767 63.1471 88.0008 63.037 88.2075C62.9269 88.4141 62.76 88.585 62.556 88.7C62.556 88.632 62.556 88.561 62.556 88.49C62.556 88.325 62.556 88.16 62.543 87.995V87.956C62.5217 87.4604 62.4679 86.9666 62.382 86.478V86.478Z"></path><path id="Vector_28" fill="#313553" d="M61.942 72.153C62.1874 72.1522 62.4275 72.2242 62.632 72.36C62.8364 72.4958 62.996 72.6891 63.0905 72.9157C63.1849 73.1422 63.21 73.3916 63.1627 73.6324C63.1153 73.8732 62.9975 74.0945 62.8242 74.2683C62.651 74.4422 62.43 74.5607 62.1894 74.6088C61.9487 74.657 61.6992 74.6327 61.4724 74.5389C61.2456 74.4452 61.0517 74.2863 60.9153 74.0823C60.7788 73.8783 60.706 73.6384 60.706 73.393C60.706 73.0648 60.8361 72.75 61.0678 72.5176C61.2994 72.2851 61.6138 72.154 61.942 72.153V72.153Z"></path><path id="Vector_29" fill="#313553" d="M61.942 79.272C62.1872 79.2714 62.427 79.3435 62.6312 79.4793C62.8353 79.6151 62.9946 79.8084 63.0888 80.0347C63.1831 80.2611 63.208 80.5103 63.1605 80.7508C63.1131 80.9914 62.9953 81.2124 62.8222 81.386C62.649 81.5596 62.4282 81.6779 62.1878 81.7259C61.9474 81.774 61.6981 81.7496 61.4715 81.6559C61.245 81.5623 61.0513 81.4035 60.915 81.1996C60.7787 80.9958 60.706 80.7562 60.706 80.511C60.706 80.1829 60.8361 79.8682 61.0678 79.6359C61.2995 79.4037 61.6139 79.2728 61.942 79.272V79.272Z"></path><path id="Vector_30" fill="#313553" d="M61.942 93.509C62.2706 93.509 62.5857 93.6395 62.8181 93.8719C63.0504 94.1042 63.181 94.4194 63.181 94.748C63.181 95.0766 63.0504 95.3917 62.8181 95.6241C62.5857 95.8565 62.2706 95.987 61.942 95.987C61.6778 95.9808 61.4224 95.8914 61.212 95.7316C61.0016 95.5718 60.8469 95.3498 60.77 95.097L60.6 94.99C60.892 94.5364 61.1546 94.0644 61.386 93.577L61.441 93.602C61.544 93.5 61.857 93.509 61.942 93.509Z"></path><path id="Vector_31" fill="#313553" d="M61.942 107.745C62.1874 107.744 62.4275 107.816 62.632 107.952C62.8364 108.088 62.996 108.281 63.0905 108.508C63.1849 108.734 63.21 108.984 63.1627 109.224C63.1153 109.465 62.9975 109.687 62.8242 109.86C62.651 110.034 62.43 110.153 62.1894 110.201C61.9487 110.249 61.6992 110.225 61.4724 110.131C61.2456 110.037 61.0517 109.878 60.9153 109.674C60.7788 109.47 60.706 109.23 60.706 108.985C60.706 108.657 60.8361 108.342 61.0678 108.11C61.2994 107.877 61.6138 107.746 61.942 107.745V107.745Z"></path><path id="Vector_32" fill="#313553" d="M61.942 114.864C62.1872 114.863 62.427 114.936 62.6312 115.071C62.8353 115.207 62.9946 115.4 63.0888 115.627C63.1831 115.853 63.208 116.102 63.1605 116.343C63.1131 116.583 62.9953 116.804 62.8222 116.978C62.649 117.152 62.4282 117.27 62.1878 117.318C61.9474 117.366 61.6981 117.342 61.4715 117.248C61.245 117.154 61.0513 116.995 60.915 116.792C60.7787 116.588 60.706 116.348 60.706 116.103C60.706 115.775 60.8361 115.46 61.0678 115.228C61.2995 114.996 61.6139 114.865 61.942 114.864V114.864Z"></path><path id="Vector_33" fill="#313553" d="M61.942 121.982C62.1875 121.981 62.4276 122.053 62.6321 122.189C62.8366 122.325 62.9961 122.518 63.0905 122.745C63.185 122.971 63.2101 123.221 63.1626 123.462C63.1151 123.703 62.9972 123.924 62.8239 124.098C62.6505 124.272 62.4295 124.39 62.1888 124.438C61.9481 124.486 61.6985 124.462 61.4717 124.368C61.2449 124.274 61.0511 124.115 60.9148 123.911C60.7785 123.706 60.7058 123.466 60.706 123.221C60.706 122.893 60.8361 122.578 61.0678 122.346C61.2995 122.114 61.6139 121.983 61.942 121.982V121.982Z"></path><path id="Vector_34" fill="#313553" d="M55.033 100.206L56.833 101.057L56.742 101.251V102.284L52.963 107.111V101.251C53.6738 100.945 54.3651 100.596 55.033 100.206V100.206Z"></path><path id="Vector_35" fill="#313553" d="M48.873 102.581L48.908 102.74C47.236 106.532 45.108 110.295 42.615 112.389C41.8056 113.068 41.027 113.756 40.279 114.453C39.997 110.318 39.693 106.134 39.402 102.74C40.8359 103.001 42.2905 103.132 43.748 103.131C45.4712 103.134 47.1896 102.949 48.873 102.581V102.581Z"></path><path id="Vector_36" fill="#edac4b" d="M37.15 121.536C37.7651 120.095 38.7135 118.821 39.917 117.818C40.101 117.676 40.285 117.533 40.473 117.397C43.4422 115.309 46.6776 113.627 50.093 112.397C50.002 112.591 46.527 119.952 43.193 122.764C42.42 123.414 41.646 123.997 40.915 124.564C40.1731 125.128 39.4714 125.743 38.815 126.405C38.0903 127.118 37.5171 127.971 37.1297 128.911C36.7422 129.851 36.5484 130.86 36.56 131.877V132.042H35.134V131.877C35.1521 130.133 35.3147 128.394 35.62 126.677C35.9109 124.906 36.425 123.178 37.15 121.536V121.536Z"></path><path id="Vector_37" fill="#313553" d="M41.269 131.877V132.042H39.535C39.4507 130.146 39.2081 128.261 38.81 126.405C39.4665 125.743 40.1682 125.128 40.91 124.564C41.133 128.318 41.269 131.126 41.269 131.877Z"></path><path id="Vector_38" fill="#edac4b" d="M40.473 117.394C40.285 117.533 40.101 117.676 39.917 117.818C38.7135 118.821 37.7652 120.095 37.15 121.536C36.765 120.936 36.289 120.271 35.739 119.53C34.461 117.802 32.805 115.699 31.106 113.362C29.0601 110.622 27.2338 107.725 25.644 104.697C25.644 104.697 25.634 104.681 25.618 104.652C25.379 104.176 25.152 103.704 24.936 103.225C17.859 87.616 22.444 72.053 22.444 72.053C24.8702 74.266 27.1465 76.6379 29.258 79.153C27.9316 80.3265 26.8627 81.7621 26.1189 83.3693C25.375 84.9764 24.9722 86.7204 24.936 88.491C24.936 95.412 31.106 101.214 39.402 102.741C39.693 106.135 39.997 110.319 40.279 114.454C40.344 115.44 40.412 116.423 40.473 117.394Z"></path><path id="Vector_39" fill="#313553" d="M34.924 120.759C34.924 120.759 35.455 123.92 35.624 126.674C35.3187 128.391 35.1561 130.13 35.138 131.874V132.039H33.717V131.874C34.217 128.528 33.704 124.762 33.717 122.982C34.0773 122.219 34.4803 121.477 34.924 120.759V120.759Z"></path><path id="Vector_40" fill="#edac4b" d="M35.739 119.53C35.455 119.93 35.183 120.342 34.924 120.759C34.4803 121.477 34.0774 122.219 33.717 122.982V122.982C32.4055 125.817 31.716 128.9 31.695 132.023V132.039H31.125C31.0905 128.567 30.732 125.106 30.054 121.7C30.381 119.988 30.554 118.047 30.763 116.066C30.857 115.173 30.957 114.271 31.08 113.381L31.106 113.361C32.805 115.7 34.461 117.8 35.739 119.53Z"></path><path id="Vector_41" fill="#edac4b" d="M31.125 132.042H28.605C28.44 123.467 22.642 120.759 16.837 115.867C10.837 110.816 4.59302 97.482 4.59302 97.482C10.8343 99.7298 16.7323 102.836 22.117 106.71C22.2848 106.852 22.4597 106.986 22.641 107.11C26.841 110.404 28.98 116.358 30.054 121.7C30.7322 125.106 31.0907 128.569 31.125 132.042V132.042Z"></path><path id="Vector_42" fill="#313553" d="M31.106 113.362L31.08 113.382C30.957 114.272 30.857 115.174 30.763 116.067C30.187 112.246 27.126 110.214 22.642 107.111C22.467 106.975 22.295 106.839 22.117 106.711C18.05 103.301 16.779 94.982 16.779 94.982C21.435 97.719 25.269 104.064 25.618 104.653C25.634 104.682 25.644 104.698 25.644 104.698C27.2338 107.725 29.0601 110.622 31.106 113.362V113.362Z"></path><path id="Vector_43" stroke="#313553" stroke-linecap="round" stroke-linejoin="round" stroke-width=".647" d="M52.966 101.251C53.6758 100.945 54.3661 100.596 55.033 100.206L56.833 101.057L65.633 105.199L59.933 95.955C60.172 95.641 60.399 95.321 60.606 94.99C60.8983 94.5361 61.1608 94.0638 61.392 93.576C62.128 92.0539 62.5251 90.3904 62.556 88.7C62.556 88.632 62.556 88.561 62.556 88.49C62.556 88.325 62.556 88.16 62.543 87.995"></path><path id="Vector_44" stroke="#313553" stroke-linecap="round" stroke-linejoin="round" stroke-width=".647" d="M62.547 87.9561C62.5244 87.4603 62.4692 86.9666 62.382 86.4781C61.67 83.0043 59.6524 79.9361 56.745 77.9061C55.5726 77.0374 54.3047 76.3056 52.966 75.7251C50.0559 74.4695 46.9173 73.8307 43.748 73.8491C38.4242 73.7356 33.2522 75.6274 29.258 79.1491C27.9316 80.3225 26.8627 81.7581 26.1188 83.3653C25.375 84.9725 24.9722 86.7164 24.936 88.4871C24.936 95.4081 31.106 101.21 39.402 102.737C40.8359 102.998 42.2905 103.129 43.748 103.128C45.4712 103.131 47.1896 102.946 48.873 102.578C50.2774 102.271 51.6482 101.827 52.966 101.252"></path><path id="Vector_45" stroke="#313553" stroke-linecap="round" stroke-linejoin="round" stroke-width=".647" d="M154.474 71.7419L155.393 69.8529C154.986 69.3221 154.618 68.7619 154.293 68.1769C153.856 67.3937 153.507 66.5647 153.252 65.7049C152.936 64.6607 152.772 63.5761 152.766 62.4849C152.766 62.4529 152.766 62.4239 152.766 62.3909C152.766 61.6107 152.844 60.8324 153 60.0679C153.196 59.1148 153.507 58.1891 153.926 57.3109C156.579 51.7269 163.48 47.7469 171.576 47.7469C181.962 47.7469 190.385 54.3019 190.385 62.3909C190.385 70.4799 181.962 77.0329 171.576 77.0329C169.929 77.0357 168.287 76.8654 166.676 76.5249C165.384 76.2602 164.119 75.8766 162.897 75.3789C162 75.0178 161.131 74.5917 160.297 74.1039L151.497 77.8579L152.863 75.0579L154.48 71.7409"></path><path id="Vector_46" stroke="#313553" stroke-linecap="round" stroke-linejoin="round" stroke-width=".647" d="M162.855 120.834L157.228 118.928L159.6 125.642C158.864 126.598 158.263 127.651 157.814 128.771C157.259 130.149 156.973 131.621 156.972 133.106C156.992 135.686 157.833 138.193 159.372 140.264C162.591 144.729 168.736 147.748 175.786 147.748C186.173 147.748 194.595 141.192 194.595 133.106C194.595 125.02 186.173 118.465 175.786 118.465C172.657 118.449 169.558 119.071 166.678 120.293C165.93 120.615 165.203 120.982 164.5 121.393L162.855 120.834Z"></path><path id="Vector_47" stroke="#313553" stroke-linecap="round" stroke-linejoin="round" stroke-width=".647" d="M52.966 75.725V63.051C52.966 61.5287 53.5708 60.0687 54.6472 58.9922C55.7237 57.9158 57.1837 57.311 58.706 57.311H153.928"></path><path id="Vector_48" stroke="#313553" stroke-linecap="round" stroke-linejoin="round" stroke-width=".647" d="M99.3 140.264H58.706C57.1837 140.264 55.7237 139.659 54.6472 138.583C53.5708 137.506 52.966 136.046 52.966 134.524V101.251"></path><path id="Vector_49" stroke="#313553" stroke-linecap="round" stroke-linejoin="round" stroke-width=".647" d="M159.37 140.264H152.478H120.345"></path><path id="Vector_50" stroke="#313553" stroke-linecap="round" stroke-linejoin="round" stroke-width=".647" d="M166.676 76.528V83.989V120.293"></path><path id="Vector_51" stroke="#313553" stroke-linecap="round" stroke-linejoin="round" stroke-width=".647" d="M56.745 77.91V64.323C56.7453 63.1946 57.1936 62.1125 57.9916 61.3145C58.7895 60.5166 59.8716 60.0683 61 60.068H153"></path><path id="Vector_52" stroke="#313553" stroke-linecap="round" stroke-linejoin="round" stroke-width=".647" d="M157.814 128.771H61C59.8716 128.771 58.7895 128.322 57.9916 127.524C57.1936 126.727 56.7453 125.644 56.745 124.516V101.251"></path><path id="Vector_53" stroke="#313553" stroke-linecap="round" stroke-linejoin="round" stroke-width=".647" d="M162.897 75.3831V77.0911V120.707"></path><path id="Vector_54" stroke="#313553" stroke-linecap="round" stroke-linejoin="round" stroke-width=".647" d="M56.745 68.177H154.296"></path><path id="Vector_55" stroke="#313553" stroke-linecap="round" stroke-linejoin="round" stroke-width=".647" d="M153.177 65.727H72.001V62.485H152.74"></path><path id="Vector_56" stroke="#313553" stroke-linecap="round" stroke-linejoin="round" stroke-width=".647" d="M112.974 134.517C112.974 135.141 112.79 135.75 112.444 136.269C112.098 136.788 111.605 137.192 111.029 137.431C110.453 137.67 109.82 137.733 109.208 137.612C108.596 137.49 108.034 137.191 107.593 136.75C107.152 136.309 106.851 135.748 106.729 135.136C106.607 134.525 106.669 133.89 106.907 133.314C107.145 132.738 107.549 132.245 108.068 131.898C108.586 131.552 109.195 131.366 109.819 131.366C110.655 131.366 111.457 131.697 112.049 132.288C112.64 132.879 112.973 133.681 112.974 134.517V134.517Z"></path><path id="Vector_57" stroke="#313553" stroke-linecap="round" stroke-linejoin="round" stroke-width=".647" d="M96.061 154.539L99.297 140.264H120.345L122.215 148.518L123.581 154.539"></path><path id="Vector_58" stroke="#313553" stroke-linecap="round" stroke-linejoin="round" stroke-width=".647" d="M121.652 154.539H98.815"></path><path id="Vector_59" stroke="#313553" stroke-linecap="round" stroke-linejoin="round" stroke-width=".647" d="M99.297 140.264L122.215 148.518"></path><path id="Vector_60" stroke="#313553" stroke-linecap="round" stroke-linejoin="round" stroke-width=".647" d="M87.354 154.539H92.344"></path><path id="Vector_61" stroke="#313553" stroke-linecap="round" stroke-linejoin="round" stroke-width=".647" d="M93.826 154.539H96.061H98.815"></path><path id="Vector_62" stroke="#313553" stroke-linecap="round" stroke-linejoin="round" stroke-width=".647" d="M16.17 154.539H21.16"></path><path id="Vector_63" stroke="#313553" stroke-linecap="round" stroke-linejoin="round" stroke-width=".647" d="M40.651 154.539H53.516"></path><path id="Vector_64" stroke="#313553" stroke-linecap="round" stroke-linejoin="round" stroke-width=".647" d="M22.642 154.539H29.391"></path><path id="Vector_65" stroke="#313553" stroke-linecap="round" stroke-linejoin="round" stroke-width=".647" d="M121.652 154.539H123.581H126.641"></path><path id="Vector_66" stroke="#313553" stroke-linecap="round" stroke-linejoin="round" stroke-width=".647" d="M128.123 154.539H133.113"></path><path id="Vector_67" stroke="#313553" stroke-linecap="round" stroke-linejoin="round" stroke-width=".647" d="M65.753 66.103L69.063 64.194L65.753 62.281"></path><path id="Vector_68" stroke="#313553" stroke-linecap="round" stroke-linejoin="round" stroke-width=".647" d="M63.614 62.281L60.301 64.194L63.614 66.103"></path><path id="Vector_69" stroke="#313553" stroke-linecap="round" stroke-linejoin="round" stroke-width=".647" d="M162.897 77.0911L166.676 83.9891"></path><path id="Vector_70" stroke="#313553" stroke-linecap="round" stroke-linejoin="round" stroke-width=".647" d="M155.697 128.771L152.478 140.264"></path><path id="Vector_71" stroke="#313553" stroke-linecap="round" stroke-linejoin="round" stroke-width=".647" d="M56.745 102.284L52.966 107.111"></path><path id="Vector_72" stroke="#313553" stroke-linecap="round" stroke-linejoin="round" stroke-width=".647" d="M40.651 154.539H29.391C27.6011 154.539 25.8844 153.828 24.6188 152.562C23.3531 151.297 22.642 149.58 22.642 147.79V132.042H47.4V147.79C47.3998 149.58 46.6886 151.296 45.423 152.562C44.1574 153.828 42.4409 154.539 40.651 154.539V154.539Z"></path><path id="Vector_73" stroke="#313553" stroke-linecap="round" stroke-linejoin="round" stroke-width=".647" d="M31.125 132.042C31.0907 128.569 30.7322 125.106 30.054 121.7C28.98 116.358 26.841 110.4 22.642 107.11C22.467 106.974 22.295 106.838 22.117 106.71C16.7323 102.836 10.8343 99.7298 4.59302 97.482C4.59302 97.482 10.838 110.816 16.837 115.867C22.642 120.759 28.437 123.467 28.605 132.042"></path><path id="Vector_74" stroke="#313553" stroke-linecap="round" stroke-linejoin="round" stroke-width=".647" d="M33.717 122.985C32.4055 125.82 31.716 128.903 31.695 132.026"></path><path id="Vector_75" stroke="#313553" stroke-linecap="round" stroke-linejoin="round" stroke-width=".647" d="M35.739 119.53C35.455 119.93 35.183 120.342 34.924 120.759C34.4803 121.477 34.0773 122.219 33.717 122.982"></path><path id="Vector_76" stroke="#313553" stroke-linecap="round" stroke-linejoin="round" stroke-width=".647" d="M48.908 102.74C47.236 106.532 45.108 110.295 42.615 112.389C41.8057 113.068 41.027 113.756 40.279 114.453"></path><path id="Vector_77" stroke="#313553" stroke-linecap="round" stroke-linejoin="round" stroke-width=".647" d="M30.054 121.7C30.381 119.988 30.554 118.047 30.763 116.066C30.857 115.173 30.957 114.271 31.08 113.381"></path><path id="Vector_78" stroke="#313553" stroke-linecap="round" stroke-linejoin="round" stroke-width=".647" d="M50.1 112.389C50.006 112.589 46.531 119.947 43.2 122.759C42.427 123.409 41.653 123.992 40.922 124.559C40.1802 125.123 39.4785 125.738 38.822 126.4C38.0974 127.113 37.5242 127.966 37.1367 128.906C36.7492 129.846 36.5555 130.855 36.567 131.872"></path><path id="Vector_79" stroke="#313553" stroke-linecap="round" stroke-linejoin="round" stroke-width=".647" d="M40.473 117.394C43.4422 115.306 46.6776 113.624 50.093 112.394"></path><path id="Vector_80" stroke="#313553" stroke-linecap="round" stroke-linejoin="round" stroke-width=".647" d="M35.134 131.877C35.1521 130.133 35.3147 128.394 35.62 126.677C35.9111 124.907 36.4252 123.18 37.15 121.539C37.7651 120.098 38.7135 118.824 39.917 117.821C40.101 117.679 40.285 117.536 40.473 117.4"></path><path id="Vector_81" stroke="#313553" stroke-linecap="round" stroke-linejoin="round" stroke-width=".647" d="M38.81 126.405C39.2081 128.261 39.4507 130.146 39.535 132.042"></path><path id="Vector_82" stroke="#313553" stroke-linecap="round" stroke-linejoin="round" stroke-width=".647" d="M25.644 104.7C27.2338 107.728 29.0601 110.625 31.106 113.365C32.806 115.702 34.461 117.805 35.739 119.533C36.289 120.274 36.765 120.943 37.15 121.539"></path><path id="Vector_83" stroke="#313553" stroke-linecap="round" stroke-linejoin="round" stroke-width=".647" d="M29.258 79.152C27.1465 76.6369 24.8702 74.265 22.444 72.052C22.444 72.052 17.859 87.615 24.936 103.224C25.152 103.703 25.379 104.175 25.618 104.651"></path><path id="Vector_84" stroke="#313553" stroke-linecap="round" stroke-linejoin="round" stroke-width=".647" d="M40.473 117.4C40.412 116.426 40.344 115.443 40.279 114.456C39.997 110.321 39.693 106.137 39.402 102.743"></path><path id="Vector_85" stroke="#313553" stroke-linecap="round" stroke-linejoin="round" stroke-width=".647" d="M41.269 131.877C41.269 131.126 41.133 128.318 40.913 124.564"></path><path id="Vector_86" stroke="#313553" stroke-linecap="round" stroke-linejoin="round" stroke-width=".647" d="M25.644 104.7C25.644 104.7 25.634 104.684 25.618 104.655C25.269 104.066 21.435 97.721 16.779 94.984C16.779 94.984 18.05 103.303 22.117 106.713C22.2849 106.855 22.4602 106.989 22.642 107.113C27.126 110.213 30.187 112.248 30.763 116.069"></path><path id="Vector_87" stroke="#313553" stroke-linecap="round" stroke-linejoin="round" stroke-width=".647" d="M33.717 122.982C33.704 124.762 34.217 128.528 33.717 131.874"></path><path id="Vector_88" stroke="#313553" stroke-linecap="round" stroke-linejoin="round" stroke-width=".647" d="M34.924 120.759C34.924 120.759 35.455 123.92 35.624 126.674"></path><path id="Vector_89" stroke="#313553" stroke-linecap="round" stroke-linejoin="round" stroke-width=".647" d="M67.407 70.49V125.211"></path><path id="Vector_90" stroke="#313553" stroke-linecap="round" stroke-linejoin="round" stroke-width=".647" d="M93.835 75.059H71.642C71.2002 75.0587 70.7766 74.8831 70.4643 74.5708C70.1519 74.2584 69.9763 73.8348 69.976 73.393C69.9771 72.9517 70.153 72.5287 70.4653 72.2168C70.7775 71.905 71.2007 71.7295 71.642 71.729H93.835C94.2766 71.729 94.7001 71.9044 95.0123 72.2167C95.3246 72.5289 95.5 72.9524 95.5 73.394C95.5 73.8356 95.3246 74.2591 95.0123 74.5713C94.7001 74.8836 94.2766 75.059 93.835 75.059V75.059Z"></path><path id="Vector_91" stroke="#313553" stroke-linecap="round" stroke-linejoin="round" stroke-width=".647" d="M154.474 71.742C154.426 71.742 154.387 71.729 154.342 71.729H103.028C102.586 71.729 102.163 71.9044 101.851 72.2167C101.538 72.5289 101.363 72.9524 101.363 73.394C101.363 73.8356 101.538 74.2591 101.851 74.5713C102.163 74.8836 102.586 75.059 103.028 75.059H152.857L154.474 71.742Z"></path><path id="Vector_92" stroke="#313553" stroke-linecap="round" stroke-linejoin="round" stroke-width=".647" d="M63.181 73.393C63.1806 73.6377 63.1077 73.8768 62.9715 74.0801C62.8352 74.2834 62.6418 74.4418 62.4156 74.5352C62.1894 74.6286 61.9406 74.6529 61.7006 74.605C61.4607 74.5571 61.2402 74.4391 61.0673 74.266C60.8943 74.0929 60.7765 73.8724 60.7288 73.6324C60.6811 73.3923 60.7056 73.1435 60.7992 72.9174C60.8928 72.6913 61.0513 72.498 61.2547 72.3619C61.4581 72.2259 61.6973 72.1532 61.942 72.153C62.1049 72.1527 62.2662 72.1846 62.4167 72.2468C62.5672 72.3091 62.7039 72.4004 62.8191 72.5156C62.9342 72.6308 63.0254 72.7676 63.0875 72.9182C63.1496 73.0687 63.1814 73.2301 63.181 73.393Z"></path><path id="Vector_93" stroke="#313553" stroke-linecap="round" stroke-linejoin="round" stroke-width=".647" d="M106.778 82.177H71.642C71.42 82.1825 71.1991 82.1434 70.9924 82.0622C70.7857 81.981 70.5974 81.8593 70.4384 81.7042C70.2795 81.5491 70.1531 81.3638 70.0669 81.1591C69.9807 80.9545 69.9362 80.7346 69.9362 80.5125C69.9362 80.2904 69.9807 80.0706 70.0669 79.866C70.1531 79.6613 70.2795 79.476 70.4384 79.3209C70.5974 79.1658 70.7857 79.044 70.9924 78.9628C71.1991 78.8816 71.42 78.8426 71.642 78.848H106.778C107 78.8426 107.221 78.8816 107.428 78.9628C107.634 79.044 107.823 79.1658 107.982 79.3209C108.141 79.476 108.267 79.6613 108.353 79.866C108.439 80.0706 108.484 80.2904 108.484 80.5125C108.484 80.7346 108.439 80.9545 108.353 81.1591C108.267 81.3638 108.141 81.5491 107.982 81.7042C107.823 81.8593 107.634 81.981 107.428 82.0622C107.221 82.1434 107 82.1825 106.778 82.177V82.177Z"></path><path id="Vector_94" stroke="#313553" stroke-linecap="round" stroke-linejoin="round" stroke-width=".647" d="M154.342 82.177H115.97C115.641 82.1777 115.318 82.0804 115.044 81.8977C114.77 81.7149 114.557 81.4549 114.43 81.1505C114.304 80.8462 114.272 80.5113 114.336 80.1882C114.401 79.8652 114.56 79.5686 114.793 79.336C114.947 79.1806 115.13 79.0574 115.332 78.9736C115.534 78.8898 115.751 78.8471 115.97 78.848H154.342C154.564 78.8426 154.785 78.8816 154.992 78.9628C155.198 79.044 155.387 79.1658 155.546 79.3209C155.705 79.476 155.831 79.6613 155.917 79.866C156.003 80.0706 156.048 80.2904 156.048 80.5125C156.048 80.7346 156.003 80.9545 155.917 81.1591C155.831 81.3638 155.705 81.5491 155.546 81.7042C155.387 81.8593 155.198 81.981 154.992 82.0622C154.785 82.1434 154.564 82.1825 154.342 82.177V82.177Z"></path><path id="Vector_95" stroke="#313553" stroke-linecap="round" stroke-linejoin="round" stroke-width=".647" d="M63.181 80.511C63.1808 80.7557 63.1081 80.995 62.972 81.1984C62.8359 81.4018 62.6425 81.5603 62.4163 81.6539C62.1901 81.7475 61.9413 81.7719 61.7013 81.7241C61.4612 81.6763 61.2407 81.5584 61.0676 81.3854C60.8945 81.2123 60.7767 80.9918 60.7289 80.7517C60.6811 80.5117 60.7055 80.2628 60.7991 80.0367C60.8926 79.8105 61.0512 79.6171 61.2546 79.481C61.458 79.3449 61.6973 79.2722 61.942 79.272C62.1048 79.2717 62.266 79.3036 62.4165 79.3657C62.5669 79.4279 62.7036 79.5192 62.8187 79.6343C62.9338 79.7494 63.0251 79.8861 63.0872 80.0365C63.1494 80.187 63.1813 80.3482 63.181 80.511V80.511Z"></path><path id="Vector_96" stroke="#313553" stroke-linecap="round" stroke-linejoin="round" stroke-width=".647" d="M87.364 89.3H71.642C71.2002 89.2994 70.7766 89.1236 70.4642 88.8111C70.1519 88.4985 69.9763 88.0748 69.976 87.633C69.9773 87.1918 70.1534 86.7691 70.4656 86.4575C70.7778 86.1458 71.2008 85.9705 71.642 85.97H87.364C87.8056 85.97 88.2291 86.1454 88.5414 86.4576C88.8536 86.7699 89.029 87.1934 89.029 87.635C89.029 88.0766 88.8536 88.5001 88.5414 88.8123C88.2291 89.1245 87.8056 89.3 87.364 89.3V89.3Z"></path><path id="Vector_97" stroke="#313553" stroke-linecap="round" stroke-linejoin="round" stroke-width=".647" d="M154.342 89.3H96.556C96.1142 89.2992 95.6908 89.1233 95.3785 88.8108C95.0662 88.4983 94.8905 88.0748 94.89 87.633C94.8919 87.192 95.0681 86.7696 95.3802 86.458C95.6923 86.1465 96.115 85.971 96.556 85.97H154.342C154.784 85.97 155.207 86.1454 155.519 86.4576C155.832 86.7699 156.007 87.1934 156.007 87.635C156.007 88.0766 155.832 88.5001 155.519 88.8123C155.207 89.1245 154.784 89.3 154.342 89.3V89.3Z"></path><path id="Vector_98" stroke="#313553" stroke-linecap="round" stroke-linejoin="round" stroke-width=".647" d="M62.56 88.49C62.56 88.561 62.56 88.632 62.553 88.7C62.757 88.585 62.9239 88.4141 63.034 88.2075C63.1441 88.0008 63.1929 87.767 63.1746 87.5335C63.1563 87.3001 63.0717 87.0767 62.9308 86.8897C62.7898 86.7027 62.5984 86.5599 62.379 86.478H62.372C62.4605 86.9679 62.518 87.4629 62.544 87.96V88C62.556 88.16 62.56 88.325 62.56 88.49Z"></path><path id="Vector_99" stroke="#313553" stroke-linecap="round" stroke-linejoin="round" stroke-width=".647" d="M126.192 96.414H71.642C71.2002 96.4138 70.7766 96.2382 70.4643 95.9258C70.1519 95.6134 69.9763 95.1898 69.976 94.748C69.9768 94.3067 70.1527 93.8837 70.465 93.5719C70.7774 93.2601 71.2007 93.085 71.642 93.085H126.192C126.626 93.0957 127.039 93.2757 127.343 93.5867C127.646 93.8977 127.816 94.315 127.816 94.7495C127.816 95.184 127.646 95.6013 127.343 95.9123C127.039 96.2233 126.626 96.4034 126.192 96.414V96.414Z"></path><path id="Vector_100" stroke="#313553" stroke-linecap="round" stroke-linejoin="round" stroke-width=".647" d="M154.342 96.414H135.384C134.942 96.4137 134.519 96.2381 134.206 95.9257C133.894 95.6133 133.718 95.1897 133.718 94.748C133.719 94.3066 133.895 93.8837 134.207 93.5719C134.519 93.2601 134.943 93.085 135.384 93.085H154.342C154.564 93.0795 154.785 93.1186 154.992 93.1998C155.198 93.281 155.387 93.4027 155.546 93.5578C155.705 93.7129 155.831 93.8982 155.917 94.1029C156.003 94.3075 156.048 94.5274 156.048 94.7495C156.048 94.9716 156.003 95.1914 155.917 95.3961C155.831 95.6007 155.705 95.786 155.546 95.9411C155.387 96.0962 155.198 96.218 154.992 96.2992C154.785 96.3804 154.564 96.4194 154.342 96.414V96.414Z"></path><path id="Vector_101" stroke="#313553" stroke-linecap="round" stroke-linejoin="round" stroke-width=".647" d="M61.443 93.6C61.543 93.5 61.857 93.507 61.943 93.507C62.2716 93.507 62.5867 93.6375 62.8191 93.8699C63.0515 94.1023 63.182 94.4174 63.182 94.746C63.182 95.0746 63.0515 95.3897 62.8191 95.6221C62.5867 95.8545 62.2716 95.985 61.943 95.985C61.6789 95.9788 61.4234 95.8894 61.213 95.7296C61.0026 95.5698 60.8479 95.3478 60.771 95.095"></path><path id="Vector_102" stroke="#313553" stroke-linecap="round" stroke-linejoin="round" stroke-width=".647" d="M84.128 103.533H71.642C71.2002 103.532 70.7766 103.357 70.4642 103.044C70.1519 102.732 69.9763 102.308 69.976 101.866C69.9773 101.425 70.1534 101.002 70.4656 100.69C70.7778 100.379 71.2008 100.204 71.642 100.203H84.128C84.5696 100.203 84.9931 100.378 85.3054 100.691C85.6176 101.003 85.793 101.426 85.793 101.868C85.793 102.31 85.6176 102.733 85.3054 103.045C84.9931 103.358 84.5696 103.533 84.128 103.533V103.533Z"></path><path id="Vector_103" stroke="#313553" stroke-linecap="round" stroke-linejoin="round" stroke-width=".647" d="M154.342 103.533H93.321C92.879 103.532 92.4553 103.357 92.1428 103.044C91.8303 102.732 91.6545 102.308 91.654 101.866C91.6558 101.425 91.8322 101.002 92.1445 100.691C92.4569 100.379 92.8798 100.204 93.321 100.203H154.342C154.784 100.203 155.207 100.378 155.519 100.691C155.832 101.003 156.007 101.426 156.007 101.868C156.007 102.31 155.832 102.733 155.519 103.045C155.207 103.358 154.784 103.533 154.342 103.533V103.533Z"></path><path id="Vector_104" stroke="#313553" stroke-linecap="round" stroke-linejoin="round" stroke-width=".647" d="M113.249 110.651H71.642C71.2002 110.651 70.7766 110.475 70.4643 110.163C70.1519 109.85 69.9763 109.427 69.976 108.985C69.9768 108.544 70.1527 108.121 70.465 107.809C70.7774 107.497 71.2007 107.322 71.642 107.322H113.249C113.683 107.333 114.096 107.513 114.4 107.824C114.703 108.135 114.873 108.552 114.873 108.987C114.873 109.421 114.703 109.838 114.4 110.149C114.096 110.46 113.683 110.64 113.249 110.651V110.651Z"></path><path id="Vector_105" stroke="#313553" stroke-linecap="round" stroke-linejoin="round" stroke-width=".647" d="M154.342 110.651H122.442C122 110.651 121.576 110.475 121.264 110.163C120.951 109.85 120.776 109.427 120.775 108.985C120.776 108.544 120.953 108.121 121.265 107.809C121.577 107.497 122.001 107.322 122.442 107.322H154.342C154.776 107.333 155.189 107.513 155.493 107.824C155.796 108.135 155.966 108.552 155.966 108.987C155.966 109.421 155.796 109.838 155.493 110.149C155.189 110.46 154.776 110.64 154.342 110.651V110.651Z"></path><path id="Vector_106" stroke="#313553" stroke-linecap="round" stroke-linejoin="round" stroke-width=".647" d="M63.181 108.985C63.1806 109.23 63.1077 109.469 62.9715 109.672C62.8352 109.875 62.6418 110.034 62.4156 110.127C62.1894 110.221 61.9406 110.245 61.7006 110.197C61.4607 110.149 61.2402 110.031 61.0673 109.858C60.8943 109.685 60.7765 109.464 60.7288 109.224C60.6811 108.984 60.7056 108.736 60.7992 108.509C60.8928 108.283 61.0513 108.09 61.2547 107.954C61.4581 107.818 61.6973 107.745 61.942 107.745C62.1049 107.745 62.2662 107.777 62.4167 107.839C62.5672 107.901 62.7039 107.992 62.8191 108.108C62.9342 108.223 63.0254 108.36 63.0875 108.51C63.1496 108.661 63.1814 108.822 63.181 108.985V108.985Z"></path><path id="Vector_107" stroke="#313553" stroke-linecap="round" stroke-linejoin="round" stroke-width=".647" d="M135.9 117.769H71.642C71.2002 117.769 70.7766 117.593 70.4643 117.281C70.1519 116.968 69.9763 116.545 69.976 116.103C69.9773 115.662 70.1534 115.239 70.4656 114.927C70.7778 114.616 71.2008 114.441 71.642 114.44H135.9C136.334 114.451 136.747 114.631 137.051 114.942C137.354 115.253 137.524 115.67 137.524 116.104C137.524 116.539 137.354 116.956 137.051 117.267C136.747 117.578 136.334 117.758 135.9 117.769V117.769Z"></path><path id="Vector_108" stroke="#313553" stroke-linecap="round" stroke-linejoin="round" stroke-width=".647" d="M154.342 117.769H145.091C144.649 117.769 144.226 117.593 143.913 117.281C143.601 116.968 143.425 116.545 143.425 116.103C143.426 115.662 143.602 115.239 143.915 114.927C144.227 114.616 144.65 114.441 145.091 114.44H154.342C154.564 114.435 154.785 114.474 154.992 114.555C155.198 114.636 155.387 114.758 155.546 114.913C155.705 115.068 155.831 115.253 155.917 115.458C156.003 115.663 156.048 115.882 156.048 116.105C156.048 116.327 156.003 116.546 155.917 116.751C155.831 116.956 155.705 117.141 155.546 117.296C155.387 117.451 155.198 117.573 154.992 117.654C154.785 117.735 154.564 117.774 154.342 117.769V117.769Z"></path><path id="Vector_109" stroke="#313553" stroke-linecap="round" stroke-linejoin="round" stroke-width=".647" d="M63.181 116.1C63.1808 116.345 63.1081 116.584 62.972 116.787C62.8359 116.991 62.6425 117.149 62.4163 117.243C62.1901 117.337 61.9413 117.361 61.7013 117.313C61.4612 117.265 61.2407 117.147 61.0676 116.974C60.8945 116.801 60.7767 116.581 60.7289 116.341C60.6811 116.101 60.7055 115.852 60.7991 115.626C60.8926 115.4 61.0512 115.206 61.2546 115.07C61.458 114.934 61.6973 114.861 61.942 114.861C62.1048 114.861 62.266 114.893 62.4165 114.955C62.5669 115.017 62.7036 115.108 62.8187 115.223C62.9338 115.338 63.0251 115.475 63.0872 115.626C63.1494 115.776 63.1813 115.937 63.181 116.1V116.1Z"></path><path id="Vector_110" stroke="#313553" stroke-linecap="round" stroke-linejoin="round" stroke-width=".647" d="M93.835 124.888H71.642C71.2002 124.887 70.7766 124.712 70.4642 124.399C70.1519 124.087 69.9763 123.663 69.976 123.221C69.9773 122.78 70.1534 122.357 70.4656 122.045C70.7778 121.734 71.2008 121.559 71.642 121.558H93.835C94.2766 121.558 94.7001 121.733 95.0123 122.046C95.3246 122.358 95.5 122.781 95.5 123.223C95.5 123.665 95.3246 124.088 95.0123 124.4C94.7001 124.713 94.2766 124.888 93.835 124.888Z"></path><path id="Vector_111" stroke="#313553" stroke-linecap="round" stroke-linejoin="round" stroke-width=".647" d="M154.342 124.888H103.028C102.586 124.887 102.162 124.712 101.85 124.399C101.537 124.087 101.362 123.663 101.361 123.221C101.363 122.78 101.539 122.357 101.852 122.046C102.164 121.734 102.587 121.559 103.028 121.558H154.342C154.784 121.558 155.207 121.733 155.519 122.046C155.832 122.358 156.007 122.781 156.007 123.223C156.007 123.665 155.832 124.088 155.519 124.4C155.207 124.713 154.784 124.888 154.342 124.888Z"></path><path id="Vector_112" stroke="#313553" stroke-linecap="round" stroke-linejoin="round" stroke-width=".647" d="M63.181 123.221C63.1808 123.466 63.1081 123.705 62.972 123.908C62.8359 124.112 62.6425 124.27 62.4163 124.364C62.1901 124.458 61.9413 124.482 61.7013 124.434C61.4612 124.386 61.2407 124.268 61.0676 124.095C60.8945 123.922 60.7767 123.702 60.7289 123.462C60.6811 123.222 60.7055 122.973 60.7991 122.747C60.8926 122.521 61.0512 122.327 61.2546 122.191C61.458 122.055 61.6973 121.982 61.942 121.982C62.1048 121.982 62.2659 122.014 62.4163 122.076C62.5667 122.138 62.7033 122.23 62.8184 122.345C62.9335 122.46 63.0248 122.596 63.087 122.747C63.1492 122.897 63.1811 123.058 63.181 123.221V123.221Z"></path><path id="Vector_113" stroke="#313553" stroke-linecap="round" stroke-linejoin="round" stroke-width=".971" d="M39.706 88.412C39.667 88.412 39.629 88.412 39.59 88.412C39.551 88.412 39.509 88.412 39.47 88.412C38.2687 88.3506 37.1389 87.8224 36.3215 86.9399C35.5042 86.0574 35.0639 84.8904 35.0947 83.6879C35.1255 82.4854 35.6249 81.3426 36.4863 80.503C37.3478 79.6635 38.5031 79.1938 39.706 79.194"></path><path id="Vector_114" stroke="#313553" stroke-linecap="round" stroke-linejoin="round" stroke-width=".971" d="M33.157 88.406H39.706C39.667 88.406 39.629 88.406 39.59 88.406C38.3806 88.4413 37.2335 88.9504 36.396 89.8237C35.5585 90.6969 35.0977 91.8642 35.1129 93.0741C35.1281 94.2839 35.6181 95.4393 36.4773 96.2911C37.3365 97.143 38.4961 97.6231 39.706 97.628"></path><path id="Vector_115" stroke="#313553" stroke-linecap="round" stroke-linejoin="round" stroke-width=".971" d="M47.986 88.412C48.025 88.412 48.067 88.412 48.106 88.412C48.145 88.412 48.184 88.412 48.222 88.412C49.4233 88.3506 50.5532 87.8224 51.3705 86.9399C52.1879 86.0574 52.6281 84.8904 52.5973 83.6879C52.5665 82.4854 52.0672 81.3426 51.2057 80.503C50.3443 79.6635 49.1889 79.1938 47.986 79.194"></path><path id="Vector_116" stroke="#313553" stroke-linecap="round" stroke-linejoin="round" stroke-width=".971" d="M54.535 88.406H47.986C48.025 88.406 48.067 88.406 48.106 88.406C49.3157 88.4414 50.463 88.9509 51.3004 89.8245C52.1379 90.6982 52.5984 91.866 52.5827 93.076C52.5669 94.2861 52.0762 95.4415 51.2163 96.2931C50.3564 97.1446 49.1962 97.6241 47.986 97.628"></path><path id="Vector_117" stroke="#313553" stroke-linecap="round" stroke-linejoin="round" stroke-width=".971" d="M175.548 67.785L184.339 62.712L175.548 57.635"></path><path id="Vector_118" stroke="#313553" stroke-linecap="round" stroke-linejoin="round" stroke-width=".971" d="M166.524 57.635L157.733 62.712L166.524 67.785"></path><path id="Vector_119" stroke="#313553" stroke-linecap="round" stroke-linejoin="round" stroke-width=".647" d="M173.539 55.3409L168.284 70.0079"></path><path id="Vector_120" stroke="#313553" stroke-linecap="round" stroke-linejoin="round" stroke-width=".971" d="M165.757 139.144L167.181 134.821L170.559 124.564L173.94 134.821L175.364 139.144"></path><path id="Vector_121" stroke="#313553" stroke-linecap="round" stroke-linejoin="round" stroke-width=".971" d="M167.181 134.821H173.94"></path><path id="Vector_122" stroke="#313553" stroke-linecap="round" stroke-linejoin="round" stroke-width=".647" d="M182.679 136.627C181.751 138.617 180.013 139.772 178.803 139.209C177.593 138.646 177.367 136.572 178.295 134.579C179.223 132.586 180.958 131.434 182.171 131.997C182.544 132.226 182.844 132.557 183.035 132.951C183.227 133.344 183.302 133.784 183.252 134.219C183.237 135.054 183.041 135.875 182.679 136.627V136.627Z"></path><path id="Vector_123" stroke="#313553" stroke-linecap="round" stroke-linejoin="round" stroke-width=".647" d="M183.249 134.19C183.249 134.2 183.249 134.21 183.249 134.219C183.427 135.97 182.356 140.581 185.149 138.704"></path></g></svg>