<svg xmlns="http://www.w3.org/2000/svg" fill="none" viewBox="0 0 200 200"><g id="team-work-london-200-ico_z2HVf1utVpNfelVK"><path id="Vector" fill="#FFE8BB" d="M160.76 74.27C162.16 71.833 161.785 68.454 157.666 70.318L153 58L144.541 56.063L139.362 58C139.362 58 136.73 61.775 136.73 63.311C136.73 64.847 137.094 67.941 137.094 67.941C136.51 69.0472 136.156 70.2597 136.052 71.506C136.139 72.872 138.236 80.233 139.66 81.106C141.084 81.979 144.319 81.477 144.319 81.477L144.919 84.655L139.135 85.548C139.135 85.548 138.652 90.881 142.399 91.095C146.146 91.309 160.764 87.035 160.764 87.035L156.332 85.035L155.745 76.99C155.745 76.99 159.364 76.707 160.76 74.27ZM137.675 68.161C137.621 67.7777 137.697 67.3873 137.89 67.052C137.89 67.052 138.158 66.752 139.052 67.003C139.716 67.2804 140.287 67.7406 140.7 68.33C139.967 68.7099 139.182 68.9795 138.37 69.13C138.071 69.112 137.756 68.832 137.675 68.161V68.161ZM141.055 76.6C140.255 76.4 139.362 74.718 139.362 74.718L142.189 74.552L146.089 74.746C143.877 76.851 141.855 76.8 141.055 76.6V76.6ZM146 69.49C145.728 69.437 145.557 69.214 145.318 68.619C145.079 68.024 145.735 67.196 145.735 67.196C146.039 67.2141 146.344 67.2141 146.648 67.196C147.156 67.166 149.216 68.928 149.216 68.928C148.175 69.2626 147.093 69.4517 146 69.49V69.49Z"></path><path id="Vector_2" fill="#edac4b" d="M44.5669 64.643C44.5669 64.643 39.9999 66.4 39.0939 67.737C38.1879 69.074 36.1889 69.448 37.6559 72.589C37.6559 72.589 35.8479 74.628 37.0689 76.749C37.0689 76.749 47.0959 70.149 49.3879 69.819C51.6799 69.489 63.0309 75.954 67.9279 79.326L72.8979 81.377C72.8979 81.377 76.3729 77.833 76.4389 73.84C76.4822 71.4585 76.2132 69.0816 75.6389 66.77C75.6389 66.77 74.7689 66.942 74.2479 67.109C73.8694 67.1955 73.473 67.1572 73.1179 67L70.1789 74C70.1789 74 65.8789 69.083 62.0309 66.875C58.1829 64.667 54.1829 58.822 44.5669 64.643Z"></path><path id="Vector_3" fill="#edac4b" d="M87.459 85.355H87.178C86.6835 85.3549 86.1944 85.4573 85.7414 85.6555C85.2884 85.8537 84.8813 86.1436 84.5458 86.5068C84.2102 86.87 83.9535 87.2988 83.7918 87.7661C83.6301 88.2333 83.5668 88.7291 83.606 89.222L84.04 94.663C84.3459 93.9139 84.8097 93.2395 85.3997 92.6857C85.9896 92.132 86.692 91.7119 87.459 91.454V85.355Z"></path><path id="Vector_4" fill="#edac4b" d="M35.633 90.191C35.633 90.191 41.063 81.617 49.982 80.034C58.901 78.451 60.327 87.311 60.327 87.311L61.911 97.2L66.063 97.825L65.828 101.645L68.55 100.245L70.534 103.667C70.534 103.667 71.688 101.108 72.549 100.877C74.024 100.36 75.383 99.5587 76.549 98.518C77.914 97.299 82.376 94.444 84.036 94.662C84.4291 93.7925 85.0134 93.0228 85.7452 92.4104C86.4771 91.798 87.3377 91.3586 88.263 91.125C90.5668 90.4683 92.7259 89.3826 94.627 87.925L98.727 98.291L97.245 99.5C97.245 99.5 98.026 102.363 96.345 102.436C94.664 102.509 96.468 107.329 92.419 107.89C92.419 107.89 91.683 107.778 91.301 108.774C90.919 109.77 86.382 115.837 84.926 116.628C83.47 117.419 73.853 125.913 67.29 126.852C60.727 127.791 45.8 109.709 45.8 109.709C45.8 109.709 36.543 104.709 35.314 99.399C34.5558 96.3604 34.6663 93.1699 35.633 90.191V90.191Z"></path><path id="Vector_5" fill="#edac4b" d="M36.636 151.792L38.082 155.648C38.082 155.648 63.376 157.766 68.861 158.084C74.346 158.402 88.847 153.66 88.847 153.66C89.2984 152.183 89.5204 150.645 89.505 149.1C89.505 149.1 69.214 151.058 61.841 151.224L36.636 151.792Z"></path><path id="Vector_6" fill="#edac4b" d="M86.4199 115.472C86.4199 115.472 87.9429 133.195 88.2079 134.718C88.4729 136.241 90.5889 144.018 90.5869 145.082C90.5849 146.146 90.7139 147.887 89.5049 149.1L88.8469 153.66L91.3329 162.192C91.3329 162.192 95.5249 162.449 97.0709 161.945C98.6169 161.441 97.9269 160.324 97.9269 160.324L97.2709 154.701C97.9112 152.885 98.3669 151.009 98.6309 149.101C98.6111 147.179 97.8439 145.34 96.4919 143.973C97.2707 141.378 97.4049 138.632 96.8829 135.973C96.0989 130.99 93.9829 128.288 93.3239 122.997C92.6685 118.737 91.7467 114.522 90.5639 110.377L86.4199 115.472Z"></path><path id="Vector_7" fill="#edac4b" d="M139.362 58C139.362 58 141.292 57.216 142.13 56.882C143.049 57.5162 144.048 58.0265 145.1 58.4C145.812 58.442 149.756 57.852 149.756 57.852C150.616 58.6658 151.197 59.7305 151.416 60.894C151.874 62.968 154.097 63.217 154.489 63.364C154.881 63.511 154.669 65.726 154.669 65.726L154.333 68.326C154.479 69.1725 154.772 69.9868 155.199 70.732L155.737 71.392C155.737 71.392 154.578 73.135 154.106 73.115C153.634 73.095 151.673 73.568 151.452 74.128C151.231 74.688 151.617 74.909 152.765 74.885C153.911 74.7278 154.964 74.1698 155.737 73.31C156.435 72.3469 157.078 71.3453 157.664 70.31C157.664 70.31 160.091 69.853 160.17 69.81C160.249 69.767 161.106 70.823 161.106 70.823C161.633 70.0114 162.006 69.1097 162.206 68.163C162.143 67.418 162.117 65.295 162.117 65.295L162.574 62.667C163.419 62.862 164.298 62.85 165.137 62.632C165.47 62.4771 165.767 62.2537 166.008 61.9765C166.249 61.6993 166.429 61.3745 166.536 61.0231C166.644 60.6717 166.676 60.3017 166.631 59.9371C166.585 59.5725 166.464 59.2216 166.274 58.907C166.571 58.6993 166.808 58.417 166.961 58.0885C167.114 57.7601 167.178 57.397 167.146 57.036C167.23 56.3888 167.054 55.7348 166.659 55.216C166.263 54.6972 165.678 54.3555 165.032 54.265C163.748 54.177 164.443 54.207 164.443 54.207C164.461 53.639 164.273 53.0837 163.912 52.6444C163.552 52.2051 163.044 51.9118 162.483 51.819C160.453 51.478 157.872 51.855 157.773 55.17C157.773 55.17 157.813 54.196 155.887 54.87C155.206 54.1667 154.339 53.6712 153.387 53.441C152.274 53.392 149.566 52.4 148.26 52.463C146.368 52.732 144.514 53.2231 142.737 53.926C141.713 54.388 139.362 58 139.362 58Z"></path><path id="Vector_8" fill="#edac4b" d="M155.91 77.722C156.709 78.1542 157.533 78.5375 158.378 78.87C158.761 78.9774 159.154 79.0494 159.55 79.085L159.65 78.015C159.062 77.9365 158.486 77.784 157.936 77.561C157.241 77.239 156.796 76.99 156.796 76.99H155.745L155.91 77.722Z"></path><path id="Vector_9" fill="#FFE8BB" d="M82.248 48.88C82.248 48.88 81.212 43.113 80.048 41.419C80.048 41.419 69.088 37.919 67.009 39.626C64.93 41.333 63.25 43.666 63.27 46.191C63.29 48.716 62.881 52.374 62.881 52.374C62.881 52.374 60.173 46.428 58.599 48.418C57.3876 50.0422 56.7926 52.0439 56.92 54.066C57.1818 54.664 57.4772 55.2466 57.805 55.811C57.805 55.811 60 57.749 61.239 57.726L59.032 64.643C59.032 64.643 66.4 70.4 67.21 70.75C68.02 71.1 70.179 74 70.179 74L73.118 67C73.8141 67.0737 74.5178 66.9974 75.1819 66.7763C75.8461 66.5552 76.4551 66.1943 76.968 65.718C78.461 64.135 79.458 60.654 80.43 59.365C81.4565 57.4984 81.8627 55.3537 81.59 53.241C81.23 51.884 82.248 48.88 82.248 48.88ZM69.423 51.1C70.523 50.472 73.98 51.1 73.98 51.1C73.9197 51.7495 73.7744 52.3883 73.548 53C73.4577 53.0326 73.3636 53.0531 73.268 53.061L72.426 52.743C71.946 52.534 69.423 51.1 69.423 51.1ZM73.636 61.74C72.768 61.548 70.827 58.727 70.827 58.727L77.274 59.917C77.274 59.917 74.5 61.933 73.636 61.74ZM80.486 54.066C80.254 54.466 79.702 54.278 79.702 54.278L78.829 53.936L77.814 53.486L77.36 52.022C77.36 52.022 78.252 52.045 78.867 52.057C79.4655 52.1265 80.0543 52.2633 80.622 52.465C80.6441 53.0023 80.5984 53.5402 80.486 54.066V54.066Z"></path><path id="Vector_10" fill="#FFE8BB" d="M95.321 89.269L98.604 97.729L101.275 99.006L103.942 99.446H105.394L106.794 100.308L108.999 100.796L110.557 99.85V98.397L111.845 97.649L112.238 96.308L110.393 90.716L109.212 88.907L106.388 88.599L95.321 89.269Z"></path><path id="Vector_11" fill="#FFE8BB" d="M127.173 94.182L122.801 99.155L120.328 99.835L117.988 99.802L116.75 99.579L115.424 100.1L113.47 100.178L112.287 99.133L112.509 97.895L111.525 97.06L111.396 95.857L113.824 91.372L115.108 90.012L117.563 90.181L125.174 92.915L127.173 94.182Z"></path><path id="Vector_12" fill="#FFE8BB" d="M123.062 98.858C123.062 98.858 139.091 119.511 144.831 121.506C150.571 123.501 157.749 118.129 157.749 118.129L150.806 106.272L147.689 107.14L127.173 94.182L123.062 98.858Z"></path><path id="Vector_13" fill="#FFE8BB" d="M123.641 114.724C123.641 114.724 122.214 130.588 121.713 131.64C121.212 132.692 118.897 137.185 118.506 139.181C118.115 141.177 116.656 148.27 118.744 162.92C118.744 162.92 123.171 163.229 124.044 163.137C124.044 163.137 122.487 153.446 123.83 148.074C125.173 142.702 126.758 135.786 130.168 132.406L130.705 127.687L129.505 115.472L123.641 114.724Z"></path><path id="Vector_14" fill="#313553" d="M147.939 107.89L150.806 106.272L149.444 103.947C149.405 103.881 149.392 103.803 149.406 103.728C149.42 103.652 149.461 103.585 149.521 103.537L154.196 99.828L154.901 96.128C154.907 96.0852 154.922 96.044 154.944 96.007C154.966 95.97 154.996 95.9379 155.031 95.9127C155.066 95.8875 155.106 95.8697 155.148 95.8604C155.19 95.8511 155.234 95.8504 155.277 95.8585C155.319 95.8666 155.359 95.8832 155.395 95.9074C155.431 95.9315 155.462 95.9627 155.485 95.999C155.509 96.0354 155.524 96.0761 155.532 96.1187C155.539 96.1613 155.537 96.205 155.527 96.247L154.961 99.223L157.9 96.89C157.933 96.8637 157.971 96.8442 158.011 96.8325C158.051 96.8208 158.094 96.8171 158.135 96.8218C158.177 96.8264 158.218 96.8392 158.254 96.8595C158.291 96.8798 158.324 96.9072 158.35 96.94C158.376 96.9728 158.396 97.0105 158.408 97.0509C158.419 97.0913 158.423 97.1335 158.418 97.1753C158.414 97.2171 158.401 97.2576 158.38 97.2944C158.36 97.3312 158.333 97.3637 158.3 97.39L150.138 103.865L158.683 118.455L170.104 109.779C171.769 107.285 174.353 101.7 174.341 97.141C174.329 92.751 164.398 87.052 161.815 85.641C161.628 85.5383 161.421 85.4774 161.208 85.4626C160.995 85.4478 160.782 85.4793 160.582 85.555C157.87 86.58 147.129 90.503 144.09 89.555C141.61 88.777 139.649 86.323 138.724 84.97C138.543 84.7073 138.283 84.5099 137.981 84.407C137.679 84.3042 137.353 84.3013 137.049 84.399C134.575 85.186 128.719 87.069 128.149 87.442C127.429 87.916 125.385 92.215 125.385 92.215L125.174 92.915L124.915 93.242C124.915 93.242 134.615 99.837 137.704 101.617C140.793 103.397 147.939 107.89 147.939 107.89Z"></path><path id="Vector_15" fill="#313553" d="M158.778 119.179C158.723 119.222 158.655 119.244 158.585 119.244C158.564 119.244 158.544 119.242 158.523 119.238C158.479 119.229 158.437 119.211 158.4 119.185C158.364 119.158 158.333 119.125 158.31 119.086L157.749 118.129C157.745 118.12 157.742 118.111 157.74 118.102C155.788 119.013 148.857 122.058 145.173 121.181C141.158 120.225 125.473 101.474 123.31 98.916L120.402 108.847C120.361 108.985 120.371 109.134 120.429 109.266C120.486 109.398 120.589 109.506 120.718 109.57L122.413 110.415L123.824 105.348C123.85 105.27 123.904 105.205 123.977 105.166C124.049 105.127 124.134 105.118 124.213 105.14C124.292 105.162 124.36 105.214 124.402 105.284C124.443 105.355 124.457 105.439 124.438 105.519L122.873 111.139C122.873 111.456 122.882 111.976 122.919 112.839C123.025 115.248 127.173 118.294 127.173 118.294C127.173 118.294 128.062 118.494 128.058 122.677C128.054 126.86 130.701 127.69 130.701 127.69C130.701 127.69 139.095 128.139 143.701 128.3C148.307 128.461 164.114 127.589 164.114 127.589C165.516 126.461 166.672 125.06 167.514 123.47C168.694 121.213 169.392 113.115 169.558 110.989L158.778 119.179Z"></path><path id="Vector_16" stroke="#313553" stroke-linecap="round" stroke-linejoin="round" stroke-width=".638" d="M69.4231 50.844C70.9448 50.6471 72.4897 50.7332 73.9801 51.098"></path><path id="Vector_17" fill="#313553" d="M72.594 50.98C72.594 50.98 72.108 52.165 72.426 52.746L73.268 53.064C73.5083 52.8138 73.6908 52.5141 73.8027 52.1858C73.9147 51.8576 73.9534 51.5088 73.916 51.164L72.594 50.98Z"></path><path id="Vector_18" stroke="#313553" stroke-linecap="round" stroke-linejoin="round" stroke-width=".638" d="M77.3601 52.018C78.4768 51.9673 79.5947 52.0874 80.6751 52.374"></path><path id="Vector_19" fill="#313553" d="M79.267 52.309C79.267 52.309 78.782 53.493 79.099 54.074L79.941 54.392C80.1813 54.1419 80.3639 53.8422 80.4759 53.5139C80.5878 53.1856 80.6264 52.8368 80.589 52.492L79.267 52.309Z"></path><path id="Vector_20" fill="#313553" d="M69.2109 47.842C70.0294 47.4443 70.9245 47.2289 71.8343 47.2106C72.7441 47.1923 73.6471 47.3716 74.4809 47.736C74.6939 47.849 75.0409 48.006 74.8429 48.629C74.6449 49.252 74.6029 49.295 73.7489 49.184C72.871 48.9191 71.9533 48.8111 71.0379 48.865C69.4229 49.232 68.2179 48.3 69.2109 47.842Z"></path><path id="Vector_21" stroke="#313553" stroke-linecap="round" stroke-linejoin="round" stroke-width=".638" d="M75.64 48.467L75.27 49.295"></path><path id="Vector_22" fill="#313553" d="M82.2481 48.88C81.8263 48.6158 81.3476 48.4562 80.8517 48.4145C80.3558 48.3727 79.8571 48.45 79.3971 48.64C79.1671 48.711 78.7971 48.803 78.8781 49.451C78.9591 50.099 78.9911 50.151 79.8511 50.198C80.7111 50.245 80.4141 49.778 81.2991 50.063C81.4778 50.1002 81.6539 50.1493 81.8261 50.21C82.1631 50.361 82.6001 49.107 82.2481 48.88Z"></path><path id="Vector_23" stroke="#313553" stroke-linecap="round" stroke-linejoin="round" stroke-width=".638" d="M78.124 49.146L78.335 50.028"></path><path id="Vector_24" stroke="#313553" stroke-linecap="round" stroke-linejoin="round" stroke-width=".638" d="M77.344 50C77.1428 50.5608 77.0685 51.1592 77.1264 51.7521C77.1843 52.3451 77.3731 52.9178 77.679 53.429C77.679 53.429 78.969 55.851 78.656 56.665C78.343 57.479 75.843 57.882 75.843 57.882"></path><path id="Vector_25" stroke="#313553" stroke-linecap="round" stroke-linejoin="round" stroke-width=".638" d="M75.8941 56.8C75.4575 56.7879 75.0216 56.8419 74.6011 56.96"></path><path id="Vector_26" stroke="#313553" stroke-linecap="round" stroke-linejoin="round" stroke-width=".638" d="M70.8 58.7281C70.8 58.7281 72.418 61.6041 73.957 61.8231C75.496 62.0421 77.3 59.885 77.3 59.885C77.3 59.885 71.229 58.885 70.76 58.572C70.6307 58.4998 70.5269 58.3894 70.4628 58.2558C70.3987 58.1222 70.3775 57.9721 70.402 57.826"></path><path id="Vector_27" stroke="#313553" stroke-linecap="round" stroke-linejoin="round" stroke-width=".638" d="M57.91 49.3C57.91 49.3 56.365 52.811 57.145 54.659C57.4992 55.6408 58.1742 56.4743 59.0609 57.0247C59.9476 57.5751 60.9941 57.8103 62.031 57.6921"></path><path id="Vector_28" stroke="#313553" stroke-linecap="round" stroke-linejoin="round" stroke-width=".638" d="M61.06 57.739C60.466 60.0817 59.7296 62.386 58.855 64.639"></path><path id="Vector_29" stroke="#313553" stroke-linecap="round" stroke-linejoin="round" stroke-width=".638" d="M60.4929 50.74C58.6209 50.476 57.2759 53.968 60.7929 55.811"></path><path id="Vector_30" stroke="#313553" stroke-linecap="round" stroke-linejoin="round" stroke-width=".638" d="M79.716 40.7629C79.716 40.7629 82.377 45.6089 82.248 49.1989C81.9451 50.4521 81.7094 51.7206 81.542 52.9989C81.459 54.1649 82.254 55.8069 80.197 59.8279C77.313 65.4679 77.161 66.3359 74.734 67.0279C72.307 67.7199 66.025 63.8139 64.842 61.9999"></path><path id="Vector_31" fill="#313553" d="M57.975 50C57.975 50 58.81 48.128 59.957 48.51C61.003 48.857 62.085 51.11 62.533 52.591C62.568 52.7088 62.64 52.8121 62.7383 52.8856C62.8367 52.9591 62.9562 52.9989 63.079 52.999H64.079C64.1672 52.9993 64.2543 52.9791 64.3333 52.94C64.4123 52.9009 64.4811 52.8439 64.5343 52.7735C64.5875 52.7032 64.6235 52.6214 64.6396 52.5347C64.6557 52.448 64.6514 52.3588 64.627 52.274C64.294 51.115 63.727 48.904 64.044 48.21C64.478 47.254 65.467 48.558 65.935 44.873C66.403 41.188 67.481 40.073 69.908 40.973C72.335 41.873 76.514 43.401 78.127 43.256C79.74 43.111 80.978 39.51 81.466 37.7C81.954 35.89 80.938 36.159 80.031 37.133C80.031 37.133 80.277 33.257 78.708 32.672C77.139 32.087 76.321 34.879 76.321 34.879C76.321 34.879 76.921 32.145 75.273 32.405C73.625 32.665 72.956 34.59 72.039 34.639C71.122 34.688 65.477 33.273 61.728 37.278C57.979 41.283 55.905 45.336 57.975 50Z"></path><path id="Vector_32" fill="#313553" d="M68.333 65.189L71.372 70.719L73.097 66.991L68.333 65.189Z"></path><path id="Vector_33" stroke="#313553" stroke-linecap="round" stroke-linejoin="round" stroke-width=".638" d="M73.1 66.991L70.179 74C70.179 74 72.201 76.986 72.427 78.989"></path><path id="Vector_34" stroke="#313553" stroke-linecap="round" stroke-linejoin="round" stroke-width=".638" d="M63.2749 54.278H64.6409"></path><path id="Vector_35" stroke="#313553" stroke-linecap="round" stroke-linejoin="round" stroke-width=".638" d="M63.626 55.501H64.397"></path><path id="Vector_36" fill="#313553" d="M60.236 59.86C60.236 59.86 52.073 58.295 48.083 60.467C45.1009 62.2336 42.3018 64.2924 39.7271 66.613C39.7271 66.613 41.506 67.713 46.586 64.069C51.666 60.425 59.1 65.189 59.1 65.189L59.9621 61.6L60.236 59.86Z"></path><path id="Vector_37" stroke="#313553" stroke-linecap="round" stroke-linejoin="round" stroke-width=".638" d="M40.5999 66.2559C40.5999 66.2559 37.0619 69.0559 37.0649 70.6229C37.0679 72.1899 37.8809 72.3539 37.6379 73.0279C37.3949 73.7019 35.9079 74.7199 37.0649 76.7489C37.0649 76.7489 46.7899 69.1749 50.8339 69.7489C54.8779 70.3229 67.3899 80.4999 72.8999 81.3769C72.8999 81.3769 72.3479 74.7589 67.1429 70.7189C61.9379 66.6789 58.8569 64.6429 58.8569 64.6429"></path><path id="Vector_38" stroke="#313553" stroke-linecap="round" stroke-linejoin="round" stroke-width=".638" d="M73.1179 63.087C73.5147 63.3559 73.991 63.4822 74.4689 63.445"></path><path id="Vector_39" stroke="#313553" stroke-linecap="round" stroke-linejoin="round" stroke-width=".638" d="M64.842 66.512C64.842 66.512 68.063 71.232 69.102 72.589"></path><path id="Vector_40" stroke="#313553" stroke-linecap="round" stroke-linejoin="round" stroke-width=".638" d="M37.0691 76.749C37.0691 76.749 35.5691 85.556 35.6351 89.463C35.7011 93.37 30.6781 102.463 45.7981 109.709C45.7981 109.709 59.1791 123.993 62.3831 125.561C65.5871 127.129 65.9911 128.067 72.3431 125.231C78.6951 122.395 87.9781 115.422 91.7161 107.989C91.7161 107.989 94.1921 107.289 94.7541 106.568C95.3161 105.847 95.1161 103.289 95.5891 102.699C96.0621 102.109 97.4061 103.712 97.2451 99.499L98.7171 98.018L94.6921 87.648C93.9313 88.4381 93.0408 89.0919 92.0591 89.581C90.3101 90.496 83.9481 92.163 84.0401 94.662C84.0401 94.662 79.3621 95.473 76.5401 98.534C73.7181 101.595 72.8001 100.059 71.7471 101.553C70.4799 103.735 69.3287 105.981 68.2981 108.284"></path><path id="Vector_41" stroke="#313553" stroke-linecap="round" stroke-linejoin="round" stroke-width=".638" d="M57.2891 81.948C58.3993 83.0534 59.3029 84.3484 59.9571 85.772C60.7701 88.566 61.9111 97.2 61.9111 97.2L66.0631 97.825L59.5631 105.577"></path><path id="Vector_42" stroke="#313553" stroke-linecap="round" stroke-linejoin="round" stroke-width=".638" d="M66.063 97.825C66.063 97.825 65.536 109.212 64.209 113.706C64.209 113.706 66.875 106.876 68.861 103.958"></path><path id="Vector_43" stroke="#313553" stroke-linecap="round" stroke-linejoin="round" stroke-width=".638" d="M65.8281 101.645C66.6703 101.061 67.5855 100.591 68.5501 100.245C69.0381 100.293 70.5341 103.667 70.5341 103.667"></path><path id="Vector_44" stroke="#313553" stroke-linecap="round" stroke-linejoin="round" stroke-width=".638" d="M72.8999 81.377C75.2026 78.8737 76.5023 75.6099 76.5509 72.209C76.3377 70.4376 75.957 68.6904 75.4139 66.991"></path><path id="Vector_45" stroke="#313553" stroke-linecap="round" stroke-linejoin="round" stroke-width=".638" d="M40.8611 70.375C40.8611 70.375 49.6931 65.013 53.4001 65.5C57.1071 65.987 46.5001 70.715 46.5001 70.715"></path><path id="Vector_46" stroke="#313553" stroke-linecap="round" stroke-linejoin="round" stroke-width=".638" d="M61.342 93.212C61.342 93.212 62.368 88.077 63.156 88.275C63.944 88.473 62.942 94.818 62.942 94.818"></path><path id="Vector_47" stroke="#313553" stroke-linecap="round" stroke-linejoin="round" stroke-width=".638" d="M67.2891 126.852C67.2891 126.852 75.3361 121.224 76.5531 118.569"></path><path id="Vector_48" stroke="#313553" stroke-linecap="round" stroke-linejoin="round" stroke-width=".638" d="M97.2451 99.5C97.2451 99.5 93.7711 94.458 93.6391 95.646C93.5071 96.834 94.6131 99.5 94.6131 99.5"></path><path id="Vector_49" stroke="#313553" stroke-linecap="round" stroke-linejoin="round" stroke-width=".638" d="M75.894 68.613C76.7284 69.9363 78.0246 70.9024 79.531 71.324C81.854 71.824 88.553 71.785 87.387 84.54L87.522 91.454"></path><path id="Vector_50" stroke="#313553" stroke-linecap="round" stroke-linejoin="round" stroke-width=".638" d="M36.634 102.4C36.634 102.4 36.743 120.272 35.325 128.657C33.907 137.042 30.232 149.657 36.775 150.957C43.318 152.257 53.893 151.736 56.125 151.426"></path><path id="Vector_51" stroke="#313553" stroke-linecap="round" stroke-linejoin="round" stroke-width=".638" d="M86.5509 115.472C86.5509 115.472 86.9089 132.199 89.5939 140.972C92.2789 149.745 89.4119 149.744 82.2529 149.923"></path><path id="Vector_52" stroke="#313553" stroke-linecap="round" stroke-linejoin="round" stroke-width=".638" d="M90.5869 110.378C90.5869 110.378 94.8309 130.159 95.8589 132.378C96.8869 134.597 98.0139 140.653 96.5159 143.892C96.5159 143.892 100.724 147.247 97.2709 154.701C97.6231 156.617 97.8429 158.555 97.9289 160.501"></path><path id="Vector_53" fill="#313553" d="M68.049 86.768C67.8757 86.7501 67.7086 86.6932 67.5604 86.6013C67.4122 86.5095 67.2868 86.3853 67.1936 86.238C67.1004 86.0907 67.0419 85.9242 67.0224 85.7509C67.0029 85.5777 67.0229 85.4023 67.081 85.238C67.4896 84.1516 67.7737 83.0224 67.928 81.872C68.0949 80.4772 68.0243 79.0642 67.719 77.693C67.6969 77.6129 67.692 77.529 67.7047 77.4469C67.7174 77.3648 67.7474 77.2863 67.7926 77.2167C67.8379 77.147 67.8975 77.0877 67.9674 77.0428C68.0372 76.9979 68.1159 76.9683 68.198 76.956V76.956C68.3047 76.9381 68.4142 76.9503 68.5143 76.9911C68.6144 77.0319 68.7012 77.0997 68.765 77.187C69.7002 78.6521 70.1524 80.3735 70.058 82.109C70.0841 83.4962 69.7913 84.8709 69.202 86.127C69.0983 86.3388 68.9322 86.5137 68.7261 86.6283C68.5199 86.7429 68.2837 86.7916 68.049 86.768V86.768Z"></path><path id="Vector_54" stroke="#313553" stroke-linecap="round" stroke-linejoin="round" stroke-width=".638" d="M67.9281 86.132L67.1211 88.491"></path><path id="Vector_55" fill="#313553" d="M75.8449 85.49C75.6715 85.5071 75.4964 85.4846 75.3329 85.4243C75.1694 85.3639 75.0218 85.2672 74.9011 85.1414C74.7805 85.0156 74.6899 84.8641 74.6364 84.6982C74.5828 84.5324 74.5676 84.3565 74.5919 84.184C74.7762 83.0381 74.8298 81.875 74.7519 80.717C74.6374 79.3168 74.2868 77.9461 73.7149 76.663C73.6774 76.5889 73.6559 76.5077 73.652 76.4247C73.6481 76.3418 73.6618 76.2589 73.6922 76.1816C73.7226 76.1044 73.7691 76.0344 73.8285 75.9764C73.8879 75.9183 73.959 75.8736 74.0369 75.845V75.845C74.1378 75.8072 74.2471 75.7978 74.3529 75.818C74.4587 75.8381 74.557 75.8868 74.6369 75.959C75.8452 77.2083 76.6308 78.8053 76.8829 80.525C77.1847 81.8792 77.1713 83.2847 76.8439 84.633C76.7847 84.8608 76.6571 85.0651 76.4783 85.2183C76.2996 85.3715 76.0782 85.4663 75.8439 85.49H75.8449Z"></path><path id="Vector_56" stroke="#313553" stroke-linecap="round" stroke-linejoin="round" stroke-width=".638" d="M75.6001 84.892L75.2781 87.364"></path><path id="Vector_57" stroke="#313553" stroke-linecap="round" stroke-linejoin="round" stroke-width=".638" d="M36.7749 150.955C36.7706 152.61 37.2229 154.234 38.0819 155.648C38.0819 155.648 80.4999 157.37 88.8469 153.66C89.2321 152.053 89.4526 150.411 89.5049 148.76"></path><path id="Vector_58" fill="#313553" d="M38.0819 155.648L37.5249 163.013C37.5249 163.013 64.6979 164.659 73.6499 163.491C79.6433 162.766 85.6758 162.411 91.7129 162.429L88.8469 153.66C76.9829 156.108 64.1309 156.349 48.9679 156.047C44.7209 155.963 39.8799 155.864 38.0819 155.648Z"></path><path id="Vector_59" fill="#313553" d="M51.3889 151.729L37.3719 154.2L36.7739 151.224L43.0159 151.706L51.3889 151.729Z"></path><path id="Vector_60" stroke="#313553" stroke-linecap="round" stroke-linejoin="round" stroke-width=".638" d="M54.1221 125.31C54.1221 125.31 58.5221 130.058 58.9071 135.439C59.2921 140.82 56.6311 143.425 56.6311 143.425"></path><path id="Vector_61" stroke="#313553" stroke-linecap="round" stroke-linejoin="round" stroke-width=".638" d="M82.8121 125.816C82.8121 125.816 81.5201 126.852 81.2861 132.889C81.0031 140.208 84.8601 142.089 84.8601 142.089"></path><path id="Vector_62" fill="#313553" d="M36.636 113.052C37.7121 113.684 38.8418 114.219 40.012 114.652C41.585 115.182 52.219 116.834 54.489 118.484L46.256 110.2C46.256 110.2 38.022 104.413 36.636 103.035V113.052Z"></path><path id="Vector_63" stroke="#313553" stroke-linecap="round" stroke-linejoin="round" stroke-width=".638" d="M65.5381 72.589C65.5381 72.589 71.8121 78.362 72.8981 81.377"></path><path id="Vector_64" stroke="#313553" stroke-linecap="round" stroke-linejoin="round" stroke-width=".638" d="M95.321 89.269C95.321 89.269 104.442 88.909 107.133 88.638C109.824 88.367 109.887 89.501 110.885 91.981C111.883 94.461 112.315 95.991 112.227 96.866C112.139 97.741 111.043 98.351 110.273 98.455C109.892 98.7607 109.442 98.9704 108.963 99.0662C108.483 99.1621 107.988 99.1415 107.518 99.006C107.518 99.006 103.718 98.47 103.052 97.825C102.386 97.18 102.704 95.845 103.342 95.725C103.98 95.605 105.25 96.206 105.285 97.001"></path><path id="Vector_65" stroke="#313553" stroke-linecap="round" stroke-linejoin="round" stroke-width=".638" d="M106.26 90.716C106.725 90.723 107.176 90.8745 107.551 91.1493C107.926 91.4242 108.206 91.8089 108.352 92.25C108.729 93.75 108.66 98.216 107.518 99.006"></path><path id="Vector_66" stroke="#313553" stroke-linecap="round" stroke-linejoin="round" stroke-width=".638" d="M110.031 98.633C110.031 98.633 111.073 98.384 110.576 96.033C110.023 93.41 110.076 91.098 108.557 90.195"></path><path id="Vector_67" stroke="#313553" stroke-linecap="round" stroke-linejoin="round" stroke-width=".638" d="M106.388 95.9C106.388 95.9 104.608 96.482 103.942 95.471"></path><path id="Vector_68" stroke="#313553" stroke-linecap="round" stroke-linejoin="round" stroke-width=".638" d="M104.739 94.244C104.151 94.9415 103.422 95.5059 102.6 95.9C101.621 96.2 99.286 96.636 98.719 95.9"></path><path id="Vector_69" stroke="#313553" stroke-linecap="round" stroke-linejoin="round" stroke-width=".638" d="M98.6001 97.536C98.6001 97.536 101.411 99.35 102.79 99.5C104.169 99.65 104.529 98.894 106.104 99.989C107.679 101.084 109.53 101.044 110.456 99.989C110.71 99.699 111 98.828 110.269 98.455"></path><path id="Vector_70" stroke="#313553" stroke-linecap="round" stroke-linejoin="round" stroke-width=".638" d="M111.91 97.55C112.194 97.8077 112.534 97.9954 112.904 98.098C113.197 98.3932 113.556 98.6139 113.952 98.7414C114.348 98.869 114.769 98.8997 115.179 98.831C115.179 98.831 118.444 98.748 119.071 98.267C119.698 97.786 119.557 96.627 119.029 96.467C118.501 96.307 117.369 96.689 117.262 97.358"></path><path id="Vector_71" stroke="#313553" stroke-linecap="round" stroke-linejoin="round" stroke-width=".638" d="M125.354 93.046C125.354 93.046 118.762 90.593 116.513 90.103C114.264 89.613 114.101 90.564 113.013 92.565C112.554 93.41 112.198 94.121 111.938 94.717"></path><path id="Vector_72" stroke="#313553" stroke-linecap="round" stroke-linejoin="round" stroke-width=".638" d="M117.049 91.944C116.655 91.905 116.26 91.9893 115.916 92.1853C115.573 92.3813 115.299 92.6793 115.132 93.038C114.667 94.267 114.291 98.053 115.179 98.831"></path><path id="Vector_73" stroke="#313553" stroke-linecap="round" stroke-linejoin="round" stroke-width=".638" d="M113.091 98.271C113.091 98.271 112.235 97.96 112.883 96.017C113.606 93.853 113.783 91.893 115.158 91.277"></path><path id="Vector_74" stroke="#313553" stroke-linecap="round" stroke-linejoin="round" stroke-width=".638" d="M116.437 96.317C116.437 96.317 117.885 96.981 118.547 96.192"></path><path id="Vector_75" stroke="#313553" stroke-linecap="round" stroke-linejoin="round" stroke-width=".638" d="M117.992 95.075C118.421 95.7229 118.983 96.2718 119.641 96.685C120.441 97.039 122.372 97.629 122.923 97.062"></path><path id="Vector_76" stroke="#313553" stroke-linecap="round" stroke-linejoin="round" stroke-width=".638" d="M112.9 98.1C112.245 98.344 112.406 99.108 112.593 99.379C113.273 100.361 114.834 100.579 116.272 99.802C117.71 99.025 118.898 100.022 120.079 100.029C121.139 99.8785 122.158 99.5112 123.07 98.95"></path><path id="Vector_77" stroke="#313553" stroke-linecap="round" stroke-linejoin="round" stroke-width=".638" d="M57.2891 47.197H13.9761V115.472H36.3641"></path><path id="Vector_78" stroke="#313553" stroke-linecap="round" stroke-linejoin="round" stroke-width=".638" d="M106.388 100.308V115.472H91.9709"></path><path id="Vector_79" stroke="#313553" stroke-linecap="round" stroke-linejoin="round" stroke-width=".638" d="M82.2051 47.197H106.388V88.599"></path><path id="Vector_80" stroke="#313553" stroke-linecap="round" stroke-linejoin="round" stroke-width=".638" d="M15.4541 47.2C16.3827 51.7157 16.7009 56.3356 16.4001 60.936H48.0831"></path><path id="Vector_81" stroke="#313553" stroke-linecap="round" stroke-linejoin="round" stroke-width=".638" d="M103.558 47.2C103.558 47.2 103.907 54.2879 104.527 60.9389H79.856"></path><path id="Vector_82" stroke="#313553" stroke-linecap="round" stroke-linejoin="round" stroke-width=".638" d="M21.474 60.936C21.474 60.936 20.545 74.918 20.796 78.814C21.047 82.71 21.891 88.847 21.761 93.155C21.6784 95.7132 21.8429 98.2734 22.252 100.8"></path><path id="Vector_83" stroke="#313553" stroke-linecap="round" stroke-linejoin="round" stroke-width=".638" d="M22.1489 103.854C22.9199 103.854 23.5449 103.229 23.5449 102.458C23.5449 101.687 22.9199 101.062 22.1489 101.062C21.3779 101.062 20.7529 101.687 20.7529 102.458C20.7529 103.229 21.3779 103.854 22.1489 103.854Z"></path><path id="Vector_84" stroke="#313553" stroke-linecap="round" stroke-linejoin="round" stroke-width=".638" d="M18.1101 49.587C18.1101 49.587 42.7361 50.187 44.5671 50.222C46.3981 50.257 55.4771 50.222 55.4771 50.222"></path><path id="Vector_85" stroke="#313553" stroke-linecap="round" stroke-linejoin="round" stroke-width=".638" d="M16.3931 53.9359C19.6701 53.5332 22.9667 53.3102 26.2681 53.2679C29.1621 53.4179 45.0301 53.6359 48.0831 53.5929"></path><path id="Vector_86" stroke="#313553" stroke-linecap="round" stroke-linejoin="round" stroke-width=".638" d="M20.7529 57.739C20.7529 57.739 49.2309 57.826 52.2089 57.826"></path><path id="Vector_87" stroke="#313553" stroke-linecap="round" stroke-linejoin="round" stroke-width=".638" d="M83.459 51.9609C83.459 51.9609 99.768 52.1959 102.009 52.0149"></path><path id="Vector_88" stroke="#313553" stroke-linecap="round" stroke-linejoin="round" stroke-width=".638" d="M104.251 57.739C104.251 57.739 87.307 58.046 85.667 57.739"></path><path id="Vector_89" stroke="#313553" stroke-linecap="round" stroke-linejoin="round" stroke-width=".638" d="M103.024 40.227C103.024 40.227 127.915 40.535 135.275 40.227C142.635 39.919 146.355 39.908 146.355 39.908"></path><path id="Vector_90" stroke="#313553" stroke-linecap="round" stroke-linejoin="round" stroke-width=".638" d="M113.412 35.7C113.412 35.7 142.644 35.9 146.355 35.921C150.066 35.942 154.217 36.021 154.217 36.021"></path><path id="Vector_91" stroke="#313553" stroke-linecap="round" stroke-linejoin="round" stroke-width=".638" d="M16.3931 121.506H32.2381"></path><path id="Vector_92" stroke="#313553" stroke-linecap="round" stroke-linejoin="round" stroke-width=".638" d="M95.1421 121.506H120.552"></path><path id="Vector_93" stroke="#313553" stroke-linecap="round" stroke-linejoin="round" stroke-width=".638" d="M5.57202 145.993H16.393"></path><path id="Vector_94" stroke="#313553" stroke-linecap="round" stroke-linejoin="round" stroke-width=".638" d="M21.5129 145.993H29.1449"></path><path id="Vector_95" stroke="#313553" stroke-linecap="round" stroke-linejoin="round" stroke-width=".638" d="M10.9821 139.635H24.3151"></path><path id="Vector_96" stroke="#313553" stroke-linecap="round" stroke-linejoin="round" stroke-width=".638" d="M176.143 145.993H182.819"></path><path id="Vector_97" stroke="#313553" stroke-linecap="round" stroke-linejoin="round" stroke-width=".638" d="M187.94 145.993H195.572"></path><path id="Vector_98" stroke="#313553" stroke-linecap="round" stroke-linejoin="round" stroke-width=".638" d="M173.902 139.635H190.742"></path><path id="Vector_99" stroke="#313553" stroke-linecap="round" stroke-linejoin="round" stroke-width=".638" d="M97.2 139.181C97.2 139.181 101.582 133.981 107.914 133.981C113.573 133.981 118.628 137.664 118.628 137.664"></path><path id="Vector_100" stroke="#313553" stroke-linecap="round" stroke-linejoin="round" stroke-width=".638" d="M96.8831 134.718C99.9858 132.115 103.869 130.623 107.916 130.478C115.698 130.478 119.905 134.478 119.905 134.478"></path><path id="Vector_101" stroke="#313553" stroke-linecap="round" stroke-linejoin="round" stroke-width=".638" d="M193.215 126.353C192.324 126.253 186.981 126.453 184.131 126.353C181.281 126.253 174.331 126.353 174.331 126.353L172.016 114.953C172.016 114.953 176.653 114.621 179.305 114.553C183.362 114.488 187.419 114.655 191.457 115.053L188.729 126.153"></path><path id="Vector_102" stroke="#313553" stroke-linecap="round" stroke-linejoin="round" stroke-width=".638" d="M181.979 114.4C181.979 114.4 185.573 99.5 185.065 89.465C184.818 84.596 184.321 77.997 186.03 77.996C188.883 77.996 188.991 85.347 188.877 91.353C188.694 100.962 184.155 114.541 184.155 114.541"></path><path id="Vector_103" stroke="#313553" stroke-linecap="round" stroke-linejoin="round" stroke-width=".638" d="M185.431 114.536C185.431 114.536 189.961 104.86 190.715 99.158C191.756 91.284 195.572 91.802 193.447 100.79C191.316 109.805 187.621 114.536 187.621 114.536"></path><path id="Vector_104" stroke="#313553" stroke-linecap="round" stroke-linejoin="round" stroke-width=".638" d="M178.989 114.549C178.989 114.549 177.589 103.302 177.042 96.638C176.495 89.974 177.325 86.91 177.1 80.906C176.893 75.413 180.114 75.253 180.5 83.811C180.886 92.369 181.046 93.089 181.213 97.298C181.38 101.507 180.88 114.549 180.88 114.549"></path><path id="Vector_105" stroke="#313553" stroke-linecap="round" stroke-linejoin="round" stroke-width=".638" d="M174.74 114.735C173.796 110.958 172.315 104.917 171.426 100.711C170.043 94.17 170.477 91.025 169.494 85.097C168.594 79.674 171.769 79.109 173.229 87.55C174.689 95.991 174.944 96.684 175.642 100.838C176.111 103.638 176.789 110.457 177.181 114.605"></path><path id="Vector_106" stroke="#313553" stroke-linecap="round" stroke-linejoin="round" stroke-width=".638" d="M130.7 127.687C130.319 129.23 130.138 130.816 130.163 132.406C130.163 132.406 123.963 141.106 123.502 151.461C123.041 161.816 124.039 163.137 124.039 163.137"></path><path id="Vector_107" stroke="#313553" stroke-linecap="round" stroke-linejoin="round" stroke-width=".638" d="M132.416 132.966C132.416 132.966 129.239 138.357 127.68 140.288"></path><path id="Vector_108" stroke="#313553" stroke-linecap="round" stroke-linejoin="round" stroke-width=".638" d="M142.025 128.233C142.045 129.701 141.89 131.166 141.564 132.598C141.019 136.189 140.812 139.824 140.945 143.454"></path><path id="Vector_109" stroke="#313553" stroke-linecap="round" stroke-linejoin="round" stroke-width=".638" d="M137.115 153.72C137.115 153.72 145.276 158.346 146.376 158.983L147.653 163.137"></path><path id="Vector_110" stroke="#313553" stroke-linecap="round" stroke-linejoin="round" stroke-width=".638" d="M140.64 157.826C142.525 158.334 144.441 158.721 146.376 158.983"></path><path id="Vector_111" stroke="#313553" stroke-linecap="round" stroke-linejoin="round" stroke-width=".638" d="M164.118 127.586C164.223 128.784 164.223 129.988 164.118 131.186C164.118 131.186 170.656 137.363 173.902 144.899C177.148 152.435 180.475 162.187 180.475 162.187"></path><path id="Vector_112" stroke="#313553" stroke-linecap="round" stroke-linejoin="round" stroke-width=".638" d="M156.089 133.994C156.089 133.994 162.705 140.161 166.15 142.385"></path><path id="Vector_113" stroke="#313553" stroke-linecap="round" stroke-linejoin="round" stroke-width=".638" d="M145.497 134.718C145.982 134.718 146.376 133.662 146.376 132.359C146.376 131.056 145.982 130 145.497 130C145.011 130 144.618 131.056 144.618 132.359C144.618 133.662 145.011 134.718 145.497 134.718Z"></path><path id="Vector_114" stroke="#313553" stroke-linecap="round" stroke-linejoin="round" stroke-width=".638" d="M123.641 113.041C123.641 113.041 122.181 127.397 121.962 130.478C121.743 133.559 118.63 133.842 117.685 144.664C117.162 150.769 117.518 156.917 118.744 162.92"></path><path id="Vector_115" stroke="#313553" stroke-linecap="round" stroke-linejoin="round" stroke-width=".638" d="M23.807 125.19L9.979 131.412"></path><path id="Vector_116" stroke="#313553" stroke-linecap="round" stroke-linejoin="round" stroke-width=".638" d="M24.5331 126.804L10.7061 133.026"></path><path id="Vector_117" stroke="#313553" stroke-linecap="round" stroke-linejoin="round" stroke-width=".638" d="M25.4551 124.448L25.6361 124.367C25.8501 124.271 26.0936 124.264 26.313 124.347C26.5324 124.43 26.7098 124.597 26.8061 124.811C26.9023 125.025 26.9096 125.269 26.8263 125.488C26.7431 125.707 26.5761 125.885 26.3621 125.981L25.9561 126.164"></path><path id="Vector_118" stroke="#313553" stroke-linecap="round" stroke-linejoin="round" stroke-width=".638" d="M8.68202 131.996L6.84302 133.794L9.40802 133.61"></path><path id="Vector_119" stroke="#313553" stroke-linecap="round" stroke-linejoin="round" stroke-width=".638" d="M20.1701 129.557C18.6706 131.67 17.0397 133.687 15.2871 135.595C13.9051 136.802 28.0661 136.195 28.0661 136.195L34.2501 126.848L27.3921 126.648"></path><path id="Vector_120" stroke="#313553" stroke-linecap="round" stroke-linejoin="round" stroke-width=".638" d="M18.2 133.794L20 133.186C20.1461 133.137 20.302 133.123 20.4544 133.147C20.6068 133.171 20.7511 133.232 20.875 133.324V133.324C21.0546 133.457 21.2751 133.523 21.4981 133.51C21.7212 133.497 21.9327 133.406 22.096 133.254L22.212 133.146C22.3687 133 22.5698 132.911 22.7832 132.893C22.9966 132.875 23.2099 132.929 23.389 133.046L23.889 133.374C24.0714 133.494 24.2894 133.547 24.5066 133.526C24.7238 133.505 24.9272 133.41 25.083 133.257L25.127 133.214C25.291 133.053 25.5074 132.957 25.7367 132.942C25.9661 132.928 26.193 132.996 26.3759 133.135L27.2959 133.835"></path><path id="Vector_121" stroke="#313553" stroke-linecap="round" stroke-linejoin="round" stroke-width=".638" d="M21.5481 130.872L23.0351 130.172C23.1642 130.111 23.31 130.096 23.449 130.128C23.5879 130.16 23.712 130.239 23.8011 130.35V130.35C23.8544 130.417 23.9208 130.473 23.9962 130.513C24.0716 130.554 24.1545 130.579 24.2399 130.587C24.3252 130.594 24.4112 130.585 24.4927 130.558C24.5742 130.532 24.6495 130.489 24.7141 130.433L25.5141 129.733C25.5826 129.673 25.663 129.629 25.75 129.603C25.837 129.577 25.9285 129.571 26.0184 129.583C26.1082 129.595 26.1944 129.627 26.2711 129.675C26.3479 129.724 26.4133 129.788 26.4631 129.864L27.1361 130.892C27.2265 131.03 27.3667 131.127 27.5273 131.163C27.6878 131.2 27.8562 131.172 27.9971 131.087L29.2441 130.33"></path><path id="Vector_122" stroke="#313553" stroke-linecap="round" stroke-linejoin="round" stroke-width=".638" d="M147.627 107.14C148.387 108.006 149.086 108.924 149.719 109.887"></path><path id="Vector_123" stroke="#313553" stroke-linecap="round" stroke-linejoin="round" stroke-width=".638" d="M139.131 85.543C139.131 85.543 143.979 84.986 144.915 84.65"></path><path id="Vector_124" stroke="#313553" stroke-linecap="round" stroke-linejoin="round" stroke-width=".638" d="M144.319 81.472L145.344 85.701"></path><path id="Vector_125" stroke="#313553" stroke-linecap="round" stroke-linejoin="round" stroke-width=".638" d="M162.489 62.6379C162.491 63.492 162.356 64.3408 162.089 65.1519C161.662 66.3319 158.578 68.6959 157.518 68.7999C156.987 68.8509 156.524 69.8739 156.007 70.8999C155.592 71.866 154.82 72.6347 153.852 73.0459C150.408 73.7659 151.167 75.1459 152.765 74.8849C154.363 74.6239 156.347 73.4849 157.665 70.3139C157.665 70.3139 160.504 68.9219 161.107 70.8249C161.71 72.7279 160.2 77.5639 155.389 76.9699L156.364 85.0019L159.649 86.2329"></path><path id="Vector_126" stroke="#313553" stroke-linecap="round" stroke-linejoin="round" stroke-width=".638" d="M162.091 65.152C162.289 66.0288 162.276 66.9399 162.055 67.811C161.652 68.7089 160.948 69.4381 160.065 69.873"></path><path id="Vector_127" stroke="#313553" stroke-linecap="round" stroke-linejoin="round" stroke-width=".638" d="M162.055 67.811C162.055 67.811 162.889 68.77 161.108 70.829"></path><path id="Vector_128" stroke="#313553" stroke-linecap="round" stroke-linejoin="round" stroke-width=".638" d="M155.6 71.091C154.014 70.144 154.281 67.572 154.506 66.42C154.731 65.268 155.676 63.33 153.273 62.701C150.87 62.072 151.373 59.001 150.21 58.087C149.047 57.173 147.34 58.727 145.11 58.404C142.88 58.081 143.2 56.225 141.776 57.041C141.036 57.4964 140.221 57.8195 139.37 57.996C139.37 57.996 143.387 49.611 153.109 53.466"></path><path id="Vector_129" stroke="#313553" stroke-linecap="round" stroke-linejoin="round" stroke-width=".638" d="M143.5 55.539C146.06 52.806 149.685 52.729 153.784 53.603"></path><path id="Vector_130" stroke="#313553" stroke-linecap="round" stroke-linejoin="round" stroke-width=".638" d="M146.661 56.435C146.661 56.435 152.735 52.752 154.639 53.788C155.05 54.0964 155.424 54.4522 155.753 54.848C155.753 54.848 156.824 54.304 157.301 54.948"></path><path id="Vector_131" stroke="#313553" stroke-linecap="round" stroke-linejoin="round" stroke-width=".638" d="M158.683 55.738C158.683 55.738 156.652 55.221 156.663 56.848C156.692 57.2579 156.855 57.6468 157.128 57.9542C157.401 58.2616 157.767 58.4703 158.171 58.548C157.99 58.5794 157.818 58.652 157.67 58.7602C157.521 58.8684 157.399 59.0093 157.314 59.1721C157.228 59.3348 157.181 59.515 157.176 59.6988C157.172 59.8825 157.209 60.065 157.286 60.232C157.837 61.568 160.139 60.713 160.139 60.713C160.139 60.713 161.16 63.354 164.698 62.659C165.009 62.6385 165.312 62.5541 165.589 62.4109C165.865 62.2678 166.109 62.0691 166.306 61.8273C166.502 61.5855 166.646 61.3057 166.729 61.0056C166.812 60.7054 166.832 60.3913 166.789 60.083C166.745 59.7746 166.638 59.4787 166.474 59.2136C166.31 58.9486 166.094 58.7202 165.838 58.5428C165.582 58.3654 165.292 58.2427 164.986 58.1825C164.681 58.1223 164.366 58.1259 164.062 58.193"></path><path id="Vector_132" stroke="#313553" stroke-linecap="round" stroke-linejoin="round" stroke-width=".638" d="M157.81 55.669C157.691 55.2306 157.67 54.7713 157.75 54.3241C157.829 53.8768 158.006 53.4526 158.268 53.0817C158.53 52.7109 158.871 52.4026 159.267 52.1789C159.662 51.9553 160.102 51.8218 160.555 51.788C163.036 51.33 165.1 52.858 164.463 55.309"></path><path id="Vector_133" stroke="#313553" stroke-linecap="round" stroke-linejoin="round" stroke-width=".638" d="M164.571 54.213C164.571 54.213 166.971 54.263 167.134 56.435C167.297 58.607 166.28 58.913 166.28 58.913"></path><path id="Vector_134" stroke="#313553" stroke-linecap="round" stroke-linejoin="round" stroke-width=".638" d="M150.206 58.0869C150.877 56.9353 151.952 56.0736 153.222 55.6689"></path><path id="Vector_135" stroke="#313553" stroke-linecap="round" stroke-linejoin="round" stroke-width=".638" d="M154.491 69.4899C154.491 69.4899 155.601 67.1899 157.17 67.0699C158.739 66.9499 159.876 64.8489 160.76 63.7939"></path><path id="Vector_136" stroke="#313553" stroke-linecap="round" stroke-linejoin="round" stroke-width=".638" d="M156.663 57.476C156.663 57.476 153.993 58.49 153.222 59.615"></path><path id="Vector_137" stroke="#313553" stroke-linecap="round" stroke-linejoin="round" stroke-width=".638" d="M154.8 65.152C155.883 64.594 156.868 63.8639 157.717 62.99C158.941 61.659 159.369 61.772 159.369 61.772"></path><path id="Vector_138" stroke="#313553" stroke-linecap="round" stroke-linejoin="round" stroke-width=".638" d="M157.379 71.3C157.379 71.3 159.2 70.973 159.363 72.178C159.352 72.776 159.168 73.358 158.835 73.8545C158.501 74.3511 158.032 74.7411 157.483 74.978"></path><path id="Vector_139" stroke="#313553" stroke-linecap="round" stroke-linejoin="round" stroke-width=".638" d="M139.362 58C139.362 58 136.476 61.435 136.73 64.848C136.73 64.848 137.04 67.262 137.094 67.941C137.148 68.62 135.688 70.641 136.139 72.872C136.64 74.7651 137.34 76.6 138.227 78.346C139.362 81.105 140.069 81.866 143.055 81.546C144.652 81.4177 146.217 81.03 147.689 80.398"></path><path id="Vector_140" fill="#313553" d="M139.663 57.4611C139.663 57.4611 138.182 57.9301 137.789 56.7471C137.679 56.3961 137.659 56.0232 137.731 55.6625C137.802 55.3017 137.963 54.9646 138.198 54.6821C138.198 54.6821 136.763 54.1611 137.681 52.1581C138.599 50.1551 140.722 51.4371 140.722 51.4371C140.722 51.4371 140.888 49.5951 142.422 49.3641C143.956 49.1331 144.922 51.0361 144.922 51.0361C144.922 51.0361 146.439 49.0461 147.682 50.4361C148.925 51.8261 148.471 52.4531 148.471 52.4531C146.296 52.6149 144.176 53.2139 142.238 54.2141C141.089 55.0304 140.196 56.1565 139.663 57.4611V57.4611Z"></path><path id="Vector_141" fill="#313553" d="M156.234 76.147C156.706 76.147 157.089 75.7642 157.089 75.292C157.089 74.8198 156.706 74.437 156.234 74.437C155.762 74.437 155.379 74.8198 155.379 75.292C155.379 75.7642 155.762 76.147 156.234 76.147Z"></path><path id="Vector_142" stroke="#313553" stroke-linecap="round" stroke-linejoin="round" stroke-width=".638" d="M156.792 76.9899C157.29 77.2927 157.822 77.535 158.378 77.7119C158.691 77.7948 158.999 77.895 159.301 78.0119C159.418 78.057 159.516 78.1417 159.577 78.2513C159.639 78.3608 159.66 78.4884 159.637 78.6119V78.6119C159.611 78.752 159.531 78.8762 159.414 78.9574C159.297 79.0385 159.153 79.07 159.013 79.0449C157.671 78.6212 156.435 77.9139 155.39 76.9709"></path><path id="Vector_143" fill="#313553" d="M156.762 78.015C156.879 78.9396 157.344 79.785 158.062 80.379C158.434 80.665 158.73 80.873 158.962 81.022C159.141 81.1367 159.27 81.315 159.323 81.521C159.375 81.7271 159.348 81.9454 159.246 82.132V82.132C159.188 82.2385 159.108 82.3312 159.011 82.4038C158.915 82.4764 158.803 82.5272 158.685 82.5527C158.566 82.5781 158.444 82.5777 158.326 82.5513C158.207 82.525 158.096 82.4733 158 82.4C157.8 82.25 157.591 82.079 157.384 81.9C156.52 80.9986 155.905 79.8874 155.601 78.676V77.287L156.762 78.015Z"></path><path id="Vector_144" stroke="#313553" stroke-linecap="round" stroke-linejoin="round" stroke-width=".638" d="M136.73 64.844C136.73 64.844 137.394 63.863 138.161 64.024C138.844 64.2764 139.471 64.6595 140.007 65.152"></path><path id="Vector_145" stroke="#313553" stroke-linecap="round" stroke-linejoin="round" stroke-width=".638" d="M144.05 65.326C145.009 64.6658 146.118 64.2576 147.276 64.139C147.777 64.2196 148.256 64.4025 148.683 64.6762C149.11 64.9499 149.476 65.3087 149.758 65.73"></path><path id="Vector_146" stroke="#313553" stroke-linecap="round" stroke-linejoin="round" stroke-width=".638" d="M137.675 66.687C138.82 66.7161 139.907 67.1963 140.699 68.023"></path><path id="Vector_147" fill="#313553" d="M138.961 67.7241C138.89 68.3761 138.515 68.8691 138.123 68.8241C137.731 68.7791 137.472 68.2241 137.544 67.5681C137.616 66.9121 137.99 66.7421 138.381 66.7851C138.772 66.8281 139.032 67.0731 138.961 67.7241Z"></path><path id="Vector_148" stroke="#313553" stroke-linecap="round" stroke-linejoin="round" stroke-width=".638" d="M145.322 67.052C145.322 67.052 147.917 67.409 149.075 68.752"></path><path id="Vector_149" fill="#313553" d="M146.608 68.089C146.537 68.74 146.162 69.2331 145.771 69.1891C145.38 69.1451 145.12 68.5841 145.191 67.9331C145.262 67.2821 145.637 67.1071 146.028 67.1501C146.419 67.1931 146.679 67.437 146.608 68.089Z"></path><path id="Vector_150" stroke="#313553" stroke-linecap="round" stroke-linejoin="round" stroke-width=".638" d="M141.834 65.925C141.834 65.925 142.319 66.989 142.099 67.443C141.879 67.897 140.352 70.115 140.007 70.829C139.662 71.543 141.082 72.719 141.082 72.719"></path><path id="Vector_151" stroke="#313553" stroke-linecap="round" stroke-linejoin="round" stroke-width=".638" d="M142.189 71.976C142.649 72.0528 143.09 72.2167 143.489 72.459"></path><path id="Vector_152" stroke="#313553" stroke-linecap="round" stroke-linejoin="round" stroke-width=".638" d="M139.052 74.437C140.085 74.6853 141.133 74.8657 142.189 74.977C143.586 74.8953 144.976 74.7227 146.35 74.46C146.35 74.46 144.312 76.79 142.189 76.831C140.066 76.872 139.052 74.437 139.052 74.437Z"></path><path id="Vector_153" stroke="#313553" stroke-linecap="round" stroke-linejoin="round" stroke-width=".638" d="M140.267 77.3459C140.412 77.6202 140.621 77.8555 140.876 78.0322C141.131 78.2088 141.425 78.3216 141.733 78.3609C142.456 78.3329 143.162 78.1268 143.786 77.7609"></path><path id="Vector_154" fill="#313553" d="M139.052 74.423C139.792 74.0615 140.585 73.8175 141.4 73.7C142.1 73.74 145.742 74.563 145.742 74.563L141.882 74.837L139.052 74.423Z"></path><path id="Vector_155" fill="#313553" d="M145.27 83.99L146.35 81.161L144.319 81.472L144.915 83.931"></path></g></svg>