<svg xmlns="http://www.w3.org/2000/svg" fill="none" viewBox="0 0 200 200"><g id="online-learning-london-200-ico_WvOw2Mo9WuFF9i0o"><path id="Vector" fill="#313553" d="M194.9 60.4V65.71H120.066V60.4H194.9ZM134.663 63.275C134.663 63.0297 134.59 62.7899 134.453 62.5859C134.317 62.382 134.123 62.2231 133.896 62.1293C133.67 62.0355 133.42 62.011 133.18 62.0589C132.939 62.1068 132.718 62.225 132.545 62.3985C132.371 62.572 132.253 62.793 132.205 63.0337C132.157 63.2743 132.182 63.5238 132.275 63.7505C132.369 63.9772 132.528 64.171 132.732 64.3075C132.936 64.4439 133.176 64.5168 133.421 64.517C133.585 64.5179 133.747 64.4864 133.899 64.4241C134.051 64.3618 134.188 64.27 134.304 64.1541C134.42 64.0383 134.512 63.9005 134.574 63.7489C134.636 63.5974 134.668 63.4349 134.667 63.271L134.663 63.275ZM129.778 63.275C129.778 63.0297 129.705 62.7899 129.569 62.586C129.432 62.3821 129.238 62.2232 129.012 62.1294C128.785 62.0356 128.536 62.011 128.295 62.0588C128.054 62.1067 127.833 62.2248 127.66 62.3982C127.486 62.5715 127.368 62.7925 127.32 63.0331C127.272 63.2736 127.296 63.523 127.39 63.7498C127.484 63.9765 127.642 64.1704 127.846 64.307C128.05 64.4435 128.29 64.5166 128.535 64.517C128.699 64.5179 128.861 64.4864 129.013 64.4241C129.165 64.3618 129.303 64.2701 129.419 64.1542C129.534 64.0383 129.626 63.9006 129.689 63.749C129.751 63.5974 129.783 63.435 129.782 63.271L129.778 63.275ZM124.892 63.275C124.892 63.0297 124.819 62.7899 124.682 62.5859C124.546 62.382 124.352 62.2231 124.125 62.1293C123.899 62.0355 123.649 62.011 123.409 62.0589C123.168 62.1068 122.947 62.225 122.774 62.3985C122.6 62.572 122.482 62.793 122.434 63.0337C122.386 63.2743 122.411 63.5238 122.504 63.7505C122.598 63.9772 122.757 64.171 122.961 64.3075C123.165 64.4439 123.405 64.5168 123.65 64.517C123.814 64.5183 123.977 64.4871 124.129 64.425C124.281 64.3629 124.419 64.2712 124.535 64.1553C124.652 64.0394 124.744 63.9015 124.806 63.7497C124.869 63.5979 124.901 63.4352 124.9 63.271L124.892 63.275Z"></path><path id="Vector_2" fill="#edac4b" d="M179.978 171.359H98.318L88.048 164.087L57.327 142.335L57.373 142.129C57.8138 142.266 58.2726 142.335 58.734 142.335H135.805C136.615 142.336 137.412 142.122 138.112 141.714L179.978 171.359ZM135.508 160.206H157.473L151.02 155.638L136.688 145.486H70.388L76.132 149.555L91.173 160.206H135.508ZM117.592 168.568H149.464L141.518 162.942H109.566L117.512 168.568H117.592Z"></path><path id="Vector_3" fill="#edac4b" d="M157.473 160.206H135.508V160.077L129.52 155.837H150.881L151.02 155.638L157.473 160.206Z"></path><path id="Vector_4" fill="#edac4b" d="M100.555 149.555L94.811 145.486H136.688L151.02 155.638L150.881 155.837H129.52L135.508 160.077V160.206H91.168L76.127 149.555H100.555Z"></path><path id="Vector_5" fill="#FFE8BB" d="M149.464 168.568H117.592H117.512L109.566 162.942H141.438H141.518L149.464 168.568Z"></path><path id="Vector_6" fill="#edac4b" d="M140.391 110.317V137.753C140.391 138.355 140.272 138.951 140.042 139.507C139.811 140.064 139.473 140.569 139.048 140.994C138.622 141.42 138.116 141.757 137.56 141.987C137.003 142.217 136.407 142.336 135.805 142.335H58.734C58.1322 142.335 57.5361 142.217 56.9801 141.987C56.424 141.757 55.9187 141.419 55.4931 140.994C55.0676 140.568 54.7301 140.063 54.5 139.507C54.2698 138.951 54.1516 138.355 54.152 137.753V82.884C54.152 81.6686 54.6347 80.503 55.4939 79.6434C56.3531 78.7838 57.5186 78.3006 58.734 78.3H135.805C136.407 78.2998 137.004 78.4182 137.56 78.6486C138.117 78.879 138.622 79.2168 139.048 79.6427C139.474 80.0686 139.812 80.5742 140.042 81.1307C140.273 81.6873 140.391 82.2837 140.391 82.886V110.317ZM136.901 135.247V85.386C136.901 84.4313 136.522 83.5156 135.847 82.8405C135.171 82.1653 134.256 81.786 133.301 81.786H61.239C60.2842 81.786 59.3685 82.1653 58.6934 82.8405C58.0183 83.5156 57.639 84.4313 57.639 85.386V135.247C57.639 136.202 58.0183 137.118 58.6934 137.793C59.3685 138.468 60.2842 138.847 61.239 138.847H133.3C134.255 138.847 135.17 138.468 135.846 137.793C136.521 137.118 136.9 136.202 136.9 135.247H136.901Z"></path><path id="Vector_7" fill="#FFE8BB" d="M136.9 85.386V100.8H136.216V100.541C136.216 96.141 133.738 93.991 130.709 93.991H130.385C130.189 93.9912 130.002 93.9139 129.863 93.7759C129.724 93.638 129.646 93.4506 129.645 93.255V92.093C130.119 91.8592 130.519 91.4975 130.798 91.0486C131.077 90.5997 131.226 90.0817 131.226 89.553V87.975C131.226 87.2233 130.927 86.5025 130.396 85.971C129.864 85.4395 129.144 85.141 128.392 85.141C127.64 85.141 126.92 85.4395 126.388 85.971C125.857 86.5025 125.558 87.2233 125.558 87.975V89.553C125.558 90.0817 125.707 90.5997 125.986 91.0486C126.265 91.4975 126.665 91.8592 127.139 92.093V93.259C127.138 93.454 127.061 93.6409 126.923 93.779C126.785 93.9185 126.597 93.9979 126.4 94C125.557 93.9713 124.718 94.1188 123.935 94.4328C123.152 94.7468 122.443 95.2206 121.854 95.8238C121.265 96.427 120.807 97.1465 120.512 97.9363C120.216 98.7261 120.088 99.569 120.136 100.411H120.066V81.788H133.3C134.254 81.788 135.17 82.167 135.845 82.8417C136.52 83.5164 136.9 84.4315 136.9 85.386Z"></path><path id="Vector_8" fill="#313553" d="M136.133 137.247L136.287 137.258C135.958 137.747 135.514 138.147 134.993 138.424C134.473 138.701 133.892 138.845 133.303 138.845H120.066V138.445H120.136C120.088 137.603 120.216 136.76 120.512 135.97C120.807 135.181 121.265 134.461 121.854 133.858C122.443 133.255 123.152 132.781 123.935 132.467C124.718 132.153 125.557 132.005 126.4 132.034C126.497 132.034 126.593 132.016 126.683 131.979C126.772 131.942 126.854 131.888 126.923 131.82C126.992 131.751 127.046 131.67 127.083 131.58C127.121 131.491 127.14 131.395 127.14 131.298V130.132C126.666 129.898 126.266 129.537 125.987 129.088C125.707 128.639 125.559 128.121 125.559 127.592V126.015C125.559 125.263 125.858 124.543 126.389 124.011C126.921 123.48 127.641 123.181 128.393 123.181C129.145 123.181 129.866 123.48 130.397 124.011C130.928 124.543 131.227 125.263 131.227 126.015V127.592C131.227 128.121 131.079 128.639 130.799 129.088C130.52 129.537 130.12 129.898 129.646 130.132V131.3C129.647 131.496 129.725 131.683 129.864 131.821C130.003 131.959 130.19 132.036 130.386 132.036H130.71C133.415 132.033 135.679 133.75 136.133 137.247Z"></path><path id="Vector_9" fill="#313553" d="M136.217 119.39V119.763H120.066V119.25H120.136C120.088 118.408 120.216 117.565 120.512 116.776C120.808 115.986 121.265 115.267 121.854 114.664C122.444 114.06 123.152 113.587 123.935 113.273C124.718 112.959 125.557 112.811 126.4 112.84C126.597 112.84 126.785 112.762 126.924 112.623C127.062 112.485 127.14 112.298 127.14 112.103V110.938C126.666 110.704 126.266 110.342 125.987 109.893C125.707 109.444 125.559 108.926 125.559 108.397V106.82C125.559 106.068 125.858 105.348 126.389 104.816C126.921 104.285 127.641 103.986 128.393 103.986C129.145 103.986 129.866 104.285 130.397 104.816C130.928 105.348 131.227 106.068 131.227 106.82V108.4C131.227 108.929 131.079 109.447 130.799 109.896C130.52 110.345 130.12 110.707 129.646 110.941V112.1C129.647 112.296 129.725 112.483 129.864 112.621C130.003 112.759 130.19 112.837 130.386 112.837H130.71C133.739 112.84 136.217 114.993 136.217 119.39Z"></path><path id="Vector_10" fill="#313553" d="M136.217 100.545V100.804H120.066V100.404H120.136C120.089 99.5626 120.218 98.7205 120.514 97.9315C120.81 97.1426 121.267 96.4239 121.857 95.8215C122.446 95.219 123.154 94.7459 123.937 94.4323C124.719 94.1187 125.558 93.9715 126.4 94C126.596 93.9995 126.784 93.9219 126.924 93.784C127.062 93.6459 127.139 93.459 127.14 93.264V92.093C126.666 91.8592 126.266 91.4975 125.987 91.0486C125.708 90.5998 125.559 90.0817 125.559 89.553V87.975C125.559 87.2234 125.858 86.5025 126.389 85.9711C126.921 85.4396 127.641 85.141 128.393 85.141C129.145 85.141 129.866 85.4396 130.397 85.9711C130.928 86.5025 131.227 87.2234 131.227 87.975V89.553C131.227 90.0817 131.078 90.5998 130.799 91.0486C130.52 91.4975 130.12 91.8592 129.646 92.093V93.259C129.647 93.4546 129.725 93.642 129.864 93.78C130.003 93.9179 130.19 93.9953 130.386 93.995H130.71C133.739 94 136.217 96.148 136.217 100.545Z"></path><path id="Vector_11" fill="#FFE8BB" d="M128.539 62.032C128.785 62.0314 129.025 62.1037 129.23 62.2398C129.434 62.3759 129.594 62.5696 129.688 62.7965C129.782 63.0233 129.807 63.273 129.759 63.514C129.712 63.755 129.594 63.9764 129.42 64.1501C129.246 64.3239 129.025 64.4423 128.784 64.4902C128.543 64.5381 128.293 64.5134 128.066 64.4192C127.84 64.3251 127.646 64.1657 127.509 63.9613C127.373 63.7569 127.301 63.5166 127.301 63.271C127.301 62.9426 127.432 62.6278 127.664 62.3955C127.896 62.1633 128.211 62.0325 128.539 62.032Z"></path><path id="Vector_12" fill="#edac4b" d="M123.654 62.032C123.9 62.0316 124.14 62.1041 124.344 62.2403C124.549 62.3765 124.708 62.5703 124.802 62.7971C124.896 63.024 124.921 63.2737 124.873 63.5146C124.825 63.7555 124.707 63.9768 124.534 64.1505C124.36 64.3242 124.139 64.4424 123.898 64.4902C123.657 64.5381 123.407 64.5133 123.18 64.4191C122.953 64.325 122.76 64.1656 122.623 63.9612C122.487 63.7568 122.415 63.5166 122.415 63.271C122.415 62.9425 122.546 62.6275 122.778 62.3952C123.011 62.1629 123.326 62.0322 123.654 62.032V62.032Z"></path><path id="Vector_13" fill="#313553" d="M107.66 25.149V30.464H4.90002V25.149H107.66ZM19.505 28.025C19.5048 27.7797 19.4319 27.5399 19.2955 27.336C19.159 27.132 18.9652 26.9731 18.7385 26.8793C18.5118 26.7855 18.2623 26.761 18.0217 26.8089C17.781 26.8569 17.56 26.975 17.3865 27.1485C17.213 27.322 17.0948 27.5431 17.0469 27.7837C16.999 28.0243 17.0235 28.2738 17.1173 28.5005C17.2111 28.7272 17.37 28.921 17.5739 29.0575C17.7779 29.1939 18.0177 29.2669 18.263 29.267C18.4262 29.2673 18.5878 29.2354 18.7386 29.173C18.8894 29.1107 19.0265 29.0192 19.1418 28.9039C19.2572 28.7885 19.3487 28.6515 19.411 28.5007C19.4733 28.3498 19.5053 28.1882 19.505 28.025V28.025ZM14.62 28.025C14.6198 27.7797 14.5469 27.54 14.4105 27.3361C14.2741 27.1322 14.0804 26.9733 13.8537 26.8794C13.627 26.7856 13.3776 26.761 13.137 26.8089C12.8964 26.8567 12.6754 26.9748 12.5019 27.1482C12.3283 27.3216 12.2101 27.5425 12.162 27.7831C12.114 28.0237 12.1384 28.2731 12.232 28.4998C12.3257 28.7265 12.4844 28.9204 12.6882 29.057C12.892 29.1936 13.1317 29.2667 13.377 29.267C13.5403 29.2674 13.702 29.2356 13.8529 29.1733C14.0039 29.1111 14.141 29.0196 14.2565 28.9042C14.372 28.7888 14.4635 28.6518 14.5259 28.5009C14.5883 28.35 14.6203 28.1883 14.62 28.025V28.025ZM9.73402 28.025C9.73383 27.7797 9.6609 27.5399 9.52446 27.336C9.38802 27.132 9.19419 26.9731 8.96747 26.8793C8.74075 26.7855 8.49131 26.761 8.25067 26.8089C8.01004 26.8569 7.789 26.975 7.61551 27.1485C7.44201 27.322 7.32384 27.5431 7.27592 27.7837C7.228 28.0243 7.25249 28.2738 7.3463 28.5005C7.4401 28.7272 7.59901 28.921 7.80294 29.0575C8.00687 29.1939 8.24666 29.2669 8.49202 29.267C8.6552 29.2673 8.81682 29.2354 8.96763 29.173C9.11843 29.1107 9.25546 29.0192 9.37084 28.9039C9.48622 28.7885 9.5777 28.6515 9.64002 28.5007C9.70234 28.3498 9.73429 28.1882 9.73402 28.025V28.025Z"></path><path id="Vector_14" fill="#FFE8BB" d="M104.118 101.812V104.251L101.703 103.051C101.951 102.641 102.308 102.308 102.735 102.089C103.161 101.87 103.64 101.774 104.118 101.812Z"></path><path id="Vector_15" fill="#edac4b" d="M94.8111 145.486L100.555 149.555H76.1271L70.3831 145.486H94.8111Z"></path><path id="Vector_16" fill="#313553" d="M83.923 52.167C84.0117 52.2314 84.0857 52.3139 84.1403 52.409C84.1949 52.5041 84.2287 52.6096 84.2395 52.7187C84.2504 52.8278 84.2381 52.938 84.2033 53.0419C84.1686 53.1459 84.1122 53.2414 84.038 53.322L81.838 55.646L79.563 58.046L75.285 62.569L75.033 62.604C74.9351 62.4965 74.8223 62.4035 74.698 62.328C74.4246 62.1554 74.111 62.0568 73.788 62.042V62.035L79.6 55.81L82.9 52.268C82.9726 52.1897 83.0606 52.1272 83.1585 52.0845C83.2564 52.0418 83.3621 52.0199 83.469 52.02C83.6319 52.0205 83.7906 52.0719 83.923 52.167Z"></path><path id="Vector_17" fill="#FFE8BB" d="M78.974 91.723L81.6 93.032C81.087 94.627 78.972 94.103 78.972 94.103L78.974 91.723Z"></path><path id="Vector_18" fill="#FFE8BB" d="M77.812 43.76V46.2L75.4 45C75.6478 44.5903 76.0046 44.2574 76.4304 44.0384C76.8563 43.8195 77.3346 43.7231 77.812 43.76V43.76Z"></path><path id="Vector_19" fill="#FFE8BB" d="M76.123 66.251C76.5 67.295 75.338 68.351 75.338 68.351C74.448 67.74 72.616 68.574 72.089 69.572C70.489 69.356 70.529 68.522 71.089 67.737C71.4718 67.2263 71.9491 66.7938 72.495 66.463C73.747 65.71 75.746 65.208 76.123 66.251Z"></path><path id="Vector_20" fill="#FFE8BB" d="M74.867 64.384C76.291 65.191 76.123 66.251 76.123 66.251C75.746 65.208 73.747 65.71 72.494 66.461C71.9481 66.7917 71.4708 67.2242 71.088 67.735L70.906 67.612C70.7599 67.6042 70.6148 67.5821 70.473 67.546C69.294 67.253 69.995 66.185 70.044 66.108C70.6717 65.8695 71.2662 65.5516 71.813 65.162C71.971 65.0404 72.1047 64.8901 72.207 64.719L72.322 64.736C72.322 64.736 73.914 63.843 74.867 64.384Z"></path><path id="Vector_21" fill="#FFE8BB" d="M72.089 69.57C72.616 68.57 74.448 67.738 75.338 68.349C76.228 68.96 75.725 70.624 73.618 73.011C73.1126 73.6746 72.465 74.2165 71.7229 74.5972C70.9807 74.9779 70.1628 75.1876 69.329 75.211L67.829 78.258V78.3H60.109V78.26L63.33 71.437L66.32 65.737C66.513 65.4238 66.7902 65.1711 67.12 65.008C68.4368 64.2993 69.8628 63.8156 71.339 63.577C71.499 63.5668 71.6595 63.5833 71.814 63.626C71.9215 63.6589 72.0198 63.7163 72.1012 63.7937C72.1826 63.8711 72.2449 63.9664 72.2831 64.0721C72.3214 64.1777 72.3345 64.2908 72.3214 64.4024C72.3084 64.514 72.2696 64.621 72.208 64.715C72.1057 64.8861 71.972 65.0364 71.814 65.158C71.2672 65.5476 70.6727 65.8656 70.045 66.104V66.104C69.853 66.181 69.672 66.254 69.511 66.314L69.539 66.39L64.556 71.66C64.4818 71.7404 64.4255 71.8356 64.3908 71.9394C64.3561 72.0431 64.3437 72.153 64.3546 72.2619C64.3655 72.3707 64.3993 72.4761 64.4538 72.5709C64.5084 72.6657 64.5824 72.7479 64.671 72.812C64.8044 72.9071 64.9642 72.9582 65.128 72.958C65.2348 72.958 65.3404 72.936 65.4383 72.8933C65.5362 72.8507 65.6243 72.7883 65.697 72.71L70.349 67.79L70.474 67.542C70.6158 67.5782 70.7609 67.6003 70.907 67.608L71.088 67.731C70.529 68.52 70.491 69.354 72.089 69.57Z"></path><path id="Vector_22" fill="#FFE8BB" d="M75.034 62.608C75.687 63.362 74.867 64.384 74.867 64.384C73.914 63.843 72.326 64.733 72.326 64.733L72.211 64.716C72.2726 64.622 72.3114 64.5149 72.3245 64.4033C72.3375 64.2917 72.3244 64.1786 72.2862 64.073C72.2479 63.9673 72.1856 63.872 72.1042 63.7946C72.0228 63.7172 71.9245 63.6598 71.817 63.6269C71.6625 63.5843 71.502 63.5677 71.342 63.5779V63.5779C71.5893 63.1386 71.9429 62.7684 72.3705 62.5012C72.798 62.2341 73.2858 62.0786 73.789 62.049C74.112 62.0637 74.4256 62.1623 74.699 62.3349C74.8231 62.4095 74.9359 62.5015 75.034 62.608Z"></path><path id="Vector_23" fill="#313553" d="M74.6999 138.444V138.844H61.2389C60.6546 138.845 60.0789 138.703 59.5619 138.431C59.045 138.158 58.6025 137.764 58.2729 137.281L58.325 137.246C58.779 133.746 61.0439 132.032 63.7449 132.032H64.0729C64.2681 132.032 64.4554 131.954 64.5934 131.816C64.7314 131.678 64.8089 131.491 64.8089 131.296V130.13C64.3351 129.896 63.9362 129.534 63.6575 129.085C63.3788 128.636 63.2314 128.118 63.2319 127.59V126.013C63.2249 125.636 63.2929 125.262 63.4322 124.912C63.5714 124.562 63.779 124.244 64.0428 123.975C64.3066 123.706 64.6213 123.492 64.9686 123.347C65.3159 123.201 65.6888 123.126 66.0654 123.126C66.4421 123.126 66.815 123.201 67.1623 123.347C67.5096 123.492 67.8243 123.706 68.0881 123.975C68.3519 124.244 68.5595 124.562 68.6987 124.912C68.838 125.262 68.906 125.636 68.899 126.013V127.59C68.8989 128.119 68.7509 128.637 68.4717 129.086C68.1924 129.535 67.7931 129.896 67.319 130.13V131.3C67.3192 131.495 67.3968 131.682 67.5348 131.82C67.6728 131.958 67.8598 132.036 68.055 132.036C68.8981 132.007 69.7381 132.154 70.5213 132.468C71.3044 132.782 72.0135 133.255 72.6034 133.859C73.1932 134.462 73.6507 135.182 73.9468 135.972C74.2429 136.762 74.371 137.605 74.3229 138.447L74.6999 138.444Z"></path><path id="Vector_24" fill="#FFE8BB" d="M74.7 119.763V138.444H74.324C74.372 137.602 74.2439 136.759 73.9478 135.969C73.6517 135.179 73.1942 134.459 72.6044 133.856C72.0146 133.252 71.3054 132.779 70.5223 132.465C69.7391 132.151 68.8992 132.004 68.056 132.033C67.8609 132.033 67.6738 131.955 67.5358 131.817C67.3979 131.679 67.3202 131.492 67.32 131.297V130.131C67.7942 129.897 68.1935 129.536 68.4727 129.087C68.7519 128.638 68.8999 128.12 68.9 127.591V126.014C68.886 125.272 68.5814 124.565 68.0515 124.045C67.5216 123.525 66.8089 123.233 66.0665 123.233C65.3241 123.233 64.6113 123.525 64.0814 124.045C63.5516 124.565 63.2469 125.272 63.233 126.014V127.591C63.2324 128.119 63.3798 128.637 63.6585 129.086C63.9373 129.535 64.3361 129.897 64.81 130.131V131.3C64.81 131.495 64.7324 131.682 64.5944 131.82C64.4564 131.958 64.2692 132.036 64.074 132.036H63.746C61.046 132.036 58.78 133.753 58.326 137.25L58.274 137.285C57.8613 136.687 57.6408 135.977 57.642 135.25V119.763H74.7Z"></path><path id="Vector_25" fill="#313553" d="M74.6999 119.25V119.763H58.2419V119.39C58.2419 114.99 60.7189 112.84 63.7419 112.84H64.0699C64.2652 112.84 64.4524 112.762 64.5904 112.624C64.7284 112.486 64.8059 112.298 64.8059 112.103V110.938C64.3321 110.704 63.9332 110.342 63.6545 109.893C63.3758 109.444 63.2284 108.926 63.2289 108.397V106.82C63.2219 106.443 63.2899 106.069 63.4291 105.719C63.5684 105.369 63.776 105.051 64.0398 104.782C64.3036 104.513 64.6183 104.299 64.9656 104.154C65.3129 104.008 65.6858 103.933 66.0624 103.933C66.4391 103.933 66.812 104.008 67.1593 104.154C67.5065 104.299 67.8213 104.513 68.0851 104.782C68.3489 105.051 68.5565 105.369 68.6957 105.719C68.835 106.069 68.903 106.443 68.8959 106.82V108.4C68.8959 108.929 68.7478 109.447 68.4686 109.896C68.1894 110.345 67.7901 110.707 67.3159 110.941V112.1C67.3165 112.295 67.3941 112.482 67.532 112.62C67.6699 112.758 67.8568 112.836 68.0519 112.837C68.895 112.808 69.7349 112.955 70.518 113.269C71.3011 113.583 72.0102 114.056 72.6 114.659C73.1898 115.262 73.6473 115.982 73.9435 116.772C74.2396 117.562 74.3678 118.405 74.3199 119.247L74.6999 119.25Z"></path><path id="Vector_26" fill="#313553" d="M74.6999 100.406V100.806H58.2419V100.547C58.2419 96.147 60.7189 93.997 63.7419 93.997H64.0699C64.2651 93.9967 64.4521 93.9191 64.5901 93.7811C64.7281 93.6432 64.8057 93.4561 64.8059 93.261V92.093C64.3322 91.859 63.9335 91.497 63.6548 91.0481C63.3761 90.5993 63.2286 90.0814 63.2289 89.553V87.975C63.2219 87.5984 63.2899 87.2242 63.4291 86.8742C63.5684 86.5243 63.776 86.2056 64.0398 85.9367C64.3036 85.6679 64.6183 85.4544 64.9656 85.3086C65.3129 85.1628 65.6858 85.0878 66.0624 85.0878C66.4391 85.0878 66.812 85.1628 67.1593 85.3086C67.5065 85.4544 67.8213 85.6679 68.0851 85.9367C68.3489 86.2056 68.5565 86.5243 68.6957 86.8742C68.835 87.2242 68.903 87.5984 68.8959 87.975V89.553C68.8958 90.0816 68.7477 90.5997 68.4685 91.0485C68.1893 91.4974 67.7901 91.8592 67.3159 92.093V93.259C67.3162 93.4541 67.3938 93.6412 67.5318 93.7791C67.6698 93.9171 67.8568 93.9947 68.0519 93.995C68.8951 93.966 69.7351 94.1131 70.5183 94.4269C71.3014 94.7407 72.0105 95.2144 72.6003 95.8176C73.1902 96.4209 73.6477 97.1405 73.9438 97.9306C74.2399 98.7206 74.368 99.5637 74.3199 100.406H74.6999Z"></path><path id="Vector_27" fill="#313553" d="M70.473 67.546L70.348 67.794L65.7 72.714C65.6273 72.7922 65.5392 72.8546 65.4413 72.8973C65.3434 72.94 65.2378 72.962 65.131 72.962C64.9672 72.9622 64.8074 72.9111 64.674 72.816C64.5854 72.7519 64.5114 72.6697 64.4568 72.5749C64.4023 72.48 64.3685 72.3747 64.3576 72.2659C64.3467 72.157 64.3591 72.0471 64.3938 71.9434C64.4285 71.8396 64.4848 71.7444 64.559 71.664L69.542 66.394L69.514 66.318C69.675 66.258 69.856 66.185 70.048 66.108C70 66.185 69.294 67.253 70.473 67.546Z"></path><path id="Vector_28" fill="#FFE8BB" d="M52.6689 33.671L55.2999 34.98C54.7909 36.574 52.6729 36.051 52.6729 36.051L52.6689 33.671Z"></path><path id="Vector_29" fill="#FFE8BB" d="M54.152 84.82V96.009H49.427V95.893L46.206 92.093C46.8486 90.5994 47.1911 88.9939 47.214 87.368C47.214 85.48 45.972 83.124 44.9 81.439L49.427 78.3L54.152 84.82Z"></path><path id="Vector_30" fill="#edac4b" d="M43.958 30.464V69.731L43.909 69.831C43.2459 69.532 42.5487 69.3154 41.833 69.186L41.864 69.029V30.464H43.958Z"></path><path id="Vector_31" fill="#313553" d="M36.661 60.5C37.23 61.634 36.598 63.282 35.398 63.432C34.972 63.4915 34.5379 63.4219 34.152 63.232C34.6466 62.4991 35.0244 61.6938 35.272 60.845C35.419 60.492 35.659 60.108 35.893 59.62C36.2254 59.8367 36.4913 60.1413 36.661 60.5Z"></path><path id="Vector_32" fill="#FFE8BB" d="M32.672 67.818L36.528 69.033C36.528 69.033 34.407 71.378 28.687 71.685C25.0998 71.8037 21.5548 70.8828 18.479 69.033L23.337 67.026L20.186 63.76C20.207 63.76 19.771 60.28 19.792 60.277C20.392 60.2 24.618 63.952 24.963 63.456L25.899 63.672C26.8166 64.3016 27.8203 64.7954 28.879 65.138L28.914 65.1491C29.221 65.2641 31.531 66.112 32.581 66.433H32.6L32.61 66.625L32.672 67.818Z"></path><path id="Vector_33" fill="#FFE8BB" d="M34.061 60.0571C33.9502 60.1364 33.8324 60.2053 33.709 60.2631C33.709 60.2631 32.509 60.0011 32.068 59.9631C31.716 59.9321 29.72 60.0301 28.952 60.0751C28.764 60.0821 28.652 60.0891 28.652 60.0891C29.1513 60.5164 29.6781 60.9105 30.229 61.2691C30.5243 61.4856 30.8657 61.631 31.2265 61.694C31.5873 61.7569 31.9577 61.7357 32.309 61.6321C32.9651 61.1933 33.5551 60.6629 34.061 60.0571ZM18.923 55.1371C19.47 54.5371 20.231 54.8681 20.723 55.2031C21.2284 55.5689 21.8415 55.7554 22.465 55.7331C25.752 55.5171 26.446 50.6071 26.652 48.8621C26.652 48.8621 31.158 49.3501 32.613 50.0691C32.752 50.1391 32.892 50.2161 33.028 50.2931C34.4564 51.1321 35.5121 52.4832 35.981 54.0721L35.946 54.1721C35.855 54.4341 35.775 54.6081 35.775 54.6081C36.2045 55.5301 36.364 56.5551 36.235 57.5641C36.1034 58.3101 35.8699 59.0346 35.541 59.7171C35.23 60.3771 34.902 60.8931 34.707 61.3681C34.3726 62.5093 33.8639 63.5921 33.199 64.5781C33.0037 64.8108 32.7687 65.0072 32.505 65.1581C32.2546 65.2998 31.9799 65.3931 31.695 65.4331C30.9132 65.5243 30.1213 65.4686 29.36 65.2691C29.214 65.2341 29.06 65.1961 28.917 65.1511L28.882 65.1401C27.8234 64.797 26.8198 64.3033 25.902 63.6741L24.269 63.4581C24.5868 63.0699 24.7794 62.5944 24.8212 62.0944C24.863 61.5945 24.752 61.0936 24.503 60.6581C23.903 59.7161 23.47 59.3391 21.948 60.0131C21.5802 60.2038 21.2769 60.4987 21.076 60.8611L20.971 61.3351C19.949 60.7461 17.671 57.6681 18.647 55.5741C18.7142 55.4142 18.8075 55.2665 18.923 55.1371V55.1371Z"></path><path id="Vector_34" fill="#313553" d="M26.645 48.844C26.6469 48.8498 26.6469 48.8561 26.645 48.862C26.429 50.736 25.64 56.25 21.7 55.702C21.4224 55.6614 21.1609 55.5467 20.943 55.37C20.489 55.007 19.561 54.428 18.919 55.137C18.8036 55.2669 18.7092 55.414 18.639 55.573C17.662 57.667 19.498 59.384 20.52 59.973L21.344 60.539C21.1617 60.8496 21.0609 61.2013 21.0512 61.5613C21.0414 61.9213 21.1228 62.2779 21.288 62.598C21.717 63.809 22.701 63.672 23.452 63.69L23.333 67.026L18.475 69.033C16.3529 69.3892 14.2937 70.0518 12.362 71C10.551 65.968 16.511 57.659 18.169 52.77C18.343 52.26 18.13 48.526 20.863 45.445C22.2478 44.3284 23.8699 43.544 25.605 43.152C25.805 43.1 25.997 43.0537 26.181 43.013C27.9958 42.6721 29.8721 42.9207 31.5354 43.7224C33.1988 44.5242 34.5621 45.837 35.426 47.469C37.764 52.233 35.977 54.069 35.977 54.069C35.5086 52.4802 34.4532 51.1291 33.025 50.29C31.7847 49.2664 30.3175 48.5543 28.746 48.213C26.6 47.867 26.631 48.722 26.645 48.844Z"></path><path id="Vector_35" fill="#313553" d="M33.025 50.2929C32.889 50.2159 32.749 50.1389 32.609 50.0689C31.154 49.3499 26.649 48.8619 26.649 48.8619C26.6508 48.8561 26.6508 48.8498 26.649 48.844C26.635 48.722 26.604 47.8669 28.749 48.2159C30.3194 48.5577 31.7855 49.2698 33.025 50.2929V50.2929Z"></path><path id="Vector_36" fill="#313553" d="M32.5329 65.211L32.5989 66.433H32.5809C31.5309 66.112 29.2209 65.264 28.9139 65.149C29.0599 65.194 29.2139 65.232 29.3569 65.267C30.1183 65.4667 30.9102 65.5223 31.6919 65.431C31.9765 65.3911 32.251 65.2978 32.5009 65.156L32.5329 65.211Z"></path><path id="Vector_37" fill="#edac4b" d="M23.267 63.519C22.8122 63.5733 22.3528 63.4645 21.9707 63.212C21.5885 62.9595 21.3084 62.5796 21.18 62.14C21.0868 61.8776 21.0535 61.5978 21.0826 61.3209C21.1117 61.0441 21.2023 60.7772 21.348 60.54C21.4877 60.3057 21.6976 60.1213 21.948 60.013C22.1641 59.8857 22.4047 59.8057 22.654 59.7782C22.9034 59.7507 23.1557 59.7763 23.3943 59.8534C23.633 59.9305 23.8526 60.0573 24.0387 60.2255C24.2248 60.3936 24.3732 60.5993 24.474 60.829C24.6244 61.1577 24.6874 61.5196 24.6569 61.8798C24.6264 62.24 24.5035 62.5862 24.3 62.885C24.1903 63.0541 24.0458 63.1978 23.8761 63.3067C23.7064 63.4155 23.5154 63.4868 23.316 63.516C23.3 63.515 23.285 63.519 23.267 63.519Z"></path><path id="Vector_38" fill="#FFE8BB" d="M18.479 86.087L18.172 96.009H8.03796V85.672L18.479 86.087Z"></path><path id="Vector_39" fill="#FFE8BB" d="M13.3769 26.786C13.6226 26.7856 13.8628 26.8581 14.0672 26.9943C14.2715 27.1305 14.4309 27.3243 14.5251 27.5512C14.6193 27.778 14.644 28.0277 14.5962 28.2686C14.5484 28.5095 14.4301 28.7309 14.2565 28.9045C14.0828 29.0782 13.8615 29.1964 13.6206 29.2443C13.3796 29.2921 13.13 29.2673 12.9031 29.1732C12.6763 29.079 12.4825 28.9196 12.3463 28.7152C12.21 28.5108 12.1375 28.2706 12.1379 28.025C12.1382 27.6965 12.2688 27.3815 12.5011 27.1492C12.7334 26.9169 13.0484 26.7863 13.3769 26.786V26.786Z"></path><path id="Vector_40" fill="#edac4b" d="M8.49205 26.786C8.73767 26.7856 8.97788 26.8581 9.18227 26.9943C9.38666 27.1305 9.54603 27.3243 9.6402 27.5512C9.73438 27.778 9.75912 28.0277 9.7113 28.2686C9.66348 28.5095 9.54525 28.7309 9.37157 28.9045C9.19789 29.0782 8.97659 29.1964 8.73567 29.2443C8.49475 29.2921 8.24506 29.2673 8.01822 29.1732C7.79137 29.079 7.59758 28.9196 7.46137 28.7152C7.32516 28.5108 7.25266 28.2706 7.25305 28.025C7.25332 27.6965 7.38394 27.3815 7.61624 27.1492C7.84854 26.9169 8.16353 26.7863 8.49205 26.786V26.786Z"></path><path id="Vector_41" stroke="#313553" stroke-linecap="round" stroke-linejoin="round" stroke-width=".698" d="M138.112 141.714C137.412 142.122 136.615 142.336 135.805 142.335H58.734C58.1322 142.335 57.5361 142.217 56.9801 141.987C56.424 141.757 55.9187 141.419 55.4931 140.994C55.0676 140.568 54.7301 140.063 54.5 139.507C54.2698 138.951 54.1516 138.355 54.152 137.753V82.884C54.152 81.6686 54.6347 80.503 55.4939 79.6434C56.3531 78.7838 57.5186 78.3006 58.734 78.3H135.805C136.407 78.2998 137.004 78.4182 137.56 78.6486C138.117 78.879 138.622 79.2168 139.048 79.6427C139.474 80.0686 139.812 80.5742 140.042 81.1307C140.273 81.6873 140.391 82.2837 140.391 82.886V137.755C140.391 138.557 140.18 139.344 139.78 140.039C139.38 140.734 138.805 141.311 138.112 141.714Z"></path><path id="Vector_42" stroke="#313553" stroke-linecap="round" stroke-linejoin="round" stroke-width=".698" d="M74.7 138.845H61.239C60.2843 138.845 59.3686 138.466 58.6935 137.791C58.0183 137.115 57.639 136.2 57.639 135.245V85.386C57.639 84.4312 58.0183 83.5156 58.6935 82.8404C59.3686 82.1653 60.2843 81.786 61.239 81.786H133.3C134.255 81.786 135.17 82.1653 135.846 82.8404C136.521 83.5156 136.9 84.4312 136.9 85.386V135.247C136.9 136.202 136.521 137.117 135.846 137.793C135.17 138.468 134.255 138.847 133.3 138.847H74.7V138.845Z"></path><path id="Vector_43" stroke="#313553" stroke-linecap="round" stroke-linejoin="round" stroke-width=".698" d="M92.755 80.3359H98.698"></path><path id="Vector_44" stroke="#313553" stroke-linecap="round" stroke-linejoin="round" stroke-width=".698" d="M74.699 81.788V100.406V100.804V119.25V119.763V138.444V138.845"></path><path id="Vector_45" stroke="#313553" stroke-linecap="round" stroke-linejoin="round" stroke-width=".698" d="M120.066 81.788V100.406V100.804V119.25V119.763V138.444V138.845"></path><path id="Vector_46" stroke="#313553" stroke-linecap="round" stroke-linejoin="round" stroke-width=".698" d="M57.641 100.804H58.242H74.699"></path><path id="Vector_47" stroke="#313553" stroke-linecap="round" stroke-linejoin="round" stroke-width=".698" d="M57.641 119.763H58.242H74.699"></path><path id="Vector_48" stroke="#313553" stroke-linecap="round" stroke-linejoin="round" stroke-width=".698" d="M74.323 100.406C74.3703 99.5641 74.2417 98.7215 73.9453 97.9321C73.6489 97.1427 73.1912 96.4237 72.6015 95.8209C72.0117 95.2182 71.3029 94.745 70.5201 94.4315C69.7373 94.118 68.8977 93.971 68.055 94C67.8599 93.9997 67.6728 93.9221 67.5349 93.7841C67.3969 93.6461 67.3193 93.4591 67.319 93.264V92.093C67.7931 91.8592 68.1923 91.4974 68.4716 91.0485C68.7508 90.5996 68.8988 90.0816 68.899 89.553V87.975C68.8851 87.2327 68.5804 86.5255 68.0505 86.0055C67.5207 85.4855 66.8079 85.1942 66.0655 85.1942C65.3231 85.1942 64.6103 85.4855 64.0805 86.0055C63.5506 86.5255 63.2459 87.2327 63.232 87.975V89.553C63.2316 90.0813 63.3792 90.5992 63.6579 91.0481C63.9366 91.497 64.3353 91.8589 64.809 92.093V93.259C64.8087 93.4541 64.7311 93.6411 64.5931 93.7791C64.4552 93.9171 64.2681 93.9947 64.073 93.995H63.745C60.719 93.995 58.245 96.148 58.245 100.545"></path><path id="Vector_49" stroke="#313553" stroke-linecap="round" stroke-linejoin="round" stroke-width=".698" d="M74.323 119.25C74.3709 118.408 74.2427 117.565 73.9465 116.775C73.6504 115.985 73.1928 115.265 72.603 114.662C72.0132 114.059 71.3041 113.586 70.521 113.272C69.738 112.958 68.8981 112.811 68.055 112.84C67.8598 112.839 67.6729 112.761 67.5351 112.623C67.3972 112.485 67.3195 112.298 67.319 112.103V110.938C67.7929 110.704 68.1921 110.343 68.4714 109.894C68.7508 109.446 68.8992 108.928 68.9 108.4V106.82C68.886 106.078 68.5814 105.371 68.0515 104.851C67.5216 104.331 66.8089 104.039 66.0665 104.039C65.3241 104.039 64.6113 104.331 64.0814 104.851C63.5516 105.371 63.2469 106.078 63.233 106.82V108.4C63.2324 108.929 63.3799 109.447 63.6586 109.896C63.9373 110.345 64.3361 110.707 64.81 110.941V112.1C64.81 112.295 64.7325 112.483 64.5945 112.621C64.4565 112.759 64.2693 112.837 64.074 112.837H63.746C60.72 112.837 58.246 114.99 58.246 119.387"></path><path id="Vector_50" stroke="#313553" stroke-linecap="round" stroke-linejoin="round" stroke-width=".698" d="M74.3229 138.444C74.371 137.602 74.2429 136.759 73.9468 135.969C73.6507 135.179 73.1932 134.459 72.6034 133.856C72.0135 133.252 71.3044 132.779 70.5213 132.465C69.7381 132.151 68.8981 132.004 68.055 132.033C67.8598 132.033 67.6728 131.955 67.5348 131.817C67.3968 131.679 67.3192 131.492 67.319 131.297V130.131C67.7931 129.897 68.1924 129.535 68.4717 129.087C68.7509 128.638 68.8989 128.12 68.899 127.591V126.014C68.885 125.272 68.5803 124.565 68.0505 124.045C67.5206 123.525 66.8079 123.233 66.0654 123.233C65.323 123.233 64.6103 123.525 64.0804 124.045C63.5506 124.565 63.2459 125.272 63.2319 126.014V127.591C63.2314 128.119 63.3788 128.637 63.6575 129.086C63.9362 129.535 64.3351 129.897 64.8089 130.131V131.3C64.8089 131.495 64.7314 131.682 64.5934 131.82C64.4554 131.958 64.2681 132.036 64.0729 132.036H63.7449C61.0449 132.036 58.779 133.753 58.325 137.25"></path><path id="Vector_51" stroke="#313553" stroke-linecap="round" stroke-linejoin="round" stroke-width=".698" d="M136.901 100.804H136.217H120.108"></path><path id="Vector_52" stroke="#313553" stroke-linecap="round" stroke-linejoin="round" stroke-width=".698" d="M136.901 119.763H136.217H120.108"></path><path id="Vector_53" stroke="#313553" stroke-linecap="round" stroke-linejoin="round" stroke-width=".698" d="M120.136 100.406C120.089 99.5644 120.217 98.7221 120.513 97.9329C120.809 97.1437 121.266 96.4248 121.856 95.8221C122.445 95.2194 123.154 94.7462 123.936 94.4324C124.718 94.1187 125.558 93.9714 126.4 94C126.596 93.9995 126.784 93.9219 126.924 93.784C127.062 93.6459 127.139 93.459 127.14 93.264V92.093C126.666 91.8592 126.266 91.4975 125.987 91.0486C125.708 90.5998 125.559 90.0817 125.559 89.553V87.975C125.559 87.2234 125.858 86.5025 126.389 85.9711C126.92 85.4396 127.641 85.141 128.393 85.141C129.145 85.141 129.865 85.4396 130.397 85.9711C130.928 86.5025 131.227 87.2234 131.227 87.975V89.553C131.227 90.0817 131.078 90.5998 130.799 91.0486C130.52 91.4975 130.12 91.8592 129.646 92.093V93.259C129.647 93.4546 129.725 93.642 129.864 93.78C130.003 93.9179 130.19 93.9953 130.386 93.995H130.71C133.739 93.995 136.217 96.148 136.217 100.545"></path><path id="Vector_54" stroke="#313553" stroke-linecap="round" stroke-linejoin="round" stroke-width=".698" d="M120.136 119.25C120.088 118.408 120.216 117.565 120.512 116.776C120.808 115.986 121.265 115.267 121.854 114.664C122.444 114.06 123.152 113.587 123.935 113.273C124.718 112.959 125.557 112.811 126.4 112.84C126.597 112.84 126.785 112.762 126.924 112.623C127.062 112.485 127.14 112.298 127.14 112.103V110.938C126.666 110.704 126.266 110.342 125.987 109.893C125.707 109.444 125.559 108.926 125.559 108.397V106.82C125.559 106.068 125.858 105.348 126.389 104.816C126.921 104.285 127.641 103.986 128.393 103.986C129.145 103.986 129.866 104.285 130.397 104.816C130.928 105.348 131.227 106.068 131.227 106.82V108.4C131.227 108.929 131.079 109.447 130.799 109.896C130.52 110.345 130.12 110.707 129.646 110.941V112.1C129.647 112.296 129.725 112.483 129.864 112.621C130.003 112.759 130.19 112.837 130.386 112.837H130.71C133.739 112.837 136.217 114.99 136.217 119.387"></path><path id="Vector_55" stroke="#313553" stroke-linecap="round" stroke-linejoin="round" stroke-width=".698" d="M120.136 138.444C120.088 137.602 120.216 136.759 120.512 135.969C120.807 135.18 121.264 134.46 121.854 133.857C122.443 133.254 123.152 132.78 123.935 132.466C124.717 132.152 125.557 132.004 126.4 132.033C126.497 132.033 126.593 132.015 126.683 131.978C126.772 131.941 126.854 131.887 126.923 131.819C126.991 131.75 127.046 131.669 127.083 131.579C127.121 131.49 127.14 131.394 127.14 131.297V130.131C126.666 129.897 126.266 129.536 125.987 129.087C125.707 128.638 125.559 128.12 125.559 127.591V126.014C125.559 125.262 125.858 124.542 126.389 124.01C126.921 123.479 127.641 123.18 128.393 123.18C129.145 123.18 129.865 123.479 130.397 124.01C130.928 124.542 131.227 125.262 131.227 126.014V127.591C131.227 128.12 131.079 128.638 130.799 129.087C130.52 129.536 130.12 129.897 129.646 130.131V131.3C129.647 131.496 129.725 131.683 129.864 131.821C130.003 131.959 130.19 132.036 130.386 132.036H130.71C133.41 132.036 135.679 133.753 136.133 137.25"></path><path id="Vector_56" stroke="#313553" stroke-linecap="round" stroke-linejoin="round" stroke-width=".698" d="M120.066 78.298V65.71V60.396H194.904V65.71V110.317H140.391"></path><path id="Vector_57" stroke="#313553" stroke-linecap="round" stroke-linejoin="round" stroke-width=".698" d="M120.066 65.71H194.904"></path><path id="Vector_58" stroke="#313553" stroke-linecap="round" stroke-linejoin="round" stroke-width=".698" d="M124.9 63.271C124.9 63.5165 124.828 63.7566 124.692 63.9609C124.556 64.1652 124.362 64.3246 124.135 64.4188C123.909 64.5131 123.659 64.538 123.418 64.4905C123.178 64.4429 122.956 64.3249 122.783 64.1516C122.609 63.9782 122.49 63.7572 122.442 63.5164C122.394 63.2757 122.418 63.0261 122.512 62.7992C122.606 62.5723 122.765 62.3783 122.969 62.2418C123.173 62.1052 123.412 62.0322 123.658 62.032C123.821 62.0317 123.982 62.0636 124.133 62.1257C124.283 62.1878 124.42 62.279 124.536 62.3941C124.651 62.5092 124.743 62.6458 124.805 62.7963C124.868 62.9468 124.9 63.1081 124.9 63.271V63.271Z"></path><path id="Vector_59" stroke="#313553" stroke-linecap="round" stroke-linejoin="round" stroke-width=".698" d="M129.782 63.271C129.782 63.5164 129.71 63.7565 129.574 63.9608C129.438 64.1651 129.244 64.3245 129.018 64.4188C128.791 64.513 128.542 64.538 128.301 64.4905C128.06 64.443 127.839 64.3252 127.665 64.1519C127.491 63.9786 127.373 63.7577 127.324 63.5171C127.276 63.2764 127.3 63.0268 127.394 62.7999C127.487 62.573 127.646 62.3789 127.85 62.2422C128.054 62.1055 128.294 62.0324 128.539 62.032C128.702 62.0316 128.864 62.0633 129.014 62.1254C129.165 62.1875 129.302 62.2787 129.417 62.3938C129.533 62.5088 129.625 62.6455 129.687 62.7961C129.75 62.9466 129.782 63.108 129.782 63.271V63.271Z"></path><path id="Vector_60" stroke="#313553" stroke-linecap="round" stroke-linejoin="round" stroke-width=".698" d="M134.667 63.271C134.667 63.5165 134.595 63.7566 134.459 63.9609C134.323 64.1652 134.129 64.3246 133.903 64.4188C133.676 64.5131 133.426 64.538 133.186 64.4905C132.945 64.4429 132.723 64.3249 132.55 64.1516C132.376 63.9782 132.257 63.7572 132.209 63.5164C132.161 63.2757 132.185 63.0261 132.279 62.7992C132.373 62.5723 132.532 62.3783 132.736 62.2418C132.94 62.1052 133.18 62.0322 133.425 62.032C133.588 62.0316 133.749 62.0633 133.9 62.1254C134.051 62.1875 134.188 62.2787 134.303 62.3938C134.418 62.5089 134.51 62.6456 134.572 62.7961C134.635 62.9467 134.667 63.108 134.667 63.271V63.271Z"></path><path id="Vector_61" stroke="#313553" stroke-linecap="round" stroke-linejoin="round" stroke-width=".698" d="M54.1521 96.009H49.4271H43.9581H18.1721H8.03805H4.90405V30.464V25.149H107.66V30.464V78.298"></path><path id="Vector_62" stroke="#313553" stroke-linecap="round" stroke-linejoin="round" stroke-width=".698" d="M4.90405 30.464H41.8641H43.9581H107.66"></path><path id="Vector_63" stroke="#313553" stroke-linecap="round" stroke-linejoin="round" stroke-width=".698" d="M9.73395 28.025C9.73435 28.2705 9.66193 28.5106 9.52585 28.7149C9.38977 28.9192 9.19615 29.0786 8.96948 29.1729C8.74281 29.2671 8.49328 29.2921 8.25244 29.2445C8.01161 29.1969 7.79029 29.079 7.6165 28.9056C7.4427 28.7322 7.32423 28.5112 7.27607 28.2705C7.22791 28.0297 7.25222 27.7802 7.34594 27.5533C7.43966 27.3264 7.59856 27.1324 7.80255 26.9958C8.00655 26.8592 8.24646 26.7862 8.49195 26.786C8.82091 26.7857 9.13652 26.9161 9.36941 27.1484C9.6023 27.3808 9.73342 27.6961 9.73395 28.025V28.025Z"></path><path id="Vector_64" stroke="#313553" stroke-linecap="round" stroke-linejoin="round" stroke-width=".698" d="M14.6201 28.025C14.6205 28.2705 14.5481 28.5105 14.412 28.7148C14.276 28.9191 14.0824 29.0785 13.8558 29.1728C13.6292 29.2671 13.3797 29.2921 13.1389 29.2446C12.8981 29.1971 12.6768 29.0792 12.503 28.9059C12.3291 28.7327 12.2106 28.5117 12.1623 28.2711C12.114 28.0304 12.1382 27.7809 12.2318 27.554C12.3253 27.327 12.4841 27.133 12.6879 26.9963C12.8918 26.8596 13.1316 26.7864 13.3771 26.786C13.54 26.7857 13.7015 26.8176 13.8521 26.8797C14.0028 26.9418 14.1397 27.033 14.2552 27.1481C14.3706 27.2631 14.4622 27.3998 14.5248 27.5503C14.5874 27.7007 14.6198 27.862 14.6201 28.025Z"></path><path id="Vector_65" stroke="#313553" stroke-linecap="round" stroke-linejoin="round" stroke-width=".698" d="M19.5049 28.025C19.5053 28.2705 19.4329 28.5106 19.2968 28.7149C19.1608 28.9192 18.9671 29.0786 18.7405 29.1729C18.5138 29.2671 18.2643 29.2921 18.0234 29.2445C17.7826 29.1969 17.5613 29.079 17.3875 28.9056C17.2137 28.7322 17.0952 28.5112 17.0471 28.2705C16.9989 28.0297 17.0232 27.7802 17.1169 27.5533C17.2107 27.3264 17.3696 27.1324 17.5736 26.9958C17.7775 26.8592 18.0175 26.7862 18.2629 26.786C18.5919 26.7857 18.9075 26.9161 19.1404 27.1484C19.3733 27.3808 19.5044 27.6961 19.5049 28.025Z"></path><path id="Vector_66" stroke="#313553" stroke-linecap="round" stroke-linejoin="round" stroke-width=".698" d="M88.048 164.087L57.327 142.335V143.535C57.3267 144.352 57.5225 145.156 57.8979 145.881C58.2732 146.606 58.8172 147.231 59.484 147.702L95.984 173.547C97.5053 174.621 99.3216 175.199 101.184 175.201H176.297C176.781 175.201 177.26 175.106 177.708 174.921C178.155 174.736 178.561 174.465 178.904 174.122C179.246 173.78 179.517 173.374 179.703 172.927C179.888 172.479 179.983 172 179.983 171.516V171.362"></path><path id="Vector_67" stroke="#313553" stroke-linecap="round" stroke-linejoin="round" stroke-width=".698" d="M138.112 141.714L179.978 171.359H98.318"></path><path id="Vector_68" stroke="#313553" stroke-linecap="round" stroke-linejoin="round" stroke-width=".698" d="M131.851 74.756H183.116"></path><path id="Vector_69" stroke="#313553" stroke-linecap="round" stroke-linejoin="round" stroke-width=".698" d="M140.925 86.272H183.116"></path><path id="Vector_70" stroke="#313553" stroke-linecap="round" stroke-linejoin="round" stroke-width=".698" d="M140.925 97.788H183.116"></path><path id="Vector_71" stroke="#313553" stroke-linecap="round" stroke-linejoin="round" stroke-width=".698" d="M34.759 127.696H51.733"></path><path id="Vector_72" stroke="#313553" stroke-linecap="round" stroke-linejoin="round" stroke-width=".698" d="M142.942 127.696H166.895"></path><path id="Vector_73" stroke="#313553" stroke-linecap="round" stroke-linejoin="round" stroke-width=".698" d="M88.048 164.087L98.318 171.359V174.643"></path><path id="Vector_74" stroke="#313553" stroke-linecap="round" stroke-linejoin="round" stroke-width=".698" d="M117.512 168.568L109.566 162.942H141.438"></path><path id="Vector_75" stroke="#313553" stroke-linecap="round" stroke-linejoin="round" stroke-width=".698" d="M141.518 162.942L149.464 168.568H117.592"></path><path id="Vector_76" stroke="#313553" stroke-linecap="round" stroke-linejoin="round" stroke-width=".698" d="M157.473 160.206H135.508H91.1681L76.1271 149.555L70.3831 145.486H94.8111H136.688L151.02 155.638L157.473 160.206Z"></path><path id="Vector_77" stroke="#313553" stroke-linecap="round" stroke-linejoin="round" stroke-width=".698" d="M76.127 149.555H100.555H133.432"></path><path id="Vector_78" stroke="#313553" stroke-linecap="round" stroke-linejoin="round" stroke-width=".698" d="M93.576 155.837H129.52H150.881"></path><path id="Vector_79" stroke="#313553" stroke-linecap="round" stroke-linejoin="round" stroke-width=".698" d="M94.811 145.486L100.555 149.555L106.543 153.796"></path><path id="Vector_80" stroke="#313553" stroke-linecap="round" stroke-linejoin="round" stroke-width=".698" d="M123.776 151.768L129.52 155.837L135.508 160.077"></path><path id="Vector_81" stroke="#313553" stroke-linecap="round" stroke-linejoin="round" stroke-width=".698" d="M105.57 115.4C106.523 115.4 107.466 115.588 108.346 115.953C109.226 116.317 110.025 116.852 110.699 117.525C111.372 118.199 111.906 118.999 112.271 119.879C112.635 120.759 112.822 121.702 112.822 122.655C112.824 122.678 112.824 122.702 112.822 122.725C112.822 124.648 112.058 126.492 110.698 127.852C109.339 129.211 107.495 129.975 105.572 129.975C103.649 129.975 101.805 129.211 100.445 127.852C99.0858 126.492 98.3219 124.648 98.3219 122.725C98.3199 122.702 98.3199 122.678 98.3219 122.655C98.3214 120.732 99.0847 118.887 100.444 117.527C101.803 116.166 103.647 115.401 105.57 115.4V115.4Z"></path><path id="Vector_82" stroke="#313553" stroke-linecap="round" stroke-linejoin="round" stroke-width=".698" d="M105.57 110.802V115.401V122.726V129.908V133.953"></path><path id="Vector_83" stroke="#313553" stroke-linecap="round" stroke-linejoin="round" stroke-width=".698" d="M117.145 122.726H112.818H105.57H98.322H93.994"></path><path id="Vector_84" stroke="#313553" stroke-linecap="round" stroke-linejoin="round" stroke-width=".698" d="M79.17 55.677C79.2145 53.7837 79.9979 51.9829 81.3527 50.6595C82.7075 49.3362 84.5262 48.5953 86.42 48.5953C88.3139 48.5953 90.1326 49.3362 91.4874 50.6595C92.8422 51.9829 93.6256 53.7837 93.67 55.677C93.6715 55.7017 93.6715 55.7264 93.67 55.751C93.6525 57.4595 93.0325 59.1069 91.9192 60.4029C90.8059 61.6989 89.2709 62.5603 87.5846 62.8352C85.8984 63.1102 84.1692 62.781 82.7019 61.9058C81.2346 61.0305 80.1233 59.6654 79.564 58.051"></path><path id="Vector_85" stroke="#313553" stroke-linecap="round" stroke-linejoin="round" stroke-width=".698" d="M86.422 43.826V48.426V55.751V62.9291V66.977"></path><path id="Vector_86" stroke="#313553" stroke-linecap="round" stroke-linejoin="round" stroke-width=".698" d="M79.5289 55.751H79.1699H74.8459"></path><path id="Vector_87" stroke="#313553" stroke-linecap="round" stroke-linejoin="round" stroke-width=".698" d="M97.9971 55.751H93.6701H86.4221H81.951"></path><path id="Vector_88" stroke="#313553" stroke-linecap="round" stroke-linejoin="round" stroke-width=".698" d="M78.974 94.103V98.79L90.452 97.443L104.118 95.838V101.812V104.251L101.703 103.047L90.452 97.443L81.602 93.032L78.974 91.723V94.103Z"></path><path id="Vector_89" stroke="#313553" stroke-linecap="round" stroke-linejoin="round" stroke-width=".698" d="M78.974 94.1C78.974 94.1 81.089 94.624 81.602 93.029"></path><path id="Vector_90" stroke="#313553" stroke-linecap="round" stroke-linejoin="round" stroke-width=".698" d="M101.7 103.047C101.949 102.638 102.306 102.305 102.733 102.087C103.159 101.869 103.638 101.774 104.115 101.812"></path><path id="Vector_91" stroke="#313553" stroke-linecap="round" stroke-linejoin="round" stroke-width=".698" d="M52.6689 36.051V40.741L64.1499 39.391L77.8119 37.785V43.76V46.199L75.3969 44.995L64.1499 39.391L55.2959 34.98L52.6689 33.671V36.051Z"></path><path id="Vector_92" stroke="#313553" stroke-linecap="round" stroke-linejoin="round" stroke-width=".698" d="M52.6689 36.051C52.6689 36.051 54.7869 36.574 55.2959 34.98"></path><path id="Vector_93" stroke="#313553" stroke-linecap="round" stroke-linejoin="round" stroke-width=".698" d="M75.4 45C75.6487 44.5907 76.0062 44.2585 76.4326 44.0404C76.859 43.8224 77.3376 43.727 77.815 43.765"></path><path id="Vector_94" stroke="#313553" stroke-linecap="round" stroke-linejoin="round" stroke-width=".698" d="M93.98 119.31H85.472V115.82V110.802H90.491H93.98V119.31Z"></path><path id="Vector_95" stroke="#313553" stroke-linecap="round" stroke-linejoin="round" stroke-width=".698" d="M90.491 115.82H85.472H81.983V107.312H90.491V110.802V115.82Z"></path><path id="Vector_96" stroke="#313553" stroke-linecap="round" stroke-linejoin="round" stroke-width=".698" d="M81.983 107.312L85.472 110.802"></path><path id="Vector_97" stroke="#313553" stroke-linecap="round" stroke-linejoin="round" stroke-width=".698" d="M90.491 107.312L93.98 110.802"></path><path id="Vector_98" stroke="#313553" stroke-linecap="round" stroke-linejoin="round" stroke-width=".698" d="M90.491 115.82L93.98 119.31"></path><path id="Vector_99" stroke="#313553" stroke-linecap="round" stroke-linejoin="round" stroke-width=".698" d="M81.983 115.82L85.472 119.31"></path><path id="Vector_100" stroke="#313553" stroke-linecap="round" stroke-linejoin="round" stroke-width=".698" d="M62.579 64.451H54.071V60.961V55.943H59.09H62.579V64.451Z"></path><path id="Vector_101" stroke="#313553" stroke-linecap="round" stroke-linejoin="round" stroke-width=".698" d="M59.09 60.961H54.071H50.582V52.453H59.09V55.943V60.961Z"></path><path id="Vector_102" stroke="#313553" stroke-linecap="round" stroke-linejoin="round" stroke-width=".698" d="M50.582 52.453L54.071 55.943"></path><path id="Vector_103" stroke="#313553" stroke-linecap="round" stroke-linejoin="round" stroke-width=".698" d="M59.09 52.453L62.579 55.943"></path><path id="Vector_104" stroke="#313553" stroke-linecap="round" stroke-linejoin="round" stroke-width=".698" d="M59.09 60.9609L62.579 64.4509"></path><path id="Vector_105" stroke="#313553" stroke-linecap="round" stroke-linejoin="round" stroke-width=".698" d="M50.582 60.9609L54.071 64.4509"></path><path id="Vector_106" stroke="#313553" stroke-linecap="round" stroke-linejoin="round" stroke-width=".698" d="M81.6341 130.194C81.6341 130.194 80.2061 130.774 80.1341 131.786C80.0621 132.798 81.3661 132.801 81.9451 132.222C81.9664 131.531 81.8937 130.841 81.729 130.17C81.6696 129.939 81.5841 129.715 81.4741 129.503C80.9331 128.491 80.026 128.634 79.701 129.322"></path><path id="Vector_107" stroke="#313553" stroke-linecap="round" stroke-linejoin="round" stroke-width=".698" d="M109.245 88.3C109.245 88.3 107.817 88.879 107.745 89.895C107.673 90.911 108.977 90.911 109.556 90.331C109.577 89.6394 109.505 88.9481 109.34 88.276C109.281 88.0457 109.196 87.8232 109.085 87.613C108.544 86.597 107.637 86.744 107.312 87.431"></path><path id="Vector_108" stroke="#313553" stroke-linecap="round" stroke-linejoin="round" stroke-width=".698" d="M83.7271 129.908H85.4721"></path><path id="Vector_109" stroke="#313553" stroke-linecap="round" stroke-linejoin="round" stroke-width=".698" d="M83.7271 131.304H85.4721"></path><path id="Vector_110" stroke="#313553" stroke-linecap="round" stroke-linejoin="round" stroke-width=".698" d="M87.1 129.472C87.187 128.372 89.812 128.352 89.306 130.257C88.96 131.552 87.152 132.613 87.152 132.613H90.112"></path><path id="Vector_111" stroke="#313553" stroke-linecap="round" stroke-linejoin="round" stroke-width=".698" d="M99.17 87.521C99.26 86.426 101.885 86.401 101.37 88.303C101.025 89.603 99.22 90.662 99.22 90.662H102.176"></path><path id="Vector_112" stroke="#313553" stroke-linecap="round" stroke-linejoin="round" stroke-width=".698" d="M93.1219 86.1119C93.1809 85.3749 94.9439 85.3609 94.6019 86.6389C94.3709 87.5039 93.16 88.2189 93.16 88.2189H95.1419"></path><path id="Vector_113" stroke="#313553" stroke-linecap="round" stroke-linejoin="round" stroke-width=".698" d="M92.04 131.974C93.24 133.363 95.073 132.487 94.451 131.074C93.829 129.661 92.152 130.672 92.04 131.974Z"></path><path id="Vector_114" stroke="#313553" stroke-linecap="round" stroke-linejoin="round" stroke-width=".698" d="M93.143 128.139C92.424 128.903 90.843 130.582 92.043 131.974"></path><path id="Vector_115" stroke="#313553" stroke-linecap="round" stroke-linejoin="round" stroke-width=".698" d="M104.526 87.235V88.349V89.462"></path><path id="Vector_116" stroke="#313553" stroke-linecap="round" stroke-linejoin="round" stroke-width=".698" d="M103.284 88.349H104.526H105.678"></path><path id="Vector_117" stroke="#313553" stroke-linecap="round" stroke-linejoin="round" stroke-width=".698" d="M98.185 85.574C97.156 85.888 96.301 87.846 96.622 89.224C96.7076 89.8116 96.944 90.3669 97.3082 90.8359C97.6724 91.3049 98.1519 91.6715 98.7 91.9"></path><path id="Vector_118" stroke="#313553" stroke-linecap="round" stroke-linejoin="round" stroke-width=".698" d="M110.33 85.574C111.359 85.888 112.214 87.846 111.893 89.224C111.807 89.8108 111.57 90.3653 111.206 90.8338C110.843 91.3023 110.364 91.6689 109.817 91.898"></path><path id="Vector_119" stroke="#313553" stroke-linecap="round" stroke-linejoin="round" stroke-width=".698" d="M41.864 30.464V69.033"></path><path id="Vector_120" stroke="#313553" stroke-linecap="round" stroke-linejoin="round" stroke-width=".698" d="M43.958 30.464V69.731"></path><path id="Vector_121" stroke="#313553" stroke-linecap="round" stroke-linejoin="round" stroke-width=".698" d="M18.479 84.3211V86.0871L8.03801 85.6721L6.89001 85.6271C6.89001 85.6271 6.96702 77.4881 9.11601 73.8071C9.91951 72.5909 11.0426 71.6197 12.362 71.0001C14.2947 70.0501 16.3553 69.3862 18.479 69.0291C21.5548 70.8788 25.0998 71.7998 28.687 71.6811C34.407 71.3741 36.528 69.0291 36.528 69.0291C38.2949 68.8309 40.0809 68.8837 41.833 69.1861C42.5488 69.3155 43.2459 69.5321 43.909 69.8311C44.4145 70.0577 44.8801 70.3643 45.288 70.7391C47.2773 72.8035 49.0221 75.0902 50.488 77.5541L49.424 78.2941L44.9 81.4391"></path><path id="Vector_122" stroke="#313553" stroke-linecap="round" stroke-linejoin="round" stroke-width=".698" d="M8.03796 85.672V96.009"></path><path id="Vector_123" stroke="#313553" stroke-linecap="round" stroke-linejoin="round" stroke-width=".698" d="M18.479 86.087L18.172 96.009"></path><path id="Vector_124" stroke="#313553" stroke-linecap="round" stroke-linejoin="round" stroke-width=".698" d="M43.361 79.261C43.361 79.261 44.08 80.155 44.9 81.439C45.972 83.124 47.211 85.48 47.214 87.368C47.191 88.9938 46.8485 90.5993 46.206 92.093C45.6404 93.4598 44.8835 94.7392 43.958 95.893"></path><path id="Vector_125" stroke="#313553" stroke-linecap="round" stroke-linejoin="round" stroke-width=".698" d="M35.436 85.672C35.436 85.672 35.701 90.62 33.855 92.843"></path><path id="Vector_126" stroke="#313553" stroke-linecap="round" stroke-linejoin="round" stroke-width=".698" d="M34.77 55.458C34.4526 55.32 34.1149 55.2349 33.77 55.206C33.4459 55.1378 33.1093 55.1585 32.796 55.266"></path><path id="Vector_127" stroke="#313553" stroke-linecap="round" stroke-linejoin="round" stroke-width=".698" d="M27.431 55.1C27.8212 55.0036 28.2174 54.9334 28.617 54.89C28.9425 54.8269 29.2789 54.8525 29.591 54.964"></path><path id="Vector_128" stroke="#313553" stroke-linecap="round" stroke-linejoin="round" stroke-width=".698" d="M32.341 54.124C32.2065 54.4077 32.1382 54.7181 32.1411 55.032C32.1441 55.3459 32.2182 55.655 32.358 55.936C32.564 56.627 33.224 57.363 33.108 58.016C32.992 58.669 31.789 58.93 31.084 58.738"></path><path id="Vector_129" stroke="#313553" stroke-linecap="round" stroke-linejoin="round" stroke-width=".698" d="M28.879 65.138C27.8203 64.7953 26.8166 64.3016 25.899 63.672"></path><path id="Vector_130" stroke="#313553" stroke-linecap="round" stroke-linejoin="round" stroke-width=".698" d="M35.5371 59.715C35.2271 60.375 34.8991 60.891 34.7031 61.366C34.3686 62.507 33.8603 63.5897 33.1961 64.576C32.9989 64.8092 32.7619 65.0056 32.4961 65.156C32.2461 65.2977 31.9716 65.391 31.6871 65.431C30.9053 65.5222 30.1134 65.4666 29.3521 65.267C29.2051 65.232 29.0521 65.194 28.9091 65.149"></path><path id="Vector_131" stroke="#313553" stroke-linecap="round" stroke-linejoin="round" stroke-width=".698" d="M35.942 54.17C35.851 54.432 35.771 54.606 35.771 54.606C36.2011 55.528 36.3609 56.5529 36.232 57.562C36.0981 58.3083 35.8626 59.0327 35.532 59.715"></path><path id="Vector_132" stroke="#313553" stroke-linecap="round" stroke-linejoin="round" stroke-width=".698" d="M26.551 53.849C27.4305 53.2998 28.4636 53.0487 29.497 53.133C30.627 53.325 30.69 53.716 30.697 53.733"></path><path id="Vector_133" stroke="#313553" stroke-linecap="round" stroke-linejoin="round" stroke-width=".698" d="M35.5721 53.245C35.2407 53.213 34.9063 53.2329 34.5811 53.304C34.0958 53.3963 33.6186 53.527 33.1541 53.695"></path><path id="Vector_134" stroke="#313553" stroke-linecap="round" stroke-linejoin="round" stroke-width=".698" d="M34.065 60.0541C33.9543 60.1334 33.8364 60.2023 33.713 60.2601C33.2297 60.4625 32.712 60.5705 32.188 60.5781C31.0955 60.5312 30.0116 60.3635 28.956 60.0781C28.729 60.0221 28.572 59.9781 28.52 59.9661"></path><path id="Vector_135" stroke="#313553" stroke-linecap="round" stroke-linejoin="round" stroke-width=".698" d="M28.5 59.963C28.5 59.963 28.559 60.012 28.654 60.095C29.1534 60.5223 29.6802 60.9165 30.231 61.275C30.5264 61.4915 30.8677 61.6369 31.2285 61.6999C31.5893 61.7629 31.9597 61.7417 32.311 61.638C32.9686 61.1976 33.5596 60.6652 34.066 60.057"></path><path id="Vector_136" stroke="#313553" stroke-linecap="round" stroke-linejoin="round" stroke-width=".698" d="M32.533 65.2109L32.599 66.4329L32.609 66.6249L32.672 67.8179"></path><path id="Vector_137" stroke="#313553" stroke-linecap="round" stroke-linejoin="round" stroke-width=".698" d="M36.528 69.033L32.672 67.818"></path><path id="Vector_138" stroke="#313553" stroke-linecap="round" stroke-linejoin="round" stroke-width=".698" d="M23.456 63.6899L23.337 67.0259L18.479 69.0329"></path><path id="Vector_139" stroke="#313553" stroke-linecap="round" stroke-linejoin="round" stroke-width=".698" d="M21.215 55.608C21.215 55.608 19.802 54.17 18.923 55.137C18.8076 55.2669 18.7132 55.414 18.643 55.573C17.666 57.667 19.753 59.966 21.343 60.539"></path><path id="Vector_140" stroke="#313553" stroke-linecap="round" stroke-linejoin="round" stroke-width=".698" d="M18.923 55.137V55.143"></path><path id="Vector_141" stroke="#313553" stroke-linecap="round" stroke-linejoin="round" stroke-width=".698" d="M24.3 62.884C24.5053 62.5861 24.6294 62.2397 24.6599 61.8791C24.6904 61.5186 24.6263 61.1563 24.474 60.828C24.3725 60.5989 24.2239 60.3938 24.0377 60.2261C23.8515 60.0584 23.632 59.9319 23.3936 59.8549C23.1551 59.7778 22.9031 59.752 22.654 59.7791C22.4049 59.8062 22.1643 59.8856 21.948 60.012C21.699 60.1225 21.4897 60.3064 21.348 60.539C21.2023 60.7763 21.1117 61.0431 21.0826 61.32C21.0535 61.5969 21.0868 61.8767 21.18 62.139C21.3101 62.5776 21.5907 62.9563 21.9724 63.2085C22.3541 63.4607 22.8125 63.5703 23.267 63.518C23.281 63.518 23.295 63.518 23.309 63.518C23.5098 63.489 23.7021 63.4174 23.873 63.3081C24.0439 63.1987 24.1894 63.0542 24.3 62.884V62.884Z"></path><path id="Vector_142" stroke="#313553" stroke-linecap="round" stroke-linejoin="round" stroke-width=".698" d="M34.1479 63.2329C34.5334 63.4243 34.9679 63.4941 35.394 63.4329C36.594 63.2829 37.226 61.6329 36.658 60.5009C36.4886 60.1411 36.221 59.8364 35.886 59.6219"></path><path id="Vector_143" stroke="#313553" stroke-linecap="round" stroke-linejoin="round" stroke-width=".698" d="M28.649 60.092C28.649 60.092 28.764 60.085 28.949 60.078C29.717 60.033 31.713 59.935 32.065 59.966C32.502 60.001 33.706 60.266 33.706 60.266"></path><path id="Vector_144" stroke="#313553" stroke-linecap="round" stroke-linejoin="round" stroke-width=".698" d="M28.879 65.1379L28.914 65.1489C29.221 65.2639 31.531 66.1119 32.581 66.4329"></path><path id="Vector_145" stroke="#313553" stroke-linecap="round" stroke-linejoin="round" stroke-width=".698" d="M26.6451 48.844C26.6311 48.722 26.6001 47.8669 28.7451 48.2159C30.3166 48.5573 31.7837 49.2694 33.0241 50.2929L33.0341 50.303"></path><path id="Vector_146" stroke="#313553" stroke-linecap="round" stroke-linejoin="round" stroke-width=".698" d="M22.426 45.822C22.426 45.822 26.153 45.609 26.645 48.844C26.6469 48.8498 26.6469 48.8561 26.645 48.862"></path><path id="Vector_147" stroke="#313553" stroke-linecap="round" stroke-linejoin="round" stroke-width=".698" d="M21.3 55.587C25.9 57.321 26.419 50.809 26.646 48.862C26.646 48.862 31.146 49.35 32.606 50.069C32.746 50.139 32.886 50.216 33.022 50.293C34.4502 51.1321 35.5056 52.4832 35.974 54.072C35.974 54.072 37.761 52.237 35.423 47.472C34.5591 45.8401 33.1958 44.5272 31.5324 43.7255C29.869 42.9238 27.9928 42.6752 26.178 43.016C25.9926 43.0567 25.8006 43.103 25.602 43.155C23.8669 43.5471 22.2447 44.3315 20.86 45.448C18.127 48.529 18.34 52.263 18.166 52.773C16.508 57.662 10.548 65.973 12.359 71.003"></path><path id="Vector_148" stroke="#313553" stroke-linecap="round" stroke-linejoin="round" stroke-width=".698" d="M70.048 66.105C70.6757 65.8666 71.2702 65.5486 71.817 65.159C71.975 65.0374 72.1087 64.8871 72.211 64.716C72.2726 64.622 72.3114 64.515 72.3244 64.4034C72.3375 64.2918 72.3244 64.1787 72.2861 64.0731C72.2479 63.9674 72.1856 63.8721 72.1042 63.7947C72.0228 63.7173 71.9245 63.6599 71.817 63.627C71.6625 63.5843 71.502 63.5678 71.342 63.578C69.8658 63.8166 68.4398 64.3003 67.123 65.009C66.7929 65.1717 66.5156 65.4244 66.323 65.738L63.332 71.438L60.109 78.26"></path><path id="Vector_149" stroke="#313553" stroke-linecap="round" stroke-linejoin="round" stroke-width=".698" d="M68.844 66.559C68.844 66.559 69.119 66.468 69.51 66.318C69.671 66.258 69.852 66.185 70.044 66.108"></path><path id="Vector_150" stroke="#313553" stroke-linecap="round" stroke-linejoin="round" stroke-width=".698" d="M49.427 78.298L54.152 84.82"></path><path id="Vector_151" stroke="#313553" stroke-linecap="round" stroke-linejoin="round" stroke-width=".698" d="M46.2061 92.093L49.4271 95.893"></path><path id="Vector_152" stroke="#313553" stroke-linecap="round" stroke-linejoin="round" stroke-width=".698" d="M67.828 78.26L69.328 75.213C70.1618 75.1896 70.9797 74.9798 71.7219 74.5992C72.464 74.2185 73.1116 73.6765 73.617 73.013C75.724 70.626 76.223 68.961 75.337 68.351C74.451 67.741 72.615 68.574 72.088 69.572C71.561 70.57 71.966 71.931 74.524 70.019"></path><path id="Vector_153" stroke="#313553" stroke-linecap="round" stroke-linejoin="round" stroke-width=".698" d="M75.3379 68.349C75.3379 68.349 76.4999 67.295 76.1229 66.249C75.7459 65.203 73.7469 65.708 72.4939 66.459C71.948 66.7898 71.4707 67.2223 71.0879 67.733C70.5289 68.518 70.4879 69.352 72.0879 69.568"></path><path id="Vector_154" stroke="#313553" stroke-linecap="round" stroke-linejoin="round" stroke-width=".698" d="M76.1231 66.251C76.1231 66.251 76.2911 65.1911 74.8671 64.3841C73.9141 63.8431 72.326 64.733 72.326 64.733"></path><path id="Vector_155" stroke="#313553" stroke-linecap="round" stroke-linejoin="round" stroke-width=".698" d="M70.048 66.105C69.999 66.182 69.298 67.25 70.477 67.543C70.6189 67.5791 70.7639 67.6012 70.91 67.609"></path><path id="Vector_156" stroke="#313553" stroke-linecap="round" stroke-linejoin="round" stroke-width=".698" d="M75.286 62.5731L79.564 58.0501L81.839 55.6501L84.039 53.3261C84.1793 53.175 84.2538 52.9744 84.2462 52.7684C84.2386 52.5624 84.1495 52.3679 83.9985 52.2276C83.8474 52.0873 83.6468 52.0127 83.4408 52.0203C83.2348 52.0279 83.0403 52.117 82.9 52.2681L79.6 55.8101L73.793 62.0391"></path><path id="Vector_157" stroke="#313553" stroke-linecap="round" stroke-linejoin="round" stroke-width=".698" d="M69.538 66.394L64.555 71.664C64.4808 71.7444 64.4245 71.8396 64.3897 71.9434C64.355 72.0471 64.3427 72.157 64.3536 72.2659C64.3644 72.3747 64.3982 72.4801 64.4528 72.5749C64.5073 72.6697 64.5813 72.7519 64.67 72.816C64.8034 72.9112 64.9631 72.9622 65.127 72.962C65.2338 72.962 65.3394 72.94 65.4373 72.8973C65.5352 72.8547 65.6233 72.7923 65.696 72.714L70.348 67.794"></path><path id="Vector_158" stroke="#313553" stroke-linecap="round" stroke-linejoin="round" stroke-width=".698" d="M74.867 64.384C74.867 64.384 75.687 63.362 75.034 62.608C74.9362 62.5005 74.8233 62.4075 74.699 62.332C74.4256 62.1594 74.112 62.0608 73.789 62.046C73.2858 62.0757 72.798 62.2312 72.3705 62.4983C71.9429 62.7655 71.5893 63.1357 71.342 63.575"></path></g></svg>