<svg xmlns="http://www.w3.org/2000/svg" fill="none" viewBox="0 0 200 200"><g id="coffee-tea-london-200-ico_jsaDLn7NPKMavBAd"><path id="Vector" fill="#313553" d="M129.461 57.261C129.413 57.265 129.365 57.265 129.317 57.261C129.365 57.265 129.413 57.265 129.461 57.261V57.261Z"></path><path id="Vector_2" fill="#313553" d="M129.635 57.243C129.665 57.239 129.694 57.232 129.723 57.222C129.694 57.232 129.665 57.239 129.635 57.243Z"></path><path id="Vector_3" fill="#313553" d="M129.2 57.222C129.228 57.2321 129.257 57.2391 129.287 57.243C129.257 57.2391 129.228 57.2321 129.2 57.222Z"></path><path id="Vector_4" fill="#FFE8BB" d="M129.6 30.536C134.696 30.5354 139.679 32.0462 143.917 34.8773C148.154 37.7084 151.457 41.7326 153.408 46.441C155.359 51.1494 155.869 56.3306 154.875 61.3292C153.881 66.3278 151.427 70.9193 147.823 74.523C144.219 78.1268 139.628 80.5809 134.629 81.5751C129.631 82.5692 124.449 82.0587 119.741 80.108C115.033 78.1574 111.008 74.8543 108.177 70.6165C105.346 66.3787 103.835 61.3965 103.836 56.3V56.3C103.837 49.4671 106.551 42.9143 111.383 38.0827C116.214 33.2511 122.767 30.5365 129.6 30.536V30.536ZM151.2 56.303C151.201 52.0294 149.935 47.8513 147.562 44.2972C145.189 40.7431 141.815 37.9726 137.867 36.336C133.919 34.6995 129.575 34.2704 125.383 35.1031C121.191 35.9358 117.341 37.9928 114.318 41.014C111.295 44.0352 109.237 47.8849 108.402 52.0763C107.567 56.2676 107.994 60.6123 109.629 64.561C111.264 68.5096 114.033 71.8848 117.586 74.2596C121.139 76.6345 125.316 77.9024 129.59 77.903H129.596C132.434 77.9043 135.244 77.3465 137.866 76.2614C140.488 75.1763 142.87 73.5852 144.877 71.579C146.884 69.5728 148.476 67.1908 149.562 64.5692C150.648 61.9476 151.206 59.1377 151.206 56.3L151.2 56.303Z"></path><path id="Vector_5" fill="#313553" d="M129.461 57.261C129.507 57.265 129.553 57.265 129.599 57.261C129.553 57.265 129.507 57.265 129.461 57.261V57.261Z"></path><path id="Vector_6" fill="#313553" d="M130.035 57.062L129.903 57.15C129.949 57.1234 129.993 57.094 130.035 57.062V57.062Z"></path><path id="Vector_7" fill="#313553" d="M128.557 56.5129C128.561 56.5426 128.568 56.5718 128.578 56.5999C128.568 56.5717 128.561 56.5426 128.557 56.5129V56.5129Z"></path><path id="Vector_8" fill="#313553" d="M129.723 57.2221C129.779 57.2049 129.835 57.1839 129.888 57.1591C129.835 57.185 129.78 57.2061 129.723 57.2221V57.2221Z"></path><path id="Vector_9" fill="#313553" d="M128.539 56.339C128.534 56.3849 128.534 56.4311 128.539 56.477C128.535 56.4311 128.535 56.3849 128.539 56.339Z"></path><path id="Vector_10" fill="#313553" d="M130.113 56.99L130.035 57.063C129.993 57.0943 129.949 57.1233 129.903 57.15H129.888C129.835 57.1748 129.779 57.1958 129.723 57.213C129.694 57.2229 129.665 57.2299 129.635 57.234H129.6C129.554 57.238 129.508 57.238 129.462 57.234C129.414 57.238 129.366 57.238 129.318 57.234H129.288C129.258 57.2301 129.229 57.223 129.201 57.213C129.053 57.1704 128.918 57.0905 128.81 56.981C128.743 56.9144 128.687 56.8387 128.642 56.756C128.617 56.7026 128.596 56.6475 128.579 56.591C128.569 56.5628 128.562 56.5336 128.558 56.504C128.557 56.492 128.557 56.48 128.558 56.468C128.553 56.4221 128.553 56.3758 128.558 56.33C128.558 56.2089 128.582 56.089 128.628 55.9771C128.674 55.8652 128.742 55.7636 128.828 55.678L130.4 54.1V56.33C130.4 56.4538 130.375 56.5763 130.325 56.6899C130.276 56.8035 130.204 56.9056 130.113 56.99V56.99Z"></path><path id="Vector_11" fill="#313553" d="M130.383 39.944V53.737C129.774 53.5562 129.12 53.5977 128.539 53.854V39.944C128.539 39.6994 128.636 39.4649 128.809 39.292C128.982 39.1191 129.216 39.022 129.461 39.022V39.022C129.582 39.0218 129.702 39.0456 129.814 39.0919C129.926 39.1382 130.028 39.2061 130.113 39.2917C130.199 39.3774 130.267 39.4791 130.313 39.591C130.359 39.7029 130.383 39.8229 130.383 39.944Z"></path><path id="Vector_12" fill="#313553" d="M130.383 53.737V54.113L128.809 55.687C128.723 55.7726 128.655 55.8742 128.609 55.9861C128.563 56.098 128.539 56.2179 128.539 56.339V53.854C129.12 53.5977 129.774 53.5562 130.383 53.737V53.737Z"></path><path id="Vector_13" fill="#313553" d="M128.578 56.6C128.595 56.6565 128.616 56.7116 128.641 56.765C128.616 56.7116 128.595 56.6565 128.578 56.6V56.6Z"></path><path id="Vector_14" fill="#313553" d="M137.289 49.817L132.011 55.1C131.724 54.5343 131.247 54.0883 130.663 53.841L135.982 48.519C136.066 48.4257 136.167 48.3503 136.281 48.2975C136.395 48.2447 136.518 48.2156 136.643 48.2119C136.768 48.2083 136.893 48.2302 137.009 48.2763C137.126 48.3224 137.232 48.3918 137.321 48.4801C137.41 48.5685 137.479 48.674 137.526 48.7903C137.573 48.9066 137.595 49.0311 137.593 49.1564C137.59 49.2817 137.561 49.405 137.509 49.519C137.457 49.6329 137.382 49.735 137.289 49.819V49.817Z"></path><path id="Vector_15" fill="#313553" d="M130.663 53.8359C131.247 54.0832 131.724 54.5292 132.011 55.0949L130.111 56.9949C130.197 56.9102 130.266 56.8088 130.312 56.697C130.359 56.5851 130.382 56.465 130.381 56.3439V54.1129L130.658 53.8359H130.663Z"></path><path id="Vector_16" fill="#edac4b" d="M132.3 56.2999C132.301 56.7828 132.171 57.2569 131.924 57.6721C131.677 58.0873 131.323 58.4281 130.899 58.6585C130.474 58.8889 129.996 59.0004 129.513 58.9811C129.031 58.9619 128.562 58.8126 128.158 58.5491C127.753 58.2856 127.427 57.9177 127.214 57.4842C127.001 57.0507 126.91 56.5677 126.949 56.0864C126.988 55.6051 127.156 55.1433 127.436 54.7498C127.716 54.3563 128.097 54.0457 128.539 53.851V56.3359C128.535 56.3819 128.535 56.428 128.539 56.4739C128.538 56.4859 128.538 56.498 128.539 56.5099C128.543 56.5396 128.55 56.5687 128.56 56.597C128.577 56.6535 128.598 56.7086 128.623 56.762C128.668 56.8446 128.724 56.9204 128.791 56.9869C128.899 57.0965 129.034 57.1764 129.182 57.219C129.21 57.229 129.239 57.236 129.269 57.24H129.299C129.347 57.2439 129.395 57.2439 129.443 57.24C129.489 57.2439 129.535 57.2439 129.581 57.24H129.617C129.647 57.2359 129.676 57.2289 129.705 57.219C129.762 57.203 129.817 57.1819 129.87 57.1559H129.885L130.017 57.069L130.1 57L132 55.0999C132.193 55.4709 132.295 55.882 132.3 56.2999Z"></path><path id="Vector_17" fill="#313553" d="M59 102.826C59.4363 102.388 59.955 102.041 60.5262 101.804C61.0974 101.567 61.7097 101.446 62.328 101.447C63.5022 101.47 64.6302 101.908 65.512 102.684L65.659 102.826C66.0968 103.263 66.4439 103.782 66.6806 104.354C66.9172 104.926 67.0387 105.538 67.038 106.157C67.0376 106.701 66.9443 107.24 66.762 107.752C66.2178 107.259 65.6451 106.799 65.047 106.373C64.822 106.215 64.558 106.122 64.2837 106.104C64.0095 106.087 63.7357 106.144 63.4921 106.271C63.2484 106.399 63.0444 106.59 62.9023 106.825C62.7601 107.061 62.6853 107.33 62.686 107.605H62.14C62.1421 107.257 62.023 106.919 61.8033 106.649C61.5835 106.379 61.2767 106.194 60.9355 106.126C60.5942 106.057 60.2397 106.109 59.9328 106.273C59.6258 106.437 59.3855 106.703 59.253 107.025C59.232 107.073 59.13 107.325 58.98 107.713L58.749 107.605V104.219H58.037C58.2703 103.7 58.5967 103.228 59 102.826V102.826Z"></path><path id="Vector_18" fill="#313553" d="M66.772 107.752C66.4209 108.725 65.7587 109.555 64.888 110.113C64.3996 109.654 63.8819 109.228 63.338 108.836C63.0065 108.615 62.7764 108.271 62.6984 107.88C62.6204 107.489 62.7008 107.084 62.922 106.752C63.1432 106.42 63.487 106.19 63.8778 106.112C64.2687 106.034 64.6745 106.115 65.006 106.336L65.057 106.371C65.6552 106.797 66.2278 107.259 66.772 107.752V107.752Z"></path><path id="Vector_19" fill="#edac4b" d="M70.938 117.421C71.2424 117.847 71.4428 118.338 71.523 118.856C71.6032 119.373 71.5611 119.902 71.4 120.4C71.2383 120.893 70.9451 121.332 70.552 121.67C70.1573 122.008 69.6758 122.229 69.162 122.307L69.015 122.331C68.687 122.388 68.372 122.478 67.972 122.584L68.137 122.322C69.2462 120.741 70.1319 119.015 70.769 117.192L70.938 117.421Z"></path><path id="Vector_20" fill="#313553" d="M66.982 111.915L70.773 117.193C70.1359 119.016 69.2502 120.742 68.141 122.323L67.976 122.585C66.9687 122.851 65.9452 123.051 64.912 123.185C64.6467 123.224 64.3773 123.224 64.112 123.185C64.569 122.353 65.089 121.527 65.612 120.713C66.79 118.851 68.012 116.928 68.051 115.424C67.9798 114.206 67.5104 113.045 66.715 112.119L66.982 111.915Z"></path><path id="Vector_21" fill="#edac4b" d="M110.781 128.4C110.799 132.942 103.337 137.712 103.337 137.712L103.103 137.745C102.983 136.91 102.835 136.066 102.667 135.237C104.755 133.801 108.48 131.094 108.786 128.328C108.993 126.469 108.804 125.207 107.311 124.663C108.882 124.477 110.768 124.946 110.781 128.4Z"></path><path id="Vector_22" fill="#FFE8BB" d="M186.416 128.688C187.128 131.896 186.792 133.54 185.581 134.215C185.07 134.341 184.545 134.396 184.019 134.378V134.2C185.801 127.358 181.046 128.118 179.814 126.691C178.582 125.264 179.159 122.35 178.614 120.863C178.069 119.376 176.442 119.199 175.583 118.725C174.198 117.959 173.528 116.042 173.501 113.48C173.501 112.297 173.225 111.08 172.459 110.641C170.443 109.491 169.434 113.129 169.395 113.27C168.967 112.388 168.449 111.552 167.848 110.777C167.798 110.54 167.735 110.307 167.659 110.077L167.848 110.014C168.232 108.767 169.248 106.866 170.789 106.271C170.982 106.2 171.184 106.157 171.389 106.145C172.969 106.045 175.189 107.512 175.595 110.774C176.069 114.474 176.795 115.601 177.676 116.018C178.557 116.435 180.176 116.673 180.707 118.157C181.238 119.641 180.647 122.557 181.907 123.984C183.167 125.411 185.7 125.477 186.416 128.688Z"></path><path id="Vector_23" fill="#313553" d="M66.982 111.915L66.703 112.115C66.1539 111.396 65.5425 110.727 64.876 110.115C65.7467 109.557 66.4089 108.727 66.76 107.754C68.586 109.394 71.148 112.29 71.043 115.528C71.0207 116.093 70.9301 116.652 70.773 117.195L66.982 111.915Z"></path><path id="Vector_24" fill="#ffffff" d="M99.955 125.525C99.7996 125.053 99.543 124.62 99.2031 124.258C98.8632 123.895 98.4481 123.611 97.987 123.425C99.5641 122.436 101.3 121.725 103.118 121.325C105.95 120.847 111.637 120.682 112.73 125.461C110.958 121.343 106.506 122.376 105.22 122.821C103.414 123.648 101.694 124.653 100.087 125.821H100.012C100 125.721 99.9811 125.622 99.955 125.525V125.525Z"></path><path id="Vector_25" fill="#edac4b" d="M171.373 106.154C171.168 106.166 170.966 106.209 170.773 106.28C169.229 106.88 168.216 108.78 167.832 110.023L167.643 110.086C167.427 109.423 167.041 108.827 166.524 108.36C166.006 107.892 165.375 107.568 164.693 107.421C164.301 107.31 163.899 107.237 163.493 107.202C163.644 106.63 163.971 106.12 164.427 105.744C164.883 105.367 165.445 105.143 166.035 105.102C167.865 105.108 169.677 105.465 171.373 106.154V106.154Z"></path><path id="Vector_26" fill="#edac4b" d="M51.038 90.1C51.6522 90.1001 52.2603 90.2212 52.8277 90.4564C53.3951 90.6915 53.9106 91.0362 54.3448 91.4705C54.779 91.9049 55.1234 92.4206 55.3583 92.9881C55.5933 93.5556 55.7141 94.1638 55.714 94.778C55.714 94.855 55.714 94.932 55.714 95.009C55.563 98.048 55.383 101.821 55.281 104.224H33.381V101.5L28.326 94.474C28.0308 94.0609 27.8551 93.5745 27.818 93.0682C27.7808 92.5619 27.8838 92.0551 28.1155 91.6034C28.3473 91.1517 28.6989 90.7725 29.1318 90.5073C29.5647 90.2421 30.0623 90.1012 30.57 90.1H51.038Z"></path><path id="Vector_27" fill="#edac4b" d="M65.51 102.684C64.6285 101.908 63.5003 101.47 62.326 101.447C62.4568 98.2133 63.0164 95.0113 63.99 91.925C64.2046 91.3843 64.5768 90.9207 65.0583 90.5944C65.5398 90.2681 66.1083 90.094 66.69 90.095H68.87C69.3788 90.0952 69.8777 90.2357 70.3118 90.501C70.7459 90.7664 71.0985 91.1463 71.3307 91.599C71.5629 92.0517 71.6659 92.5596 71.6282 93.067C71.5905 93.5744 71.4136 94.0616 71.117 94.475L65.51 102.684Z"></path><path id="Vector_28" fill="#313553" d="M150.824 100.819H159.689C159.342 101.848 158.693 102.748 157.825 103.401C156.958 104.054 155.913 104.43 154.828 104.478H146.919C145.834 104.43 144.79 104.054 143.922 103.401C143.055 102.748 142.405 101.848 142.059 100.819H150.824Z"></path><path id="Vector_29" fill="#313553" d="M64.912 123.194C65.9452 123.06 66.9687 122.86 67.976 122.594C66.736 124.561 65.513 126.571 65.676 128.121C65.6971 128.317 65.6793 128.515 65.6237 128.704C65.5681 128.894 65.4758 129.07 65.352 129.223C65.2282 129.377 65.0753 129.504 64.9022 129.599C64.7291 129.693 64.539 129.752 64.343 129.773C64.2887 129.776 64.2343 129.776 64.18 129.773C63.8079 129.775 63.4484 129.639 63.1712 129.391C62.894 129.142 62.7189 128.8 62.68 128.43C62.6045 126.58 63.0992 124.751 64.097 123.191C64.367 123.233 64.6417 123.234 64.912 123.194V123.194Z"></path><path id="Vector_30" fill="#313553" d="M22.291 146.053C22.291 147.684 34.607 149.003 49.827 149.003C56.568 149.003 62.744 148.745 67.527 148.315H67.563C67.3582 152.425 67.6604 156.544 68.463 160.58L68.253 160.634C65.78 161.534 60.037 162.893 49.713 162.893C43.4635 162.909 37.2435 162.036 31.24 160.3C29.8299 159.876 28.5338 159.139 27.449 158.144C23.162 155.209 22.066 150.604 22.066 146.285V146.05L22.291 146.053Z"></path><path id="Vector_31" fill="#313553" d="M33.378 107.605C32.9432 107.584 32.5332 107.396 32.233 107.081C31.9328 106.766 31.7653 106.347 31.7653 105.912C31.7653 105.477 31.9328 105.058 32.233 104.743C32.5332 104.428 32.9432 104.24 33.378 104.219V107.605Z"></path><path id="Vector_32" fill="#edac4b" d="M97.987 123.432C98.4487 123.617 98.8641 123.901 99.2042 124.264C99.5442 124.626 99.8005 125.059 99.955 125.532C99.981 125.631 100 125.731 100.012 125.832C100.447 129.289 93.578 133.9 84.32 136.288C75.062 138.676 66.841 137.961 65.534 134.738C65.4906 134.641 65.4554 134.541 65.429 134.438C64.829 132.138 67.691 129.247 72.449 126.844C75.2004 125.485 78.0883 124.422 81.064 123.672C88.231 121.819 94.788 121.831 97.987 123.432Z"></path><path id="Vector_33" fill="#313553" d="M179.793 126.7C181.04 128.124 185.801 127.364 183.993 134.209V134.384C182.11 134.432 179.076 134.284 177.818 133.738C175.918 132.912 177.971 130.133 177.893 128.031C177.815 125.929 175.766 126.748 174.324 124.801C172.624 122.513 174.549 120.821 173.15 120.179C172.207 119.678 171.407 118.943 170.828 118.046V118.046C170.613 116.385 170.117 114.772 169.362 113.276V113.276C169.401 113.135 170.41 109.497 172.426 110.647C173.192 111.083 173.456 112.303 173.468 113.486C173.495 116.048 174.168 117.965 175.55 118.731C176.409 119.205 178.05 119.386 178.581 120.869C179.112 122.352 178.543 125.27 179.793 126.7Z"></path><path id="Vector_34" fill="#313553" d="M100.378 165.915C100.378 165.915 118.488 167.504 109.756 171.261C99.225 175.797 82.809 174.199 79.045 172.883C74.545 171.303 74.425 169.477 74.422 169.383C77.009 170.966 80.508 171.63 85.6 171.552H85.651C93.536 171.679 97.6 170.027 100.378 165.915Z"></path><path id="Vector_35" fill="#FFE8BB" d="M67.718 145.164C67.67 145.822 67.604 146.933 67.562 148.315H67.526C62.741 148.745 56.559 149 49.826 149C34.618 149 22.29 147.681 22.29 146.05C22.29 144.419 34.607 143.1 49.827 143.1C56.682 143.1 62.65 143.367 67.469 143.812L67.64 143.757C67.916 144.657 68.223 145.557 68.559 146.44C68.3383 146.302 68.1523 146.115 68.0153 145.893C67.8784 145.672 67.7941 145.422 67.769 145.163L67.718 145.164Z"></path><path id="Vector_36" fill="#FFE8BB" d="M154.351 106.547V106.847H147.4V104.477H154.354L154.351 106.547Z"></path><path id="Vector_37" fill="#313553" d="M70.677 165.617C71.6192 167.144 72.9007 168.433 74.422 169.384C66.531 172.018 41.408 171.261 31.75 168.297C29.8052 167.753 28.0998 166.571 26.908 164.941C28.44 165.575 36.043 168.597 49.722 168.597C56.8197 168.703 63.8902 167.697 70.677 165.617V165.617Z"></path><path id="Vector_38" fill="#ffffff" d="M167.838 110.783H133.913C134.03 109.97 134.393 109.211 134.954 108.611C135.515 108.01 136.246 107.594 137.049 107.421C138.358 106.986 143.765 106.872 147.397 106.848H154.351C157.298 106.869 161.341 106.948 163.494 107.202C163.9 107.237 164.302 107.31 164.694 107.421C165.376 107.568 166.007 107.892 166.525 108.36C167.042 108.827 167.428 109.423 167.644 110.086C167.722 110.315 167.786 110.547 167.838 110.783V110.783Z"></path><path id="Vector_39" fill="#313553" d="M55.276 104.219H58.037C57.7598 104.827 57.6172 105.488 57.619 106.157C57.6181 106.648 57.694 107.137 57.844 107.605H55.18C55.18 106.977 55.18 106.478 55.201 106.157C55.213 105.745 55.24 105.063 55.276 104.219Z"></path><path id="Vector_40" fill="#313553" d="M62.14 107.605C62.1389 107.804 62.0992 108 62.023 108.184C62.023 108.208 61.587 109.239 61.104 110.702C60.07 110.424 59.1617 109.802 58.529 108.938C58.7 108.449 58.857 108.038 58.98 107.713C59.13 107.319 59.232 107.073 59.253 107.025C59.3855 106.703 59.6258 106.437 59.9328 106.273C60.2397 106.109 60.5942 106.057 60.9355 106.125C61.2767 106.194 61.5835 106.379 61.8033 106.649C62.023 106.919 62.1421 107.257 62.14 107.605V107.605Z"></path><path id="Vector_41" fill="#313553" d="M58.749 107.605L58.98 107.713C58.857 108.034 58.7 108.449 58.529 108.938C58.2319 108.533 58.0007 108.083 57.844 107.605H58.749Z"></path><path id="Vector_42" fill="#edac4b" d="M55.18 119C55.1855 120.287 54.6845 121.524 53.7853 122.445C52.886 123.365 51.6607 123.895 50.374 123.92C49.83 123.92 49.317 123.938 48.89 123.938C42.6991 123.86 36.5225 123.322 30.411 122.331L30.278 122.31C29.7632 122.231 29.2806 122.011 28.8844 121.673C28.4881 121.335 28.194 120.893 28.035 120.397C27.8736 119.9 27.8316 119.371 27.9124 118.854C27.9932 118.338 28.1945 117.847 28.5 117.423L33.375 110.631V107.607H55.175C55.159 110.272 55.168 115.267 55.18 119Z"></path><path id="Vector_43" fill="#313553" d="M178.979 156.353C178.979 156.353 193.968 160.111 169.691 164.202C145.931 168.202 126.806 162.355 122.772 156.353C122.772 156.353 129.044 162.361 150.872 162.361C175.456 162.355 178.979 156.353 178.979 156.353Z"></path><path id="Vector_44" fill="#FFE8BB" d="M101.439 109.551C102.992 109.227 105.133 108.8 106.139 108.698C106.396 108.669 106.655 108.669 106.911 108.698C108.229 108.86 108.542 109.857 107.647 110.389C106.929 110.81 103.6 110.47 101.465 110.197C101.387 110.188 101.315 110.152 101.262 110.095C101.208 110.038 101.177 109.964 101.174 109.886C101.171 109.807 101.196 109.731 101.244 109.669C101.292 109.608 101.361 109.566 101.438 109.551H101.439Z"></path><path id="Vector_45" fill="#FFE8BB" d="M102.76 146.345C102.941 145.711 103.097 145.038 103.229 144.332C103.226 144.289 103.233 144.246 103.25 144.206L103.433 144.239C103.433 144.239 104.65 157.3 101.9 163.2C101.467 164.139 100.96 165.042 100.383 165.9C97.605 170 93.541 171.664 85.665 171.541H85.614C80.522 171.619 77.023 170.941 74.436 169.372C72.9096 168.425 71.6228 167.138 70.676 165.611C70.1818 164.835 69.7412 164.026 69.357 163.19C68.9778 162.349 68.681 161.473 68.471 160.574C67.6621 156.539 67.3598 152.419 67.571 148.309C67.613 146.927 67.679 145.816 67.727 145.158H67.778C67.8031 145.417 67.8874 145.667 68.0244 145.888C68.1613 146.11 68.3473 146.297 68.568 146.435C70.812 148.201 77.594 149.484 85.609 149.484C93.764 149.493 100.649 148.159 102.76 146.345Z"></path><path id="Vector_46" fill="#edac4b" d="M66.7 112.116C67.4926 113.043 67.9616 114.203 68.036 115.421C67.988 116.921 66.775 118.848 65.597 120.71C65.084 121.524 64.564 122.35 64.097 123.182C63.4201 123.086 62.7994 122.752 62.3459 122.241C61.8925 121.729 61.6359 121.073 61.622 120.389C61.559 117.229 61.502 112.579 61.673 110.81C61.885 110.84 62.0989 110.855 62.313 110.855C63.2177 110.856 64.1033 110.595 64.863 110.104C65.5337 110.719 66.1484 111.392 66.7 112.116Z"></path><path id="Vector_47" fill="#313553" d="M58.749 104.219V107.605H57.849C57.699 107.137 57.6231 106.648 57.624 106.157C57.6222 105.488 57.7648 104.827 58.042 104.219H58.749Z"></path><path id="Vector_48" fill="#ffffff" d="M84.32 136.291C93.578 133.903 100.447 129.291 100.012 125.835H100.087C100.087 125.835 100.387 126.658 100.796 127.991C101.542 130.372 102.166 132.79 102.667 135.234C102.835 136.063 102.983 136.907 103.103 137.742C103.244 138.712 103.346 139.673 103.403 140.598C103.484 141.8 103.433 143.007 103.25 144.198C103.253 144.241 103.246 144.284 103.229 144.324C103.097 145.03 102.929 145.703 102.76 146.337C100.66 148.137 93.76 149.485 85.6 149.485C77.585 149.485 70.8 148.202 68.559 146.436C68.223 145.55 67.916 144.636 67.64 143.753C66.7343 140.799 66.0227 137.789 65.51 134.742H65.534C66.841 137.964 75.074 138.676 84.32 136.291Z"></path><path id="Vector_49" fill="#ffffff" d="M113.346 127.793C114.232 134.215 103.418 140.593 103.418 140.593H103.388C103.337 139.668 103.235 138.707 103.088 137.737L103.322 137.704C103.322 137.704 110.784 132.94 110.765 128.392C110.765 124.938 108.865 124.469 107.296 124.649C106.653 124.737 106.023 124.897 105.416 125.127C103.877 125.925 102.409 126.852 101.027 127.899L100.781 127.98C100.366 126.647 100.072 125.824 100.072 125.824C101.69 124.668 103.413 123.668 105.22 122.838C106.506 122.393 110.958 121.36 112.73 125.478C113.04 126.218 113.247 126.997 113.346 127.793V127.793Z"></path><path id="Vector_50" fill="#edac4b" d="M106.915 108.68C109.453 108.89 115.905 112.11 117.566 117.58C119.894 125.249 119.017 135.738 123.535 142.446C124.114 143.318 124.777 144.132 125.514 144.876L125.556 144.834C124.502 136.252 128.65 132.113 128.65 132.113C128.257 130.224 128.255 128.275 128.643 126.385C129.032 124.496 129.803 122.706 130.909 121.125C130.575 117.422 131.646 113.729 133.909 110.78H167.834C168.435 111.555 168.953 112.39 169.381 113.273V113.273C170.137 114.773 170.633 116.391 170.847 118.058C170.977 119.08 170.977 120.115 170.847 121.137C171.951 122.716 172.72 124.505 173.108 126.392C173.496 128.279 173.494 130.226 173.103 132.113C173.103 132.113 177.242 136.252 176.19 144.834C176.19 144.834 180.029 150.241 178.975 156.35C178.975 156.35 175.452 162.358 150.875 162.358C129.044 162.358 122.775 156.35 122.775 156.35C122.452 154.32 122.572 152.244 123.126 150.265C121.707 148.9 120.435 147.39 119.332 145.759C114.832 139.052 116.593 127.959 114.265 120.293C111.937 112.627 101.465 110.203 101.465 110.203C103.6 110.476 106.929 110.803 107.647 110.395C108.547 109.863 108.229 108.866 106.911 108.704L106.915 108.68Z"></path><path id="Vector_51" fill="#313553" d="M61.686 110.819C61.4898 110.792 61.2954 110.753 61.104 110.702C61.587 109.239 62.004 108.208 62.023 108.184C62.0992 108 62.139 107.804 62.14 107.605H62.684C62.6839 107.847 62.7422 108.085 62.854 108.299C62.9658 108.514 63.1277 108.698 63.326 108.836C63.8699 109.227 64.3876 109.654 64.876 110.113C64.1163 110.604 63.2307 110.865 62.326 110.864C62.1119 110.864 61.898 110.849 61.686 110.819V110.819Z"></path><path id="Vector_52" fill="#ffffff" d="M159.689 100.819H142.059C143.559 98.689 150.824 98.611 150.824 98.611C150.824 98.611 158.2 98.689 159.689 100.819Z"></path><path id="Vector_53" fill="#313553" d="M33.4 104.219H55.276C55.24 105.063 55.213 105.739 55.201 106.157C55.201 106.478 55.183 106.977 55.18 107.605H33.38V104.219H33.4Z"></path><path id="Vector_54" fill="#313553" d="M60.608 123.149C61.3412 125.81 61.6603 128.568 61.554 131.326C61.01 136.414 55.165 137.688 54.919 137.739C54.8202 137.759 54.7198 137.77 54.619 137.772C54.2433 137.778 53.8792 137.642 53.5986 137.392C53.318 137.143 53.1414 136.797 53.1037 136.423C53.066 136.049 53.1699 135.675 53.395 135.374C53.62 135.073 53.9498 134.867 54.319 134.798C54.352 134.798 58.269 133.898 58.581 131.007C58.637 128.573 58.3338 126.144 57.681 123.798C57.1868 121.835 56.8683 119.832 56.729 117.812C56.636 114.912 57.756 111.176 58.529 108.95C59.1617 109.814 60.07 110.436 61.104 110.714C60.2792 112.96 59.8128 115.323 59.722 117.714C59.8623 119.548 60.1587 121.366 60.608 123.149V123.149Z"></path><path id="Vector_55" stroke="#313553" stroke-linecap="round" stroke-linejoin="round" stroke-width=".601" d="M129.602 82.07C143.833 82.07 155.369 70.5337 155.369 56.303C155.369 42.0723 143.833 30.536 129.602 30.536C115.371 30.536 103.835 42.0723 103.835 56.303C103.835 70.5337 115.371 82.07 129.602 82.07Z"></path><path id="Vector_56" stroke="#313553" stroke-linecap="round" stroke-linejoin="round" stroke-width=".601" d="M151.206 56.2999C151.207 60.5738 149.941 64.752 147.568 68.3062C145.195 71.8604 141.82 74.6309 137.872 76.2673C133.924 77.9037 129.579 78.3326 125.388 77.4996C121.196 76.6666 117.345 74.6091 114.323 71.5875C111.3 68.5659 109.242 64.7158 108.408 60.5242C107.573 56.3326 108.001 51.9878 109.636 48.0392C111.272 44.0907 114.041 40.7158 117.595 38.3414C121.148 35.967 125.326 34.6998 129.6 34.7H129.606C135.335 34.7 140.829 36.9757 144.88 41.0264C148.93 45.0772 151.206 50.5713 151.206 56.2999V56.2999Z"></path><path id="Vector_57" stroke="#313553" stroke-linecap="round" stroke-linejoin="round" stroke-width=".601" d="M147.397 104.478V106.547"></path><path id="Vector_58" stroke="#313553" stroke-linecap="round" stroke-linejoin="round" stroke-width=".601" d="M150.824 104.478H154.824C155.909 104.43 156.954 104.054 157.821 103.401C158.689 102.748 159.338 101.848 159.685 100.819H142.055C142.401 101.848 143.051 102.748 143.918 103.401C144.786 104.054 145.83 104.43 146.915 104.478H150.82"></path><path id="Vector_59" stroke="#313553" stroke-linecap="round" stroke-linejoin="round" stroke-width=".601" d="M154.351 104.478V106.547"></path><path id="Vector_60" stroke="#313553" stroke-linecap="round" stroke-linejoin="round" stroke-width=".601" d="M159.689 100.819C158.189 98.689 150.824 98.611 150.824 98.611C150.824 98.611 143.552 98.689 142.059 100.819"></path><path id="Vector_61" stroke="#313553" stroke-linecap="round" stroke-linejoin="round" stroke-width=".601" d="M167.838 110.783C167.788 110.546 167.725 110.313 167.649 110.083C167.433 109.42 167.047 108.824 166.53 108.357C166.012 107.889 165.381 107.565 164.699 107.418C164.307 107.307 163.905 107.234 163.499 107.199C161.346 106.944 157.299 106.866 154.356 106.845H147.4C143.768 106.869 138.362 106.983 137.052 107.418C136.249 107.591 135.518 108.006 134.957 108.607C134.397 109.208 134.033 109.967 133.916 110.78L167.838 110.783Z"></path><path id="Vector_62" stroke="#313553" stroke-linecap="round" stroke-linejoin="round" stroke-width=".601" d="M125.556 144.837C124.502 136.255 128.65 132.116 128.65 132.116C128.257 130.227 128.255 128.278 128.643 126.388C129.032 124.499 129.803 122.709 130.909 121.128C130.575 117.425 131.646 113.733 133.909 110.783"></path><path id="Vector_63" stroke="#313553" stroke-linecap="round" stroke-linejoin="round" stroke-width=".601" d="M169.385 113.279C170.141 114.778 170.637 116.395 170.851 118.061C170.981 119.083 170.981 120.118 170.851 121.14C171.955 122.719 172.724 124.508 173.112 126.395C173.5 128.282 173.498 130.229 173.107 132.116C173.107 132.116 177.246 136.255 176.194 144.837C176.194 144.837 180.033 150.244 178.979 156.353C178.979 156.353 175.456 162.361 150.879 162.361C129.048 162.361 122.779 156.353 122.779 156.353C122.456 154.323 122.576 152.247 123.13 150.268"></path><path id="Vector_64" stroke="#313553" stroke-linecap="round" stroke-linejoin="round" stroke-width=".601" d="M167.838 110.783C168.439 111.558 168.957 112.394 169.385 113.276"></path><path id="Vector_65" stroke="#313553" stroke-linecap="round" stroke-linejoin="round" stroke-width=".601" d="M131.738 132.831C131.738 132.831 137.911 135.056 149.082 135.068C163.682 135.083 169.691 132.831 169.691 132.831"></path><path id="Vector_66" stroke="#313553" stroke-linecap="round" stroke-linejoin="round" stroke-width=".601" d="M134.853 121.365C139.667 122.184 144.545 122.573 149.428 122.528C160.935 122.528 166.273 121.365 166.273 121.365"></path><path id="Vector_67" stroke="#313553" stroke-linecap="round" stroke-linejoin="round" stroke-width=".601" d="M130.537 145.146C136.518 147.115 142.786 148.074 149.082 147.985C163.682 147.985 170.592 145.146 170.592 145.146"></path><path id="Vector_68" stroke="#313553" stroke-linecap="round" stroke-linejoin="round" stroke-width=".601" d="M101.466 110.2C101.466 110.2 111.934 112.624 114.266 120.29C116.598 127.956 114.816 139.048 119.333 145.756C120.436 147.387 121.708 148.897 123.127 150.262C125.098 152.214 127.379 153.825 129.877 155.029"></path><path id="Vector_69" stroke="#313553" stroke-linecap="round" stroke-linejoin="round" stroke-width=".601" d="M106.915 108.68C109.453 108.89 115.905 112.11 117.566 117.58C119.894 125.249 119.017 135.738 123.535 142.446C124.114 143.318 124.777 144.132 125.514 144.876C126.978 146.457 128.927 147.507 131.053 147.859"></path><path id="Vector_70" stroke="#313553" stroke-linecap="round" stroke-linejoin="round" stroke-width=".601" d="M163.494 107.2C163.645 106.628 163.972 106.118 164.428 105.742C164.884 105.365 165.446 105.141 166.036 105.1C167.866 105.101 169.678 105.456 171.373 106.146"></path><path id="Vector_71" stroke="#313553" stroke-linecap="round" stroke-linejoin="round" stroke-width=".601" d="M169.385 113.279C169.424 113.138 170.433 109.5 172.449 110.65C173.215 111.086 173.479 112.306 173.491 113.489C173.518 116.051 174.191 117.968 175.573 118.734C176.432 119.208 178.073 119.389 178.604 120.872C179.135 122.355 178.543 125.272 179.804 126.7C181.065 128.128 185.812 127.364 184.004 134.209"></path><path id="Vector_72" stroke="#313553" stroke-linecap="round" stroke-linejoin="round" stroke-width=".601" d="M170.854 118.061C171.43 118.961 172.23 119.697 173.176 120.194C174.576 120.824 172.653 122.528 174.35 124.816C175.792 126.763 177.841 125.946 177.919 128.046C177.997 130.146 175.945 132.918 177.844 133.753C179.102 134.299 182.136 134.447 184.019 134.399C184.545 134.417 185.07 134.362 185.581 134.236C186.781 133.561 187.128 131.917 186.416 128.709C185.704 125.501 183.142 125.438 181.916 124.009C180.69 122.58 181.261 119.669 180.716 118.182C180.171 116.695 178.578 116.461 177.685 116.043C176.792 115.625 176.078 114.499 175.604 110.799C175.186 107.537 172.963 106.065 171.398 106.17C171.193 106.182 170.991 106.225 170.798 106.296C169.254 106.896 168.241 108.796 167.857 110.039"></path><path id="Vector_73" stroke="#313553" stroke-linecap="round" stroke-linejoin="round" stroke-width=".601" d="M106.912 108.7C106.656 108.671 106.397 108.671 106.14 108.7C105.133 108.8 102.992 109.229 101.44 109.553C101.363 109.568 101.294 109.61 101.246 109.671C101.198 109.733 101.173 109.809 101.176 109.888C101.179 109.966 101.21 110.04 101.264 110.097C101.317 110.154 101.389 110.19 101.467 110.199C103.602 110.472 106.931 110.799 107.649 110.391C108.543 109.857 108.224 108.86 106.912 108.7Z"></path><path id="Vector_74" stroke="#313553" stroke-linecap="round" stroke-linejoin="round" stroke-width=".601" d="M122.772 156.353C126.806 162.361 145.931 168.203 169.691 164.202C193.968 160.111 178.979 156.353 178.979 156.353"></path><path id="Vector_75" stroke="#313553" stroke-linecap="round" stroke-linejoin="round" stroke-width=".601" d="M130.383 53.7371C130.477 53.7642 130.57 53.7976 130.66 53.8371"></path><path id="Vector_76" stroke="#313553" stroke-linecap="round" stroke-linejoin="round" stroke-width=".601" d="M132.011 55.1C132.25 55.5724 132.343 56.105 132.279 56.6304C132.215 57.1558 131.996 57.6503 131.651 58.0516C131.306 58.4529 130.85 58.7428 130.34 58.8847C129.83 59.0265 129.289 59.014 128.787 58.8487C128.284 58.6834 127.841 58.3727 127.515 57.9559C127.189 57.5391 126.994 57.035 126.954 56.5072C126.914 55.9794 127.032 55.4517 127.292 54.9909C127.553 54.53 127.944 54.1566 128.416 53.918C128.456 53.897 128.497 53.878 128.539 53.859"></path><path id="Vector_77" stroke="#313553" stroke-linecap="round" stroke-linejoin="round" stroke-width=".601" d="M129.62 35.0811V37.4841"></path><path id="Vector_78" stroke="#313553" stroke-linecap="round" stroke-linejoin="round" stroke-width=".601" d="M129.62 75.031V77.434"></path><path id="Vector_79" stroke="#313553" stroke-linecap="round" stroke-linejoin="round" stroke-width=".601" d="M108.398 56.303H110.805"></path><path id="Vector_80" stroke="#313553" stroke-linecap="round" stroke-linejoin="round" stroke-width=".601" d="M148.65 56.303H151.056"></path><path id="Vector_81" stroke="#313553" stroke-linecap="round" stroke-linejoin="round" stroke-width=".601" d="M114.676 41.359L116.377 43.059"></path><path id="Vector_82" stroke="#313553" stroke-linecap="round" stroke-linejoin="round" stroke-width=".601" d="M142.927 69.606L144.627 71.307"></path><path id="Vector_83" stroke="#313553" stroke-linecap="round" stroke-linejoin="round" stroke-width=".601" d="M114.676 71.3699L116.377 69.6689"></path><path id="Vector_84" stroke="#313553" stroke-linecap="round" stroke-linejoin="round" stroke-width=".601" d="M143.138 42.909L144.838 41.208"></path><path id="Vector_85" stroke="#313553" stroke-linecap="round" stroke-linejoin="round" stroke-width=".601" d="M121.014 36.952L121.994 39.148"></path><path id="Vector_86" stroke="#313553" stroke-linecap="round" stroke-linejoin="round" stroke-width=".601" d="M137.292 73.436L138.274 75.632"></path><path id="Vector_87" stroke="#313553" stroke-linecap="round" stroke-linejoin="round" stroke-width=".601" d="M110.282 64.981L112.478 64.001"></path><path id="Vector_88" stroke="#313553" stroke-linecap="round" stroke-linejoin="round" stroke-width=".601" d="M147.04 48.58L149.235 47.597"></path><path id="Vector_89" stroke="#313553" stroke-linecap="round" stroke-linejoin="round" stroke-width=".601" d="M139.073 37.252L138.001 39.406"></path><path id="Vector_90" stroke="#313553" stroke-linecap="round" stroke-linejoin="round" stroke-width=".601" d="M121.264 73.016L120.191 75.169"></path><path id="Vector_91" stroke="#313553" stroke-linecap="round" stroke-linejoin="round" stroke-width=".601" d="M110.615 46.7891L112.769 47.8621"></path><path id="Vector_92" stroke="#313553" stroke-linecap="round" stroke-linejoin="round" stroke-width=".601" d="M146.646 64.731L148.8 65.804"></path><path id="Vector_93" stroke="#313553" stroke-linecap="round" stroke-linejoin="round" stroke-width=".601" d="M103.337 145.609C103.204 145.895 103.006 146.147 102.76 146.345C100.66 148.145 93.76 149.493 85.6 149.493C77.585 149.493 70.8 148.21 68.559 146.444C68.3383 146.306 68.1523 146.119 68.0154 145.897C67.8784 145.676 67.7941 145.426 67.769 145.167"></path><path id="Vector_94" stroke="#313553" stroke-linecap="round" stroke-linejoin="round" stroke-width=".601" d="M101.042 150.634C97.957 151.934 92.196 152.797 85.6 152.797C79.004 152.797 73.239 151.929 70.157 150.634"></path><path id="Vector_95" stroke="#313553" stroke-linecap="round" stroke-linejoin="round" stroke-width=".601" d="M74.419 169.384C72.8986 168.433 71.618 167.144 70.677 165.617C70.1828 164.841 69.7421 164.032 69.358 163.196C68.9787 162.355 68.682 161.479 68.472 160.58C67.6631 156.545 67.3608 152.425 67.572 148.315C67.614 146.933 67.68 145.822 67.728 145.164C67.758 144.741 67.779 144.506 67.779 144.506"></path><path id="Vector_96" stroke="#313553" stroke-linecap="round" stroke-linejoin="round" stroke-width=".601" d="M103.418 144.233C103.418 144.233 104.635 157.297 101.886 163.196C101.453 164.135 100.946 165.038 100.369 165.896C97.591 169.996 93.527 171.66 85.651 171.537H85.6C80.508 171.615 77.009 170.937 74.422 169.368"></path><path id="Vector_97" stroke="#313553" stroke-linecap="round" stroke-linejoin="round" stroke-width=".601" d="M97.987 123.432C98.4487 123.617 98.8641 123.901 99.2042 124.264C99.5442 124.626 99.8005 125.059 99.955 125.532C99.981 125.631 100 125.731 100.012 125.832C100.447 129.289 93.578 133.9 84.32 136.288C75.062 138.676 66.841 137.961 65.534 134.738C65.4906 134.641 65.4554 134.541 65.429 134.438C64.829 132.138 67.691 129.247 72.449 126.844C75.2004 125.485 78.0883 124.422 81.064 123.672C88.231 121.819 94.788 121.831 97.987 123.432Z"></path><path id="Vector_98" stroke="#313553" stroke-linecap="round" stroke-linejoin="round" stroke-width=".601" d="M67.913 134.69C67.144 131.707 73.137 127.58 81.298 125.477C89.459 123.374 96.698 124.083 97.471 127.069"></path><path id="Vector_99" stroke="#313553" stroke-linecap="round" stroke-linejoin="round" stroke-width=".601" d="M99.213 131.944C94.9047 135.101 90.0213 137.387 84.837 138.673C79.5327 140.125 73.9813 140.44 68.547 139.595"></path><path id="Vector_100" stroke="#313553" stroke-linecap="round" stroke-linejoin="round" stroke-width=".601" d="M68.574 146.444C68.238 145.558 67.931 144.644 67.655 143.761C66.7493 140.807 66.0378 137.797 65.525 134.75"></path><path id="Vector_101" stroke="#313553" stroke-linecap="round" stroke-linejoin="round" stroke-width=".601" d="M100.087 125.832C100.087 125.832 100.387 126.655 100.796 127.988C101.542 130.369 102.166 132.787 102.667 135.231C102.835 136.06 102.983 136.904 103.103 137.739C103.244 138.709 103.346 139.67 103.403 140.595C103.484 141.797 103.433 143.004 103.25 144.195C103.253 144.238 103.246 144.281 103.229 144.321C103.097 145.027 102.929 145.7 102.76 146.334"></path><path id="Vector_102" stroke="#313553" stroke-linecap="round" stroke-linejoin="round" stroke-width=".601" d="M100.087 125.832C101.697 124.669 103.416 123.664 105.22 122.832C106.506 122.387 110.958 121.354 112.73 125.472C113.04 126.213 113.247 126.994 113.346 127.791C114.232 134.213 103.418 140.591 103.418 140.591"></path><path id="Vector_103" stroke="#313553" stroke-linecap="round" stroke-linejoin="round" stroke-width=".601" d="M101.042 127.907C102.424 126.86 103.892 125.933 105.431 125.135C106.042 124.909 106.677 124.752 107.323 124.669C108.894 124.489 110.781 124.969 110.793 128.412C110.811 132.954 103.349 137.724 103.349 137.724"></path><path id="Vector_104" stroke="#313553" stroke-linecap="round" stroke-linejoin="round" stroke-width=".601" d="M97.984 123.435C99.5611 122.446 101.297 121.735 103.115 121.335C105.947 120.857 111.634 120.692 112.727 125.471"></path><path id="Vector_105" stroke="#313553" stroke-linecap="round" stroke-linejoin="round" stroke-width=".601" d="M107.323 124.669C108.823 125.213 109.005 126.469 108.798 128.334C108.498 131.1 104.767 133.807 102.679 135.243"></path><path id="Vector_106" stroke="#313553" stroke-linecap="round" stroke-linejoin="round" stroke-width=".601" d="M74.422 169.384C74.422 169.474 74.528 171.3 79.045 172.884C82.809 174.2 99.225 175.798 109.756 171.262C118.488 167.505 100.378 165.916 100.378 165.916"></path><path id="Vector_107" stroke="#313553" stroke-linecap="round" stroke-linejoin="round" stroke-width=".601" d="M67.592 90.1L78.06 70.7C78.1878 70.4574 78.2508 70.1858 78.2428 69.9117C78.2348 69.6375 78.1562 69.3701 78.0144 69.1353C77.8727 68.9005 77.6727 68.7063 77.4338 68.5715C77.1949 68.4367 76.9253 68.366 76.651 68.366H74.281C73.7294 68.366 73.1938 68.552 72.761 68.894L71.443 69.931C70.699 70.5182 69.7834 70.8458 68.8358 70.8638C67.8883 70.8819 66.9608 70.5894 66.195 70.031L64.546 68.831C64.1267 68.5269 63.622 68.3631 63.104 68.363H22.787C22.5127 68.3635 22.2431 68.4348 22.0044 68.57C21.7657 68.7052 21.566 68.8997 21.4246 69.1348C21.2832 69.3699 21.2048 69.6375 21.1972 69.9117C21.1896 70.1859 21.2529 70.4575 21.381 70.7L31.849 90.092"></path><path id="Vector_108" stroke="#313553" stroke-linecap="round" stroke-linejoin="round" stroke-width=".601" d="M33.378 104.219V101.5L28.323 94.474C28.0277 94.0607 27.8519 93.5741 27.8149 93.0675C27.7779 92.5609 27.8811 92.0539 28.1132 91.6021C28.3453 91.1502 28.6974 90.7711 29.1307 90.5061C29.5641 90.2411 30.062 90.1006 30.57 90.1H51.029C51.6432 90.1001 52.2513 90.2212 52.8187 90.4564C53.3861 90.6915 53.9016 91.0362 54.3358 91.4705C54.77 91.9049 55.1144 92.4206 55.3494 92.9881C55.5843 93.5556 55.7051 94.1638 55.705 94.778C55.705 94.855 55.705 94.932 55.705 95.009C55.554 98.048 55.374 101.821 55.272 104.224"></path><path id="Vector_109" stroke="#313553" stroke-linecap="round" stroke-linejoin="round" stroke-width=".601" d="M55.18 107.605C55.159 110.272 55.18 115.267 55.18 118.998C55.1855 120.285 54.6845 121.522 53.7853 122.443C52.886 123.363 51.6607 123.893 50.374 123.918C49.83 123.918 49.317 123.936 48.89 123.936C42.6991 123.858 36.5225 123.32 30.411 122.329L30.278 122.308C29.7632 122.229 29.2806 122.009 28.8844 121.671C28.4881 121.333 28.194 120.891 28.035 120.395C27.8736 119.898 27.8316 119.369 27.9124 118.852C27.9932 118.336 28.1945 117.845 28.5 117.421L33.375 110.629V107.605"></path><path id="Vector_110" stroke="#313553" stroke-linecap="round" stroke-linejoin="round" stroke-width=".601" d="M65.51 102.684L71.11 94.475C71.4062 94.0627 71.5833 93.5769 71.6218 93.0706C71.6603 92.5644 71.5587 92.0574 71.3282 91.6051C71.0977 91.1528 70.7472 90.7726 70.315 90.5062C69.8828 90.2399 69.3856 90.0976 68.878 90.095H66.706C66.1243 90.094 65.5558 90.2681 65.0743 90.5944C64.5928 90.9207 64.2206 91.3843 64.006 91.925C63.0323 95.0113 62.4728 98.2133 62.342 101.447"></path><path id="Vector_111" stroke="#313553" stroke-linecap="round" stroke-linejoin="round" stroke-width=".601" d="M64.11 123.191C63.4331 123.095 62.8124 122.761 62.359 122.25C61.9055 121.738 61.6489 121.082 61.635 120.398C61.572 117.238 61.515 112.588 61.686 110.819"></path><path id="Vector_112" stroke="#313553" stroke-linecap="round" stroke-linejoin="round" stroke-width=".601" d="M70.773 117.193L70.938 117.421C71.2424 117.847 71.4428 118.338 71.523 118.856C71.6032 119.373 71.5611 119.902 71.4 120.4C71.2383 120.893 70.9451 121.332 70.552 121.67C70.1573 122.008 69.6758 122.229 69.162 122.307L69.015 122.331C68.687 122.388 68.372 122.478 67.972 122.584"></path><path id="Vector_113" stroke="#313553" stroke-linecap="round" stroke-linejoin="round" stroke-width=".601" d="M70.677 165.617C63.8906 167.699 56.8198 168.705 49.722 168.597C36.043 168.597 28.44 165.575 26.908 164.941C26.4866 164.768 26.1507 164.435 25.9735 164.015C25.7963 163.596 25.7922 163.123 25.962 162.7L26.562 161.175L24.854 159.6C19.354 155.839 18.546 149.606 18.921 144.229C19.561 134.746 30.369 122.572 30.369 122.572"></path><path id="Vector_114" stroke="#313553" stroke-linecap="round" stroke-linejoin="round" stroke-width=".601" d="M69.061 122.567C69.061 122.567 70.547 124.24 72.449 126.829"></path><path id="Vector_115" stroke="#313553" stroke-linecap="round" stroke-linejoin="round" stroke-width=".601" d="M22.745 141.1C24.983 133.32 32.396 124.973 32.396 124.973"></path><path id="Vector_116" stroke="#313553" stroke-linecap="round" stroke-linejoin="round" stroke-width=".601" d="M68.274 160.634C65.801 161.534 60.058 162.893 49.734 162.893C43.4845 162.909 37.2645 162.036 31.261 160.3C29.8509 159.877 28.5548 159.139 27.47 158.144C23.183 155.209 22.087 150.604 22.087 146.285V146.05C22.087 145.483 22.114 144.924 22.153 144.374"></path><path id="Vector_117" stroke="#313553" stroke-linecap="round" stroke-linejoin="round" stroke-width=".601" d="M29.5 92.027H49.719"></path><path id="Vector_118" stroke="#313553" stroke-linecap="round" stroke-linejoin="round" stroke-width=".601" d="M29.5 120.019C31.144 120.387 32.8097 120.651 34.487 120.809C36.707 120.969 49.719 121.709 49.719 121.709"></path><path id="Vector_119" stroke="#313553" stroke-linecap="round" stroke-linejoin="round" stroke-width=".601" d="M35.941 101.447H47.953"></path><path id="Vector_120" stroke="#313553" stroke-linecap="round" stroke-linejoin="round" stroke-width=".601" d="M39.608 110.422H48.89"></path><path id="Vector_121" stroke="#313553" stroke-linecap="round" stroke-linejoin="round" stroke-width=".601" d="M65.078 101.447H65.976"></path><path id="Vector_122" stroke="#313553" stroke-linecap="round" stroke-linejoin="round" stroke-width=".601" d="M67.526 148.315C62.741 148.745 56.559 149 49.826 149C34.618 149 22.29 147.681 22.29 146.05C22.29 144.419 34.607 143.1 49.827 143.1C56.682 143.1 62.65 143.367 67.469 143.812"></path><path id="Vector_123" stroke="#313553" stroke-linecap="round" stroke-linejoin="round" stroke-width=".601" d="M26.905 164.941C28.0968 166.571 29.8022 167.753 31.747 168.297C41.405 171.261 66.528 172.018 74.419 169.384"></path><path id="Vector_124" stroke="#313553" stroke-linecap="round" stroke-linejoin="round" stroke-width=".601" d="M178.216 140.076H194.337"></path><path id="Vector_125" stroke="#313553" stroke-linecap="round" stroke-linejoin="round" stroke-width=".601" d="M108.155 140.076H114.421"></path><path id="Vector_126" stroke="#313553" stroke-linecap="round" stroke-linejoin="round" stroke-width=".601" d="M4.33698 140.076H18.035"></path><path id="Vector_127" stroke="#313553" stroke-linecap="round" stroke-linejoin="round" stroke-width=".601" d="M39.629 67.1C39.1819 66.3015 38.9461 65.4021 38.944 64.487C38.608 53.287 63.302 65.487 63.534 56.299C63.766 47.111 43.408 59.687 42.612 50.309C41.816 40.931 61.8 50.204 61.752 43.055C61.704 35.906 45.346 43.848 44.952 38.044C44.558 32.24 59.652 36.819 59.652 32.016C59.652 27.213 51.908 30.406 50.965 26.308C49.931 21.83 55.206 20.547 57.125 21.755"></path><path id="Vector_128" stroke="#313553" stroke-linecap="round" stroke-linejoin="round" stroke-width=".601" d="M46.451 86.413C44.251 75.791 63.534 85.16 63.534 75.169C63.534 67.891 50.665 71.493 43.546 69.657"></path></g></svg>